STARTFONT 2.1
FONT -DIGITAL-VT220-medium-I-Normal-136col-80-800-75-75-c-360-iso10646-1
SIZE 80 75 75
FONTBOUNDINGBOX 62 80 -13 -16
STARTPROPERTIES 21
FOUNDRY "DIGITAL"
FAMILY_NAME "vt220"
WEIGHT_NAME "medium"
RELATIVE_SETWIDTH 50
SLANT "I"
SETWIDTH_NAME "Normal"
ADD_STYLE_NAME "136col"
PIXEL_SIZE 80
POINT_SIZE 800
RESOLUTION_X 75
RESOLUTION_Y 75
SPACING "c"
CHARSET_REGISTRY "ISO10646"
CHARSET_ENCODING "1"
CAP_HEIGHT 56
X_HEIGHT 40
WEIGHT 10
QUAD_WIDTH 36
FONT_ASCENT 64
FONT_DESCENT 16
AVERAGE_WIDTH 360
ENDPROPERTIES
CHARS 237
STARTCHAR U+00FD
ENCODING 253
SWIDTH 1000 0
DWIDTH 36 0
BBX 62 80 -13 -16
BITMAP
0000000000000000
0000000000000000
0000000000000000
0000000000000000
0000000000000000
0000000000000000
0000000000000000
0000000000000000
0000000000000000
0000000000000000
0000000000000000
0000000000000000
0000000000000000
0000000000000000
0000000000000000
0000000000000000
0000000000000000
0000000000000000
0000000000000000
0000000000000000
0000000000000000
0000000000000000
0000000000000000
0000000000000000
0000000000000000
0000000000000000
0000000000000000
0000000000000000
0000000000000000
0000000000000000
0000000000000000
0000000000000000
0000000000000000
0000000000000000
0000000000000000
0000000000000000
0000000000000000
0000000000000000
0000000000000000
0000000000000000
0000000000000000
0000000000000000
0000000000000000
0000000000000000
0000000000000000
0000000000000000
0000000000000000
0000000000000000
0000000000000000
0000000000000000
0000000000000000
0000000000000000
0000000000000000
0000000000000000
0000000000000000
0000000000000000
0000000000000000
0000000000000000
0000000000000000
0000000000000000
0000000000000000
0000000000000000
0000000000000000
0000000000000000
0000000000000000
0000000000000000
0000000000000000
0000000000000000
0000000000000000
0000000000000000
0000000000000000
0000000000000000
0000000000000000
0000000000000000
0000000000000000
0000000000000000
0000000000000000
0000000000000000
0000000000000000
0000000000000000
ENDCHAR
STARTCHAR U+25A1
ENCODING 9633
SWIDTH 1000 0
DWIDTH 36 0
BBX 62 80 -13 -16
BITMAP
0000000000000000
0000000000000000
0000000000000000
0000000000000000
0000000000000000
0000000000000000
0000000000000000
0000000000000000
000000FFFFFFFF00
000001FFFFFFFE00
000001FFFFFFFE00
000001FFFFFFFE00
000003FFFFFFFC00
000003FFFFFFFC00
000003FFFFFFFC00
000007FFFFFFF800
000007F80007F800
000007F80007F800
00000FF0000FF000
00000FF0000FF000
00000FF0000FF000
00001FE0001FE000
00001FE0001FE000
00001FE0001FE000
00003FC0003FC000
00003FC0003FC000
00003FC0003FC000
00007F80007F8000
00007F80007F8000
00007F80007F8000
0000FF0000FF0000
0000FF0000FF0000
0000FF0000FF0000
0001FE0001FE0000
0001FE0001FE0000
0001FE0001FE0000
0003FC0003FC0000
0003FC0003FC0000
0003FC0003FC0000
0007F80007F80000
0007F80007F80000
0007F80007F80000
000FF0000FF00000
000FF0000FF00000
000FF0000FF00000
001FE0001FE00000
001FE0001FE00000
001FE0001FE00000
003FC0003FC00000
003FC0003FC00000
003FC0003FC00000
007F80007F800000
007F80007F800000
007F80007F800000
00FF0000FF000000
00FF0000FF000000
00FFFFFFFF000000
01FFFFFFFE000000
01FFFFFFFE000000
01FFFFFFFE000000
03FFFFFFFC000000
03FFFFFFFC000000
03FFFFFFFC000000
07FFFFFFF8000000
0000000000000000
0000000000000000
0000000000000000
0000000000000000
0000000000000000
0000000000000000
0000000000000000
0000000000000000
0000000000000000
0000000000000000
0000000000000000
0000000000000000
0000000000000000
0000000000000000
0000000000000000
0000000000000000
ENDCHAR
STARTCHAR U+00FE
ENCODING 254
SWIDTH 1000 0
DWIDTH 36 0
BBX 62 80 -13 -16
BITMAP
0000000000000000
0000000000000000
0000000000000000
0000000000000000
0000000000000000
0000000000000000
0000000000000000
0000000000000000
000000FF00000000
000001FE00000000
000001FE00000000
000001FE00000000
000003FC00000000
000003FC00000000
000003FC00000000
000007F800000000
000007F800000000
000007F800000000
00000FF000000000
00000FF000000000
00000FF000000000
00001FE000000000
00001FE000000000
00001FE000000000
00003FFFFFFC0000
00003FFFFFFC0000
00003FFFFFFC0000
00007FFFFFF80000
00007FFFFFF80000
00007FFFFFF80000
0000FFFFFFF00000
0000FFFFFFF00000
0000FFF000FF0000
0001FFE001FE0000
0001FFE001FE0000
0001FFE001FE0000
0003FFC003FC0000
0003FFC003FC0000
0003FFC003FC0000
0007FF8007F80000
0007FF8007F80000
0007FF8007F80000
000FFF000FF00000
000FFF000FF00000
000FFF000FF00000
001FFE001FE00000
001FFE001FE00000
001FFE001FE00000
003FFFFFFC000000
003FFFFFFC000000
003FFFFFFC000000
007FFFFFF8000000
007FFFFFF8000000
007FFFFFF8000000
00FFFFFFF0000000
00FFFFFFF0000000
00FF000000000000
01FE000000000000
01FE000000000000
01FE000000000000
03FC000000000000
03FC000000000000
03FC000000000000
07F8000000000000
07F8000000000000
07F8000000000000
0FF0000000000000
0FF0000000000000
0FF0000000000000
1FE0000000000000
1FE0000000000000
1FE0000000000000
3FC0000000000000
3FC0000000000000
3FC0000000000000
7F80000000000000
7F80000000000000
7F80000000000000
FF00000000000000
FF00000000000000
ENDCHAR
STARTCHAR U+00FF
ENCODING 255
SWIDTH 1000 0
DWIDTH 36 0
BBX 62 80 -13 -16
BITMAP
0000000000000000
0000000000000000
0000000000000000
0000000000000000
0000000000000000
0000000000000000
0000000000000000
0000000000000000
0000000FF00FF000
0000001FE01FE000
0000001FE01FE000
0000001FE01FE000
0000003FC03FC000
0000003FC03FC000
0000003FC03FC000
0000007F807F8000
0000000000000000
0000000000000000
0000000000000000
0000000000000000
0000000000000000
0000000000000000
0000000000000000
0000000000000000
00003FC003FC0000
00003FC003FC0000
00003FC003FC0000
00007F8007F80000
00007F8007F80000
00007F8007F80000
0000FF000FF00000
0000FF000FF00000
0000FF000FF00000
0001FE001FE00000
0001FE001FE00000
0001FE001FE00000
0003FC003FC00000
0003FC003FC00000
0003FC003FC00000
0007F8007F800000
0007F807FF800000
0007F807FF800000
000FF00FFF000000
000FF00FFF000000
000FF00FFF000000
001FE01FFE000000
001FE01FFE000000
001FE01FFE000000
0003FFFFFC000000
0003FFFFFC000000
0003FFFFFC000000
0007FFFFF8000000
0007FFFFF8000000
0007FFFFF8000000
000FFFFFF0000000
000FFFFFF0000000
0000000FF0000000
0000001FE0000000
0000001FE0000000
0000001FE0000000
0000003FC0000000
0000003FC0000000
0000003FC0000000
0000007F80000000
07F8007F80000000
07F8007F80000000
0FF000FF00000000
0FF000FF00000000
0FF000FF00000000
1FE001FE00000000
1FE001FE00000000
1FE001FE00000000
03FFFFC000000000
03FFFFC000000000
03FFFFC000000000
07FFFF8000000000
07FFFF8000000000
07FFFF8000000000
0FFFFF0000000000
0FFFFF0000000000
ENDCHAR
STARTCHAR U+00FC
ENCODING 252
SWIDTH 1000 0
DWIDTH 36 0
BBX 62 80 -13 -16
BITMAP
0000000000000000
0000000000000000
0000000000000000
0000000000000000
0000000000000000
0000000000000000
0000000000000000
0000000000000000
0000000FF00FF000
0000001FE01FE000
0000001FE01FE000
0000001FE01FE000
0000003FC03FC000
0000003FC03FC000
0000003FC03FC000
0000007F807F8000
0000000000000000
0000000000000000
0000000000000000
0000000000000000
0000000000000000
0000000000000000
0000000000000000
0000000000000000
00003FC003FC0000
00003FC003FC0000
00003FC003FC0000
00007F8007F80000
00007F8007F80000
00007F8007F80000
0000FF000FF00000
0000FF000FF00000
0000FF000FF00000
0001FE001FE00000
0001FE001FE00000
0001FE001FE00000
0003FC003FC00000
0003FC003FC00000
0003FC003FC00000
0007F8007F800000
0007F8007F800000
0007F8007F800000
000FF000FF000000
000FF000FF000000
000FF000FF000000
001FE001FE000000
001FE001FE000000
001FE001FE000000
003FC003FC000000
003FC003FC000000
003FC003FC000000
007F8007F8000000
007F8007F8000000
007F8007F8000000
00FF000FF0000000
00FF000FF0000000
000FFFFFFF000000
001FFFFFFE000000
001FFFFFFE000000
001FFFFFFE000000
003FFFFFFC000000
003FFFFFFC000000
003FFFFFFC000000
007FFFFFF8000000
0000000000000000
0000000000000000
0000000000000000
0000000000000000
0000000000000000
0000000000000000
0000000000000000
0000000000000000
0000000000000000
0000000000000000
0000000000000000
0000000000000000
0000000000000000
0000000000000000
0000000000000000
0000000000000000
ENDCHAR
STARTCHAR U+00FB
ENCODING 251
SWIDTH 1000 0
DWIDTH 36 0
BBX 62 80 -13 -16
BITMAP
000000003FFFC000
000000003FFFC000
000000003FFFC000
000000007FFF8000
000000007FFF8000
000000007FFF8000
00000000FFFF0000
00000000FFFF0000
0000000FF00FF000
0000001FE01FE000
0000001FE01FE000
0000001FE01FE000
0000003FC03FC000
0000003FC03FC000
0000003FC03FC000
0000007F807F8000
0000000000000000
0000000000000000
0000000000000000
0000000000000000
0000000000000000
0000000000000000
0000000000000000
0000000000000000
00003FC003FC0000
00003FC003FC0000
00003FC003FC0000
00007F8007F80000
00007F8007F80000
00007F8007F80000
0000FF000FF00000
0000FF000FF00000
0000FF000FF00000
0001FE001FE00000
0001FE001FE00000
0001FE001FE00000
0003FC003FC00000
0003FC003FC00000
0003FC003FC00000
0007F8007F800000
0007F8007F800000
0007F8007F800000
000FF000FF000000
000FF000FF000000
000FF000FF000000
001FE001FE000000
001FE001FE000000
001FE001FE000000
003FC003FC000000
003FC003FC000000
003FC003FC000000
007F8007F8000000
007F8007F8000000
007F8007F8000000
00FF000FF0000000
00FF000FF0000000
000FFFFFFF000000
001FFFFFFE000000
001FFFFFFE000000
001FFFFFFE000000
003FFFFFFC000000
003FFFFFFC000000
003FFFFFFC000000
007FFFFFF8000000
0000000000000000
0000000000000000
0000000000000000
0000000000000000
0000000000000000
0000000000000000
0000000000000000
0000000000000000
0000000000000000
0000000000000000
0000000000000000
0000000000000000
0000000000000000
0000000000000000
0000000000000000
0000000000000000
ENDCHAR
STARTCHAR U+00FA
ENCODING 250
SWIDTH 1000 0
DWIDTH 36 0
BBX 62 80 -13 -16
BITMAP
0000000000000000
0000000000000000
0000000000000000
0000000000000000
0000000000000000
0000000000000000
0000000000000000
0000000000000000
000000000FFF0000
000000001FFE0000
000000001FFE0000
000000001FFE0000
000000003FFC0000
000000003FFC0000
000000003FFC0000
000000007FF80000
0000007FF8000000
0000007FF8000000
000000FFF0000000
000000FFF0000000
000000FFF0000000
000001FFE0000000
000001FFE0000000
000001FFE0000000
00003FC003FC0000
00003FC003FC0000
00003FC003FC0000
00007F8007F80000
00007F8007F80000
00007F8007F80000
0000FF000FF00000
0000FF000FF00000
0000FF000FF00000
0001FE001FE00000
0001FE001FE00000
0001FE001FE00000
0003FC003FC00000
0003FC003FC00000
0003FC003FC00000
0007F8007F800000
0007F8007F800000
0007F8007F800000
000FF000FF000000
000FF000FF000000
000FF000FF000000
001FE001FE000000
001FE001FE000000
001FE001FE000000
003FC003FC000000
003FC003FC000000
003FC003FC000000
007F8007F8000000
007F8007F8000000
007F8007F8000000
00FF000FF0000000
00FF000FF0000000
000FFFFFFF000000
001FFFFFFE000000
001FFFFFFE000000
001FFFFFFE000000
003FFFFFFC000000
003FFFFFFC000000
003FFFFFFC000000
007FFFFFF8000000
0000000000000000
0000000000000000
0000000000000000
0000000000000000
0000000000000000
0000000000000000
0000000000000000
0000000000000000
0000000000000000
0000000000000000
0000000000000000
0000000000000000
0000000000000000
0000000000000000
0000000000000000
0000000000000000
ENDCHAR
STARTCHAR U+00F9
ENCODING 249
SWIDTH 1000 0
DWIDTH 36 0
BBX 62 80 -13 -16
BITMAP
0000000000000000
0000000000000000
0000000000000000
0000000000000000
0000000000000000
0000000000000000
0000000000000000
0000000000000000
0000000FFF000000
0000001FFE000000
0000001FFE000000
0000001FFE000000
0000003FFC000000
0000003FFC000000
0000003FFC000000
0000007FF8000000
000000007FF80000
000000007FF80000
00000000FFF00000
00000000FFF00000
00000000FFF00000
00000001FFE00000
00000001FFE00000
00000001FFE00000
00003FC003FC0000
00003FC003FC0000
00003FC003FC0000
00007F8007F80000
00007F8007F80000
00007F8007F80000
0000FF000FF00000
0000FF000FF00000
0000FF000FF00000
0001FE001FE00000
0001FE001FE00000
0001FE001FE00000
0003FC003FC00000
0003FC003FC00000
0003FC003FC00000
0007F8007F800000
0007F8007F800000
0007F8007F800000
000FF000FF000000
000FF000FF000000
000FF000FF000000
001FE001FE000000
001FE001FE000000
001FE001FE000000
003FC003FC000000
003FC003FC000000
003FC003FC000000
007F8007F8000000
007F8007F8000000
007F8007F8000000
00FF000FF0000000
00FF000FF0000000
000FFFFFFF000000
001FFFFFFE000000
001FFFFFFE000000
001FFFFFFE000000
003FFFFFFC000000
003FFFFFFC000000
003FFFFFFC000000
007FFFFFF8000000
0000000000000000
0000000000000000
0000000000000000
0000000000000000
0000000000000000
0000000000000000
0000000000000000
0000000000000000
0000000000000000
0000000000000000
0000000000000000
0000000000000000
0000000000000000
0000000000000000
0000000000000000
0000000000000000
ENDCHAR
STARTCHAR U+00F8
ENCODING 248
SWIDTH 1000 0
DWIDTH 36 0
BBX 62 80 -13 -16
BITMAP
0000000000000000
0000000000000000
0000000000000000
0000000000000000
0000000000000000
0000000000000000
0000000000000000
0000000000000000
0000000000000000
0000000000000000
0000000000000000
0000000000000000
0000000000000000
0000000000000000
0000000000000000
0000000000000000
000000000007F800
000000000007F800
00000000000FF000
00000000000FF000
00000000000FF000
00000000001FE000
00000000001FE000
00000000001FE000
000003FFFFFC0000
000003FFFFFC0000
000003FFFFFC0000
000007FFFFF80000
000007FFFFF80000
000007FFFFF80000
00000FFFFFF00000
00000FFFFFF00000
0000FF00FFFF0000
0001FE01FFFE0000
0001FE01FFFE0000
0001FE01FFFE0000
0003FC03FFFC0000
0003FC03FFFC0000
0003FC03FFFC0000
0007F807FFF80000
0007F87F87F80000
0007F87F87F80000
000FF0FF0FF00000
000FF0FF0FF00000
000FF0FF0FF00000
001FE1FE1FE00000
001FE1FE1FE00000
001FE1FE1FE00000
003FFFC03FC00000
003FFFC03FC00000
003FFFC03FC00000
007FFF807F800000
007FFF807F800000
007FFF807F800000
00FFFF00FF000000
00FFFF00FF000000
000FFFFFF0000000
001FFFFFE0000000
001FFFFFE0000000
001FFFFFE0000000
003FFFFFC0000000
003FFFFFC0000000
003FFFFFC0000000
007FFFFF80000000
07F8000000000000
07F8000000000000
0FF0000000000000
0FF0000000000000
0FF0000000000000
1FE0000000000000
1FE0000000000000
1FE0000000000000
0000000000000000
0000000000000000
0000000000000000
0000000000000000
0000000000000000
0000000000000000
0000000000000000
0000000000000000
ENDCHAR
STARTCHAR U+0153
ENCODING 339
SWIDTH 1000 0
DWIDTH 36 0
BBX 62 80 -13 -16
BITMAP
0000000000000000
0000000000000000
0000000000000000
0000000000000000
0000000000000000
0000000000000000
0000000000000000
0000000000000000
0000000000000000
0000000000000000
0000000000000000
0000000000000000
0000000000000000
0000000000000000
0000000000000000
0000000000000000
0000000000000000
0000000000000000
0000000000000000
0000000000000000
0000000000000000
0000000000000000
0000000000000000
0000000000000000
000003FFFFFC0000
000003FFFFFC0000
000003FFFFFC0000
000007FFFFF80000
000007FFFFF80000
000007FFFFF80000
00000FFFFFF00000
00000FFFFFF00000
0000FF0FF0FF0000
0001FE1FE1FE0000
0001FE1FE1FE0000
0001FE1FE1FE0000
0003FC3FC3FC0000
0003FC3FC3FC0000
0003FC3FC3FC0000
0007F87F87F80000
0007F87FFFF80000
0007F87FFFF80000
000FF0FFFFF00000
000FF0FFFFF00000
000FF0FFFFF00000
001FE1FFFFE00000
001FE1FFFFE00000
001FE1FFFFE00000
003FC3FC00000000
003FC3FC00000000
003FC3FC00000000
007F87F800000000
007F87F800000000
007F87F800000000
00FF0FF000000000
00FF0FF000000000
000FFFFFFF000000
001FFFFFFE000000
001FFFFFFE000000
001FFFFFFE000000
003FFFFFFC000000
003FFFFFFC000000
003FFFFFFC000000
007FFFFFF8000000
0000000000000000
0000000000000000
0000000000000000
0000000000000000
0000000000000000
0000000000000000
0000000000000000
0000000000000000
0000000000000000
0000000000000000
0000000000000000
0000000000000000
0000000000000000
0000000000000000
0000000000000000
0000000000000000
ENDCHAR
STARTCHAR U+00F6
ENCODING 246
SWIDTH 1000 0
DWIDTH 36 0
BBX 62 80 -13 -16
BITMAP
0000000000000000
0000000000000000
0000000000000000
0000000000000000
0000000000000000
0000000000000000
0000000000000000
0000000000000000
0000000FF00FF000
0000001FE01FE000
0000001FE01FE000
0000001FE01FE000
0000003FC03FC000
0000003FC03FC000
0000003FC03FC000
0000007F807F8000
0000000000000000
0000000000000000
0000000000000000
0000000000000000
0000000000000000
0000000000000000
0000000000000000
0000000000000000
000003FFFFFC0000
000003FFFFFC0000
000003FFFFFC0000
000007FFFFF80000
000007FFFFF80000
000007FFFFF80000
00000FFFFFF00000
00000FFFFFF00000
0000FF0000FF0000
0001FE0001FE0000
0001FE0001FE0000
0001FE0001FE0000
0003FC0003FC0000
0003FC0003FC0000
0003FC0003FC0000
0007F80007F80000
0007F80007F80000
0007F80007F80000
000FF0000FF00000
000FF0000FF00000
000FF0000FF00000
001FE0001FE00000
001FE0001FE00000
001FE0001FE00000
003FC0003FC00000
003FC0003FC00000
003FC0003FC00000
007F80007F800000
007F80007F800000
007F80007F800000
00FF0000FF000000
00FF0000FF000000
000FFFFFF0000000
001FFFFFE0000000
001FFFFFE0000000
001FFFFFE0000000
003FFFFFC0000000
003FFFFFC0000000
003FFFFFC0000000
007FFFFF80000000
0000000000000000
0000000000000000
0000000000000000
0000000000000000
0000000000000000
0000000000000000
0000000000000000
0000000000000000
0000000000000000
0000000000000000
0000000000000000
0000000000000000
0000000000000000
0000000000000000
0000000000000000
0000000000000000
ENDCHAR
STARTCHAR U+00F5
ENCODING 245
SWIDTH 1000 0
DWIDTH 36 0
BBX 62 80 -13 -16
BITMAP
00000003FFC3FC00
00000003FFC3FC00
00000003FFC3FC00
00000007FF87F800
00000007FF87F800
00000007FF87F800
0000000FFF0FF000
0000000FFF0FF000
000000FF0FFF0000
000001FE1FFE0000
000001FE1FFE0000
000001FE1FFE0000
000003FC3FFC0000
000003FC3FFC0000
000003FC3FFC0000
000007F87FF80000
0000000000000000
0000000000000000
0000000000000000
0000000000000000
0000000000000000
0000000000000000
0000000000000000
0000000000000000
000003FFFFFC0000
000003FFFFFC0000
000003FFFFFC0000
000007FFFFF80000
000007FFFFF80000
000007FFFFF80000
00000FFFFFF00000
00000FFFFFF00000
0000FF0000FF0000
0001FE0001FE0000
0001FE0001FE0000
0001FE0001FE0000
0003FC0003FC0000
0003FC0003FC0000
0003FC0003FC0000
0007F80007F80000
0007F80007F80000
0007F80007F80000
000FF0000FF00000
000FF0000FF00000
000FF0000FF00000
001FE0001FE00000
001FE0001FE00000
001FE0001FE00000
003FC0003FC00000
003FC0003FC00000
003FC0003FC00000
007F80007F800000
007F80007F800000
007F80007F800000
00FF0000FF000000
00FF0000FF000000
000FFFFFF0000000
001FFFFFE0000000
001FFFFFE0000000
001FFFFFE0000000
003FFFFFC0000000
003FFFFFC0000000
003FFFFFC0000000
007FFFFF80000000
0000000000000000
0000000000000000
0000000000000000
0000000000000000
0000000000000000
0000000000000000
0000000000000000
0000000000000000
0000000000000000
0000000000000000
0000000000000000
0000000000000000
0000000000000000
0000000000000000
0000000000000000
0000000000000000
ENDCHAR
STARTCHAR U+00F4
ENCODING 244
SWIDTH 1000 0
DWIDTH 36 0
BBX 62 80 -13 -16
BITMAP
000000003FFFC000
000000003FFFC000
000000003FFFC000
000000007FFF8000
000000007FFF8000
000000007FFF8000
00000000FFFF0000
00000000FFFF0000
0000000FF00FF000
0000001FE01FE000
0000001FE01FE000
0000001FE01FE000
0000003FC03FC000
0000003FC03FC000
0000003FC03FC000
0000007F807F8000
0000000000000000
0000000000000000
0000000000000000
0000000000000000
0000000000000000
0000000000000000
0000000000000000
0000000000000000
000003FFFFFC0000
000003FFFFFC0000
000003FFFFFC0000
000007FFFFF80000
000007FFFFF80000
000007FFFFF80000
00000FFFFFF00000
00000FFFFFF00000
0000FF0000FF0000
0001FE0001FE0000
0001FE0001FE0000
0001FE0001FE0000
0003FC0003FC0000
0003FC0003FC0000
0003FC0003FC0000
0007F80007F80000
0007F80007F80000
0007F80007F80000
000FF0000FF00000
000FF0000FF00000
000FF0000FF00000
001FE0001FE00000
001FE0001FE00000
001FE0001FE00000
003FC0003FC00000
003FC0003FC00000
003FC0003FC00000
007F80007F800000
007F80007F800000
007F80007F800000
00FF0000FF000000
00FF0000FF000000
000FFFFFF0000000
001FFFFFE0000000
001FFFFFE0000000
001FFFFFE0000000
003FFFFFC0000000
003FFFFFC0000000
003FFFFFC0000000
007FFFFF80000000
0000000000000000
0000000000000000
0000000000000000
0000000000000000
0000000000000000
0000000000000000
0000000000000000
0000000000000000
0000000000000000
0000000000000000
0000000000000000
0000000000000000
0000000000000000
0000000000000000
0000000000000000
0000000000000000
ENDCHAR
STARTCHAR U+00F3
ENCODING 243
SWIDTH 1000 0
DWIDTH 36 0
BBX 62 80 -13 -16
BITMAP
0000000000000000
0000000000000000
0000000000000000
0000000000000000
0000000000000000
0000000000000000
0000000000000000
0000000000000000
000000000FFF0000
000000001FFE0000
000000001FFE0000
000000001FFE0000
000000003FFC0000
000000003FFC0000
000000003FFC0000
000000007FF80000
0000007FF8000000
0000007FF8000000
000000FFF0000000
000000FFF0000000
000000FFF0000000
000001FFE0000000
000001FFE0000000
000001FFE0000000
000003FFFFFC0000
000003FFFFFC0000
000003FFFFFC0000
000007FFFFF80000
000007FFFFF80000
000007FFFFF80000
00000FFFFFF00000
00000FFFFFF00000
0000FF0000FF0000
0001FE0001FE0000
0001FE0001FE0000
0001FE0001FE0000
0003FC0003FC0000
0003FC0003FC0000
0003FC0003FC0000
0007F80007F80000
0007F80007F80000
0007F80007F80000
000FF0000FF00000
000FF0000FF00000
000FF0000FF00000
001FE0001FE00000
001FE0001FE00000
001FE0001FE00000
003FC0003FC00000
003FC0003FC00000
003FC0003FC00000
007F80007F800000
007F80007F800000
007F80007F800000
00FF0000FF000000
00FF0000FF000000
000FFFFFF0000000
001FFFFFE0000000
001FFFFFE0000000
001FFFFFE0000000
003FFFFFC0000000
003FFFFFC0000000
003FFFFFC0000000
007FFFFF80000000
0000000000000000
0000000000000000
0000000000000000
0000000000000000
0000000000000000
0000000000000000
0000000000000000
0000000000000000
0000000000000000
0000000000000000
0000000000000000
0000000000000000
0000000000000000
0000000000000000
0000000000000000
0000000000000000
ENDCHAR
STARTCHAR U+00F2
ENCODING 242
SWIDTH 1000 0
DWIDTH 36 0
BBX 62 80 -13 -16
BITMAP
0000000000000000
0000000000000000
0000000000000000
0000000000000000
0000000000000000
0000000000000000
0000000000000000
0000000000000000
00000000FFF00000
00000001FFE00000
00000001FFE00000
00000001FFE00000
00000003FFC00000
00000003FFC00000
00000003FFC00000
00000007FF800000
0000000007FF8000
0000000007FF8000
000000000FFF0000
000000000FFF0000
000000000FFF0000
000000001FFE0000
000000001FFE0000
000000001FFE0000
000003FFFFFC0000
000003FFFFFC0000
000003FFFFFC0000
000007FFFFF80000
000007FFFFF80000
000007FFFFF80000
00000FFFFFF00000
00000FFFFFF00000
0000FF0000FF0000
0001FE0001FE0000
0001FE0001FE0000
0001FE0001FE0000
0003FC0003FC0000
0003FC0003FC0000
0003FC0003FC0000
0007F80007F80000
0007F80007F80000
0007F80007F80000
000FF0000FF00000
000FF0000FF00000
000FF0000FF00000
001FE0001FE00000
001FE0001FE00000
001FE0001FE00000
003FC0003FC00000
003FC0003FC00000
003FC0003FC00000
007F80007F800000
007F80007F800000
007F80007F800000
00FF0000FF000000
00FF0000FF000000
000FFFFFF0000000
001FFFFFE0000000
001FFFFFE0000000
001FFFFFE0000000
003FFFFFC0000000
003FFFFFC0000000
003FFFFFC0000000
007FFFFF80000000
0000000000000000
0000000000000000
0000000000000000
0000000000000000
0000000000000000
0000000000000000
0000000000000000
0000000000000000
0000000000000000
0000000000000000
0000000000000000
0000000000000000
0000000000000000
0000000000000000
0000000000000000
0000000000000000
ENDCHAR
STARTCHAR U+00F1
ENCODING 241
SWIDTH 1000 0
DWIDTH 36 0
BBX 62 80 -13 -16
BITMAP
00000003FFC3FC00
00000003FFC3FC00
00000003FFC3FC00
00000007FF87F800
00000007FF87F800
00000007FF87F800
0000000FFF0FF000
0000000FFF0FF000
000000FF0FFF0000
000001FE1FFE0000
000001FE1FFE0000
000001FE1FFE0000
000003FC3FFC0000
000003FC3FFC0000
000003FC3FFC0000
000007F87FF80000
0000000000000000
0000000000000000
0000000000000000
0000000000000000
0000000000000000
0000000000000000
0000000000000000
0000000000000000
00003FFFFFFC0000
00003FFFFFFC0000
00003FFFFFFC0000
00007FFFFFF80000
00007FFFFFF80000
00007FFFFFF80000
0000FFFFFFF00000
0000FFFFFFF00000
0000FFF000FF0000
0001FFE001FE0000
0001FFE001FE0000
0001FFE001FE0000
0003FFC003FC0000
0003FFC003FC0000
0003FFC003FC0000
0007FF8007F80000
0007F80007F80000
0007F80007F80000
000FF0000FF00000
000FF0000FF00000
000FF0000FF00000
001FE0001FE00000
001FE0001FE00000
001FE0001FE00000
003FC0003FC00000
003FC0003FC00000
003FC0003FC00000
007F80007F800000
007F80007F800000
007F80007F800000
00FF0000FF000000
00FF0000FF000000
00FF0000FF000000
01FE0001FE000000
01FE0001FE000000
01FE0001FE000000
03FC0003FC000000
03FC0003FC000000
03FC0003FC000000
07F80007F8000000
0000000000000000
0000000000000000
0000000000000000
0000000000000000
0000000000000000
0000000000000000
0000000000000000
0000000000000000
0000000000000000
0000000000000000
0000000000000000
0000000000000000
0000000000000000
0000000000000000
0000000000000000
0000000000000000
ENDCHAR
STARTCHAR U+00F0
ENCODING 240
SWIDTH 1000 0
DWIDTH 36 0
BBX 62 80 -13 -16
BITMAP
0000000003FC3FC0
0000000003FC3FC0
0000000003FC3FC0
0000000007F87F80
0000000007F87F80
0000000007F87F80
000000000FF0FF00
000000000FF0FF00
0000000000FFF000
0000000001FFE000
0000000001FFE000
0000000001FFE000
0000000003FFC000
0000000003FFC000
0000000003FFC000
0000000007FF8000
000000007F87F800
000000007F87F800
00000000FF0FF000
00000000FF0FF000
00000000FF0FF000
00000001FE1FE000
00000001FE1FE000
00000001FE1FE000
000003FFFFFFC000
000003FFFFFFC000
000003FFFFFFC000
000007FFFFFF8000
000007FFFFFF8000
000007FFFFFF8000
00000FFFFFFF0000
00000FFFFFFF0000
0000FF000FFF0000
0001FE001FFE0000
0001FE001FFE0000
0001FE001FFE0000
0003FC003FFC0000
0003FC003FFC0000
0003FC003FFC0000
0007F8007FF80000
0007F80007F80000
0007F80007F80000
000FF0000FF00000
000FF0000FF00000
000FF0000FF00000
001FE0001FE00000
001FE0001FE00000
001FE0001FE00000
003FC003FC000000
003FC003FC000000
003FC003FC000000
007F8007F8000000
007F8007F8000000
007F8007F8000000
00FF000FF0000000
00FF000FF0000000
000FFFFF00000000
001FFFFE00000000
001FFFFE00000000
001FFFFE00000000
003FFFFC00000000
003FFFFC00000000
003FFFFC00000000
007FFFF800000000
0000000000000000
0000000000000000
0000000000000000
0000000000000000
0000000000000000
0000000000000000
0000000000000000
0000000000000000
0000000000000000
0000000000000000
0000000000000000
0000000000000000
0000000000000000
0000000000000000
0000000000000000
0000000000000000
ENDCHAR
STARTCHAR U+00EF
ENCODING 239
SWIDTH 1000 0
DWIDTH 36 0
BBX 62 80 -13 -16
BITMAP
0000000000000000
0000000000000000
0000000000000000
0000000000000000
0000000000000000
0000000000000000
0000000000000000
0000000000000000
0000000FF00FF000
0000001FE01FE000
0000001FE01FE000
0000001FE01FE000
0000003FC03FC000
0000003FC03FC000
0000003FC03FC000
0000007F807F8000
0000000000000000
0000000000000000
0000000000000000
0000000000000000
0000000000000000
0000000000000000
0000000000000000
0000000000000000
0000003FFC000000
0000003FFC000000
0000003FFC000000
0000007FF8000000
0000007FF8000000
0000007FF8000000
000000FFF0000000
000000FFF0000000
0000000FF0000000
0000001FE0000000
0000001FE0000000
0000001FE0000000
0000003FC0000000
0000003FC0000000
0000003FC0000000
0000007F80000000
0000007F80000000
0000007F80000000
000000FF00000000
000000FF00000000
000000FF00000000
000001FE00000000
000001FE00000000
000001FE00000000
000003FC00000000
000003FC00000000
000003FC00000000
000007F800000000
000007F800000000
000007F800000000
00000FF000000000
00000FF000000000
000FFFFFF0000000
001FFFFFE0000000
001FFFFFE0000000
001FFFFFE0000000
003FFFFFC0000000
003FFFFFC0000000
003FFFFFC0000000
007FFFFF80000000
0000000000000000
0000000000000000
0000000000000000
0000000000000000
0000000000000000
0000000000000000
0000000000000000
0000000000000000
0000000000000000
0000000000000000
0000000000000000
0000000000000000
0000000000000000
0000000000000000
0000000000000000
0000000000000000
ENDCHAR
STARTCHAR U+00EE
ENCODING 238
SWIDTH 1000 0
DWIDTH 36 0
BBX 62 80 -13 -16
BITMAP
000000003FFFC000
000000003FFFC000
000000003FFFC000
000000007FFF8000
000000007FFF8000
000000007FFF8000
00000000FFFF0000
00000000FFFF0000
0000000FF00FF000
0000001FE01FE000
0000001FE01FE000
0000001FE01FE000
0000003FC03FC000
0000003FC03FC000
0000003FC03FC000
0000007F807F8000
0000000000000000
0000000000000000
0000000000000000
0000000000000000
0000000000000000
0000000000000000
0000000000000000
0000000000000000
0000003FFC000000
0000003FFC000000
0000003FFC000000
0000007FF8000000
0000007FF8000000
0000007FF8000000
000000FFF0000000
000000FFF0000000
0000000FF0000000
0000001FE0000000
0000001FE0000000
0000001FE0000000
0000003FC0000000
0000003FC0000000
0000003FC0000000
0000007F80000000
0000007F80000000
0000007F80000000
000000FF00000000
000000FF00000000
000000FF00000000
000001FE00000000
000001FE00000000
000001FE00000000
000003FC00000000
000003FC00000000
000003FC00000000
000007F800000000
000007F800000000
000007F800000000
00000FF000000000
00000FF000000000
000FFFFFF0000000
001FFFFFE0000000
001FFFFFE0000000
001FFFFFE0000000
003FFFFFC0000000
003FFFFFC0000000
003FFFFFC0000000
007FFFFF80000000
0000000000000000
0000000000000000
0000000000000000
0000000000000000
0000000000000000
0000000000000000
0000000000000000
0000000000000000
0000000000000000
0000000000000000
0000000000000000
0000000000000000
0000000000000000
0000000000000000
0000000000000000
0000000000000000
ENDCHAR
STARTCHAR U+00ED
ENCODING 237
SWIDTH 1000 0
DWIDTH 36 0
BBX 62 80 -13 -16
BITMAP
0000000000000000
0000000000000000
0000000000000000
0000000000000000
0000000000000000
0000000000000000
0000000000000000
0000000000000000
000000000FFF0000
000000001FFE0000
000000001FFE0000
000000001FFE0000
000000003FFC0000
000000003FFC0000
000000003FFC0000
000000007FF80000
0000007FF8000000
0000007FF8000000
000000FFF0000000
000000FFF0000000
000000FFF0000000
000001FFE0000000
000001FFE0000000
000001FFE0000000
0000003FFC000000
0000003FFC000000
0000003FFC000000
0000007FF8000000
0000007FF8000000
0000007FF8000000
000000FFF0000000
000000FFF0000000
0000000FF0000000
0000001FE0000000
0000001FE0000000
0000001FE0000000
0000003FC0000000
0000003FC0000000
0000003FC0000000
0000007F80000000
0000007F80000000
0000007F80000000
000000FF00000000
000000FF00000000
000000FF00000000
000001FE00000000
000001FE00000000
000001FE00000000
000003FC00000000
000003FC00000000
000003FC00000000
000007F800000000
000007F800000000
000007F800000000
00000FF000000000
00000FF000000000
000FFFFFF0000000
001FFFFFE0000000
001FFFFFE0000000
001FFFFFE0000000
003FFFFFC0000000
003FFFFFC0000000
003FFFFFC0000000
007FFFFF80000000
0000000000000000
0000000000000000
0000000000000000
0000000000000000
0000000000000000
0000000000000000
0000000000000000
0000000000000000
0000000000000000
0000000000000000
0000000000000000
0000000000000000
0000000000000000
0000000000000000
0000000000000000
0000000000000000
ENDCHAR
STARTCHAR U+00EC
ENCODING 236
SWIDTH 1000 0
DWIDTH 36 0
BBX 62 80 -13 -16
BITMAP
0000000000000000
0000000000000000
0000000000000000
0000000000000000
0000000000000000
0000000000000000
0000000000000000
0000000000000000
0000000FFF000000
0000001FFE000000
0000001FFE000000
0000001FFE000000
0000003FFC000000
0000003FFC000000
0000003FFC000000
0000007FF8000000
000000007FF80000
000000007FF80000
00000000FFF00000
00000000FFF00000
00000000FFF00000
00000001FFE00000
00000001FFE00000
00000001FFE00000
0000003FFC000000
0000003FFC000000
0000003FFC000000
0000007FF8000000
0000007FF8000000
0000007FF8000000
000000FFF0000000
000000FFF0000000
0000000FF0000000
0000001FE0000000
0000001FE0000000
0000001FE0000000
0000003FC0000000
0000003FC0000000
0000003FC0000000
0000007F80000000
0000007F80000000
0000007F80000000
000000FF00000000
000000FF00000000
000000FF00000000
000001FE00000000
000001FE00000000
000001FE00000000
000003FC00000000
000003FC00000000
000003FC00000000
000007F800000000
000007F800000000
000007F800000000
00000FF000000000
00000FF000000000
000FFFFFF0000000
001FFFFFE0000000
001FFFFFE0000000
001FFFFFE0000000
003FFFFFC0000000
003FFFFFC0000000
003FFFFFC0000000
007FFFFF80000000
0000000000000000
0000000000000000
0000000000000000
0000000000000000
0000000000000000
0000000000000000
0000000000000000
0000000000000000
0000000000000000
0000000000000000
0000000000000000
0000000000000000
0000000000000000
0000000000000000
0000000000000000
0000000000000000
ENDCHAR
STARTCHAR U+00EB
ENCODING 235
SWIDTH 1000 0
DWIDTH 36 0
BBX 62 80 -13 -16
BITMAP
0000000000000000
0000000000000000
0000000000000000
0000000000000000
0000000000000000
0000000000000000
0000000000000000
0000000000000000
0000000FF00FF000
0000001FE01FE000
0000001FE01FE000
0000001FE01FE000
0000003FC03FC000
0000003FC03FC000
0000003FC03FC000
0000007F807F8000
0000000000000000
0000000000000000
0000000000000000
0000000000000000
0000000000000000
0000000000000000
0000000000000000
0000000000000000
000003FFFFFC0000
000003FFFFFC0000
000003FFFFFC0000
000007FFFFF80000
000007FFFFF80000
000007FFFFF80000
00000FFFFFF00000
00000FFFFFF00000
0000FF0000FF0000
0001FE0001FE0000
0001FE0001FE0000
0001FE0001FE0000
0003FC0003FC0000
0003FC0003FC0000
0003FC0003FC0000
0007F80007F80000
0007FFFFFFF80000
0007FFFFFFF80000
000FFFFFFFF00000
000FFFFFFFF00000
000FFFFFFFF00000
001FFFFFFFE00000
001FFFFFFFE00000
001FFFFFFFE00000
003FC00000000000
003FC00000000000
003FC00000000000
007F800000000000
007F800000000000
007F800000000000
00FF000000000000
00FF000000000000
000FFFFFF0000000
001FFFFFE0000000
001FFFFFE0000000
001FFFFFE0000000
003FFFFFC0000000
003FFFFFC0000000
003FFFFFC0000000
007FFFFF80000000
0000000000000000
0000000000000000
0000000000000000
0000000000000000
0000000000000000
0000000000000000
0000000000000000
0000000000000000
0000000000000000
0000000000000000
0000000000000000
0000000000000000
0000000000000000
0000000000000000
0000000000000000
0000000000000000
ENDCHAR
STARTCHAR U+00EA
ENCODING 234
SWIDTH 1000 0
DWIDTH 36 0
BBX 62 80 -13 -16
BITMAP
000000003FFFC000
000000003FFFC000
000000003FFFC000
000000007FFF8000
000000007FFF8000
000000007FFF8000
00000000FFFF0000
00000000FFFF0000
0000000FF00FF000
0000001FE01FE000
0000001FE01FE000
0000001FE01FE000
0000003FC03FC000
0000003FC03FC000
0000003FC03FC000
0000007F807F8000
0000000000000000
0000000000000000
0000000000000000
0000000000000000
0000000000000000
0000000000000000
0000000000000000
0000000000000000
000003FFFFFC0000
000003FFFFFC0000
000003FFFFFC0000
000007FFFFF80000
000007FFFFF80000
000007FFFFF80000
00000FFFFFF00000
00000FFFFFF00000
0000FF0000FF0000
0001FE0001FE0000
0001FE0001FE0000
0001FE0001FE0000
0003FC0003FC0000
0003FC0003FC0000
0003FC0003FC0000
0007F80007F80000
0007FFFFFFF80000
0007FFFFFFF80000
000FFFFFFFF00000
000FFFFFFFF00000
000FFFFFFFF00000
001FFFFFFFE00000
001FFFFFFFE00000
001FFFFFFFE00000
003FC00000000000
003FC00000000000
003FC00000000000
007F800000000000
007F800000000000
007F800000000000
00FF000000000000
00FF000000000000
000FFFFFF0000000
001FFFFFE0000000
001FFFFFE0000000
001FFFFFE0000000
003FFFFFC0000000
003FFFFFC0000000
003FFFFFC0000000
007FFFFF80000000
0000000000000000
0000000000000000
0000000000000000
0000000000000000
0000000000000000
0000000000000000
0000000000000000
0000000000000000
0000000000000000
0000000000000000
0000000000000000
0000000000000000
0000000000000000
0000000000000000
0000000000000000
0000000000000000
ENDCHAR
STARTCHAR U+00E9
ENCODING 233
SWIDTH 1000 0
DWIDTH 36 0
BBX 62 80 -13 -16
BITMAP
0000000000000000
0000000000000000
0000000000000000
0000000000000000
0000000000000000
0000000000000000
0000000000000000
0000000000000000
000000000FFF0000
000000001FFE0000
000000001FFE0000
000000001FFE0000
000000003FFC0000
000000003FFC0000
000000003FFC0000
000000007FF80000
0000007FF8000000
0000007FF8000000
000000FFF0000000
000000FFF0000000
000000FFF0000000
000001FFE0000000
000001FFE0000000
000001FFE0000000
000003FFFFFC0000
000003FFFFFC0000
000003FFFFFC0000
000007FFFFF80000
000007FFFFF80000
000007FFFFF80000
00000FFFFFF00000
00000FFFFFF00000
0000FF0000FF0000
0001FE0001FE0000
0001FE0001FE0000
0001FE0001FE0000
0003FC0003FC0000
0003FC0003FC0000
0003FC0003FC0000
0007F80007F80000
0007FFFFFFF80000
0007FFFFFFF80000
000FFFFFFFF00000
000FFFFFFFF00000
000FFFFFFFF00000
001FFFFFFFE00000
001FFFFFFFE00000
001FFFFFFFE00000
003FC00000000000
003FC00000000000
003FC00000000000
007F800000000000
007F800000000000
007F800000000000
00FF000000000000
00FF000000000000
000FFFFFF0000000
001FFFFFE0000000
001FFFFFE0000000
001FFFFFE0000000
003FFFFFC0000000
003FFFFFC0000000
003FFFFFC0000000
007FFFFF80000000
0000000000000000
0000000000000000
0000000000000000
0000000000000000
0000000000000000
0000000000000000
0000000000000000
0000000000000000
0000000000000000
0000000000000000
0000000000000000
0000000000000000
0000000000000000
0000000000000000
0000000000000000
0000000000000000
ENDCHAR
STARTCHAR U+00E8
ENCODING 232
SWIDTH 1000 0
DWIDTH 36 0
BBX 62 80 -13 -16
BITMAP
0000000000000000
0000000000000000
0000000000000000
0000000000000000
0000000000000000
0000000000000000
0000000000000000
0000000000000000
00000000FFF00000
00000001FFE00000
00000001FFE00000
00000001FFE00000
00000003FFC00000
00000003FFC00000
00000003FFC00000
00000007FF800000
0000000007FF8000
0000000007FF8000
000000000FFF0000
000000000FFF0000
000000000FFF0000
000000001FFE0000
000000001FFE0000
000000001FFE0000
000003FFFFFC0000
000003FFFFFC0000
000003FFFFFC0000
000007FFFFF80000
000007FFFFF80000
000007FFFFF80000
00000FFFFFF00000
00000FFFFFF00000
0000FF0000FF0000
0001FE0001FE0000
0001FE0001FE0000
0001FE0001FE0000
0003FC0003FC0000
0003FC0003FC0000
0003FC0003FC0000
0007F80007F80000
0007FFFFFFF80000
0007FFFFFFF80000
000FFFFFFFF00000
000FFFFFFFF00000
000FFFFFFFF00000
001FFFFFFFE00000
001FFFFFFFE00000
001FFFFFFFE00000
003FC00000000000
003FC00000000000
003FC00000000000
007F800000000000
007F800000000000
007F800000000000
00FF000000000000
00FF000000000000
000FFFFFF0000000
001FFFFFE0000000
001FFFFFE0000000
001FFFFFE0000000
003FFFFFC0000000
003FFFFFC0000000
003FFFFFC0000000
007FFFFF80000000
0000000000000000
0000000000000000
0000000000000000
0000000000000000
0000000000000000
0000000000000000
0000000000000000
0000000000000000
0000000000000000
0000000000000000
0000000000000000
0000000000000000
0000000000000000
0000000000000000
0000000000000000
0000000000000000
ENDCHAR
STARTCHAR U+00E7
ENCODING 231
SWIDTH 1000 0
DWIDTH 36 0
BBX 62 80 -13 -16
BITMAP
0000000000000000
0000000000000000
0000000000000000
0000000000000000
0000000000000000
0000000000000000
0000000000000000
0000000000000000
0000000000000000
0000000000000000
0000000000000000
0000000000000000
0000000000000000
0000000000000000
0000000000000000
0000000000000000
0000000000000000
0000000000000000
0000000000000000
0000000000000000
0000000000000000
0000000000000000
0000000000000000
0000000000000000
000003FFFFFC0000
000003FFFFFC0000
000003FFFFFC0000
000007FFFFF80000
000007FFFFF80000
000007FFFFF80000
00000FFFFFF00000
00000FFFFFF00000
0000FF0000FF0000
0001FE0001FE0000
0001FE0001FE0000
0001FE0001FE0000
0003FC0003FC0000
0003FC0003FC0000
0003FC0003FC0000
0007F80007F80000
0007F80000000000
0007F80000000000
000FF00000000000
000FF00000000000
000FF00000000000
001FE00000000000
001FE00000000000
001FE00000000000
003FC0003FC00000
003FC0003FC00000
003FC0003FC00000
007F80007F800000
007F80007F800000
007F80007F800000
00FF0000FF000000
00FF0000FF000000
000FFFFFF0000000
001FFFFFE0000000
001FFFFFE0000000
001FFFFFE0000000
003FFFFFC0000000
003FFFFFC0000000
003FFFFFC0000000
007FFFFF80000000
000007F800000000
000007F800000000
00000FF000000000
00000FF000000000
00000FF000000000
00001FE000000000
00001FE000000000
00001FE000000000
003FFFC000000000
003FFFC000000000
003FFFC000000000
007FFF8000000000
007FFF8000000000
007FFF8000000000
00FFFF0000000000
00FFFF0000000000
ENDCHAR
STARTCHAR U+00E6
ENCODING 230
SWIDTH 1000 0
DWIDTH 36 0
BBX 62 80 -13 -16
BITMAP
0000000000000000
0000000000000000
0000000000000000
0000000000000000
0000000000000000
0000000000000000
0000000000000000
0000000000000000
0000000000000000
0000000000000000
0000000000000000
0000000000000000
0000000000000000
0000000000000000
0000000000000000
0000000000000000
0000000000000000
0000000000000000
0000000000000000
0000000000000000
0000000000000000
0000000000000000
0000000000000000
0000000000000000
000003FFFFFC0000
000003FFFFFC0000
000003FFFFFC0000
000007FFFFF80000
000007FFFFF80000
000007FFFFF80000
00000FFFFFF00000
00000FFFFFF00000
0000000FF0FF0000
0000001FE1FE0000
0000001FE1FE0000
0000001FE1FE0000
0000003FC3FC0000
0000003FC3FC0000
0000003FC3FC0000
0000007F87F80000
00007FFFFFF80000
00007FFFFFF80000
0000FFFFFFF00000
0000FFFFFFF00000
0000FFFFFFF00000
0001FFFFFFE00000
0001FFFFFFE00000
0001FFFFFFE00000
003FC3FC00000000
003FC3FC00000000
003FC3FC00000000
007F87F800000000
007F87F800000000
007F87F800000000
00FF0FF000000000
00FF0FF000000000
000FFFFFFF000000
001FFFFFFE000000
001FFFFFFE000000
001FFFFFFE000000
003FFFFFFC000000
003FFFFFFC000000
003FFFFFFC000000
007FFFFFF8000000
0000000000000000
0000000000000000
0000000000000000
0000000000000000
0000000000000000
0000000000000000
0000000000000000
0000000000000000
0000000000000000
0000000000000000
0000000000000000
0000000000000000
0000000000000000
0000000000000000
0000000000000000
0000000000000000
ENDCHAR
STARTCHAR U+00E5
ENCODING 229
SWIDTH 1000 0
DWIDTH 36 0
BBX 62 80 -13 -16
BITMAP
000000003FFFC000
000000003FFFC000
000000003FFFC000
000000007FFF8000
000000007FFF8000
000000007FFF8000
00000000FFFF0000
00000000FFFF0000
0000000FF00FF000
0000001FE01FE000
0000001FE01FE000
0000001FE01FE000
0000003FC03FC000
0000003FC03FC000
0000003FC03FC000
0000007F807F8000
00000007FFF80000
00000007FFF80000
0000000FFFF00000
0000000FFFF00000
0000000FFFF00000
0000001FFFE00000
0000001FFFE00000
0000001FFFE00000
000003FFFFFC0000
000003FFFFFC0000
000003FFFFFC0000
000007FFFFF80000
000007FFFFF80000
000007FFFFF80000
00000FFFFFF00000
00000FFFFFF00000
0000000000FF0000
0000000001FE0000
0000000001FE0000
0000000001FE0000
0000000003FC0000
0000000003FC0000
0000000003FC0000
0000000007F80000
00007FFFFFF80000
00007FFFFFF80000
0000FFFFFFF00000
0000FFFFFFF00000
0000FFFFFFF00000
0001FFFFFFE00000
0001FFFFFFE00000
0001FFFFFFE00000
003FC003FFC00000
003FC003FFC00000
003FC003FFC00000
007F8007FF800000
007F8007FF800000
007F8007FF800000
00FF000FFF000000
00FF000FFF000000
000FFFFFFF000000
001FFFFFFE000000
001FFFFFFE000000
001FFFFFFE000000
003FFFFFFC000000
003FFFFFFC000000
003FFFFFFC000000
007FFFFFF8000000
0000000000000000
0000000000000000
0000000000000000
0000000000000000
0000000000000000
0000000000000000
0000000000000000
0000000000000000
0000000000000000
0000000000000000
0000000000000000
0000000000000000
0000000000000000
0000000000000000
0000000000000000
0000000000000000
ENDCHAR
STARTCHAR U+00E4
ENCODING 228
SWIDTH 1000 0
DWIDTH 36 0
BBX 62 80 -13 -16
BITMAP
0000000000000000
0000000000000000
0000000000000000
0000000000000000
0000000000000000
0000000000000000
0000000000000000
0000000000000000
0000000FF00FF000
0000001FE01FE000
0000001FE01FE000
0000001FE01FE000
0000003FC03FC000
0000003FC03FC000
0000003FC03FC000
0000007F807F8000
0000000000000000
0000000000000000
0000000000000000
0000000000000000
0000000000000000
0000000000000000
0000000000000000
0000000000000000
000003FFFFFC0000
000003FFFFFC0000
000003FFFFFC0000
000007FFFFF80000
000007FFFFF80000
000007FFFFF80000
00000FFFFFF00000
00000FFFFFF00000
0000000000FF0000
0000000001FE0000
0000000001FE0000
0000000001FE0000
0000000003FC0000
0000000003FC0000
0000000003FC0000
0000000007F80000
00007FFFFFF80000
00007FFFFFF80000
0000FFFFFFF00000
0000FFFFFFF00000
0000FFFFFFF00000
0001FFFFFFE00000
0001FFFFFFE00000
0001FFFFFFE00000
003FC003FFC00000
003FC003FFC00000
003FC003FFC00000
007F8007FF800000
007F8007FF800000
007F8007FF800000
00FF000FFF000000
00FF000FFF000000
000FFFFFFF000000
001FFFFFFE000000
001FFFFFFE000000
001FFFFFFE000000
003FFFFFFC000000
003FFFFFFC000000
003FFFFFFC000000
007FFFFFF8000000
0000000000000000
0000000000000000
0000000000000000
0000000000000000
0000000000000000
0000000000000000
0000000000000000
0000000000000000
0000000000000000
0000000000000000
0000000000000000
0000000000000000
0000000000000000
0000000000000000
0000000000000000
0000000000000000
ENDCHAR
STARTCHAR U+00E3
ENCODING 227
SWIDTH 1000 0
DWIDTH 36 0
BBX 62 80 -13 -16
BITMAP
000000003FFC3FC0
000000003FFC3FC0
000000003FFC3FC0
000000007FF87F80
000000007FF87F80
000000007FF87F80
00000000FFF0FF00
00000000FFF0FF00
0000000FF0FFF000
0000001FE1FFE000
0000001FE1FFE000
0000001FE1FFE000
0000003FC3FFC000
0000003FC3FFC000
0000003FC3FFC000
0000007F87FF8000
0000000000000000
0000000000000000
0000000000000000
0000000000000000
0000000000000000
0000000000000000
0000000000000000
0000000000000000
000003FFFFFC0000
000003FFFFFC0000
000003FFFFFC0000
000007FFFFF80000
000007FFFFF80000
000007FFFFF80000
00000FFFFFF00000
00000FFFFFF00000
0000000000FF0000
0000000001FE0000
0000000001FE0000
0000000001FE0000
0000000003FC0000
0000000003FC0000
0000000003FC0000
0000000007F80000
00007FFFFFF80000
00007FFFFFF80000
0000FFFFFFF00000
0000FFFFFFF00000
0000FFFFFFF00000
0001FFFFFFE00000
0001FFFFFFE00000
0001FFFFFFE00000
003FC003FFC00000
003FC003FFC00000
003FC003FFC00000
007F8007FF800000
007F8007FF800000
007F8007FF800000
00FF000FFF000000
00FF000FFF000000
000FFFFFFF000000
001FFFFFFE000000
001FFFFFFE000000
001FFFFFFE000000
003FFFFFFC000000
003FFFFFFC000000
003FFFFFFC000000
007FFFFFF8000000
0000000000000000
0000000000000000
0000000000000000
0000000000000000
0000000000000000
0000000000000000
0000000000000000
0000000000000000
0000000000000000
0000000000000000
0000000000000000
0000000000000000
0000000000000000
0000000000000000
0000000000000000
0000000000000000
ENDCHAR
STARTCHAR U+00E2
ENCODING 226
SWIDTH 1000 0
DWIDTH 36 0
BBX 62 80 -13 -16
BITMAP
000000003FFFC000
000000003FFFC000
000000003FFFC000
000000007FFF8000
000000007FFF8000
000000007FFF8000
00000000FFFF0000
00000000FFFF0000
0000000FF00FF000
0000001FE01FE000
0000001FE01FE000
0000001FE01FE000
0000003FC03FC000
0000003FC03FC000
0000003FC03FC000
0000007F807F8000
0000000000000000
0000000000000000
0000000000000000
0000000000000000
0000000000000000
0000000000000000
0000000000000000
0000000000000000
000003FFFFFC0000
000003FFFFFC0000
000003FFFFFC0000
000007FFFFF80000
000007FFFFF80000
000007FFFFF80000
00000FFFFFF00000
00000FFFFFF00000
0000000000FF0000
0000000001FE0000
0000000001FE0000
0000000001FE0000
0000000003FC0000
0000000003FC0000
0000000003FC0000
0000000007F80000
00007FFFFFF80000
00007FFFFFF80000
0000FFFFFFF00000
0000FFFFFFF00000
0000FFFFFFF00000
0001FFFFFFE00000
0001FFFFFFE00000
0001FFFFFFE00000
003FC003FFC00000
003FC003FFC00000
003FC003FFC00000
007F8007FF800000
007F8007FF800000
007F8007FF800000
00FF000FFF000000
00FF000FFF000000
000FFFFFFF000000
001FFFFFFE000000
001FFFFFFE000000
001FFFFFFE000000
003FFFFFFC000000
003FFFFFFC000000
003FFFFFFC000000
007FFFFFF8000000
0000000000000000
0000000000000000
0000000000000000
0000000000000000
0000000000000000
0000000000000000
0000000000000000
0000000000000000
0000000000000000
0000000000000000
0000000000000000
0000000000000000
0000000000000000
0000000000000000
0000000000000000
0000000000000000
ENDCHAR
STARTCHAR U+00E1
ENCODING 225
SWIDTH 1000 0
DWIDTH 36 0
BBX 62 80 -13 -16
BITMAP
0000000000000000
0000000000000000
0000000000000000
0000000000000000
0000000000000000
0000000000000000
0000000000000000
0000000000000000
000000000FFF0000
000000001FFE0000
000000001FFE0000
000000001FFE0000
000000003FFC0000
000000003FFC0000
000000003FFC0000
000000007FF80000
0000007FF8000000
0000007FF8000000
000000FFF0000000
000000FFF0000000
000000FFF0000000
000001FFE0000000
000001FFE0000000
000001FFE0000000
000003FFFFFC0000
000003FFFFFC0000
000003FFFFFC0000
000007FFFFF80000
000007FFFFF80000
000007FFFFF80000
00000FFFFFF00000
00000FFFFFF00000
0000000000FF0000
0000000001FE0000
0000000001FE0000
0000000001FE0000
0000000003FC0000
0000000003FC0000
0000000003FC0000
0000000007F80000
00007FFFFFF80000
00007FFFFFF80000
0000FFFFFFF00000
0000FFFFFFF00000
0000FFFFFFF00000
0001FFFFFFE00000
0001FFFFFFE00000
0001FFFFFFE00000
003FC003FFC00000
003FC003FFC00000
003FC003FFC00000
007F8007FF800000
007F8007FF800000
007F8007FF800000
00FF000FFF000000
00FF000FFF000000
000FFFFFFF000000
001FFFFFFE000000
001FFFFFFE000000
001FFFFFFE000000
003FFFFFFC000000
003FFFFFFC000000
003FFFFFFC000000
007FFFFFF8000000
0000000000000000
0000000000000000
0000000000000000
0000000000000000
0000000000000000
0000000000000000
0000000000000000
0000000000000000
0000000000000000
0000000000000000
0000000000000000
0000000000000000
0000000000000000
0000000000000000
0000000000000000
0000000000000000
ENDCHAR
STARTCHAR U+00E0
ENCODING 224
SWIDTH 1000 0
DWIDTH 36 0
BBX 62 80 -13 -16
BITMAP
0000000000000000
0000000000000000
0000000000000000
0000000000000000
0000000000000000
0000000000000000
0000000000000000
0000000000000000
00000000FFF00000
00000001FFE00000
00000001FFE00000
00000001FFE00000
00000003FFC00000
00000003FFC00000
00000003FFC00000
00000007FF800000
0000000007FF8000
0000000007FF8000
000000000FFF0000
000000000FFF0000
000000000FFF0000
000000001FFE0000
000000001FFE0000
000000001FFE0000
000003FFFFFC0000
000003FFFFFC0000
000003FFFFFC0000
000007FFFFF80000
000007FFFFF80000
000007FFFFF80000
00000FFFFFF00000
00000FFFFFF00000
0000000000FF0000
0000000001FE0000
0000000001FE0000
0000000001FE0000
0000000003FC0000
0000000003FC0000
0000000003FC0000
0000000007F80000
00007FFFFFF80000
00007FFFFFF80000
0000FFFFFFF00000
0000FFFFFFF00000
0000FFFFFFF00000
0001FFFFFFE00000
0001FFFFFFE00000
0001FFFFFFE00000
003FC003FFC00000
003FC003FFC00000
003FC003FFC00000
007F8007FF800000
007F8007FF800000
007F8007FF800000
00FF000FFF000000
00FF000FFF000000
000FFFFFFF000000
001FFFFFFE000000
001FFFFFFE000000
001FFFFFFE000000
003FFFFFFC000000
003FFFFFFC000000
003FFFFFFC000000
007FFFFFF8000000
0000000000000000
0000000000000000
0000000000000000
0000000000000000
0000000000000000
0000000000000000
0000000000000000
0000000000000000
0000000000000000
0000000000000000
0000000000000000
0000000000000000
0000000000000000
0000000000000000
0000000000000000
0000000000000000
ENDCHAR
STARTCHAR U+00DF
ENCODING 223
SWIDTH 1000 0
DWIDTH 36 0
BBX 62 80 -13 -16
BITMAP
0000000000000000
0000000000000000
0000000000000000
0000000000000000
0000000000000000
0000000000000000
0000000000000000
0000000000000000
00000000FFFF0000
00000001FFFE0000
00000001FFFE0000
00000001FFFE0000
00000003FFFC0000
00000003FFFC0000
00000003FFFC0000
00000007FFF80000
0000007F807F8000
0000007F807F8000
000000FF00FF0000
000000FF00FF0000
000000FF00FF0000
000001FE01FE0000
000001FE01FE0000
000001FE01FE0000
00003FC003FC0000
00003FC003FC0000
00003FC003FC0000
00007F8007F80000
00007F8007F80000
00007F8007F80000
0000FF000FF00000
0000FF000FF00000
0000FFFFFF000000
0001FFFFFE000000
0001FFFFFE000000
0001FFFFFE000000
0003FFFFFC000000
0003FFFFFC000000
0003FFFFFC000000
0007FFFFF8000000
0007F8007F800000
0007F8007F800000
000FF000FF000000
000FF000FF000000
000FF000FF000000
001FE001FE000000
001FE001FE000000
001FE001FE000000
003FFFC03FC00000
003FFFC03FC00000
003FFFC03FC00000
007FFF807F800000
007FFF807F800000
007FFF807F800000
00FFFF00FF000000
00FFFF00FF000000
00FF0FFFF0000000
01FE1FFFE0000000
01FE1FFFE0000000
01FE1FFFE0000000
03FC3FFFC0000000
03FC3FFFC0000000
03FC3FFFC0000000
07F87FFF80000000
07F8000000000000
07F8000000000000
0FF0000000000000
0FF0000000000000
0FF0000000000000
1FE0000000000000
1FE0000000000000
1FE0000000000000
0000000000000000
0000000000000000
0000000000000000
0000000000000000
0000000000000000
0000000000000000
0000000000000000
0000000000000000
ENDCHAR
STARTCHAR U+00DE
ENCODING 222
SWIDTH 1000 0
DWIDTH 36 0
BBX 62 80 -13 -16
BITMAP
0000000000000000
0000000000000000
0000000000000000
0000000000000000
0000000000000000
0000000000000000
0000000000000000
0000000000000000
000000FFF0000000
000001FFE0000000
000001FFE0000000
000001FFE0000000
000003FFC0000000
000003FFC0000000
000003FFC0000000
000007FF80000000
0000007FFFFF8000
0000007FFFFF8000
000000FFFFFF0000
000000FFFFFF0000
000000FFFFFF0000
000001FFFFFE0000
000001FFFFFE0000
000001FFFFFE0000
000003FC003FC000
000003FC003FC000
000003FC003FC000
000007F8007F8000
000007F8007F8000
000007F8007F8000
00000FF000FF0000
00000FF000FF0000
00000FF000FF0000
00001FE001FE0000
00001FE001FE0000
00001FE001FE0000
00003FC003FC0000
00003FC003FC0000
00003FC003FC0000
00007F8007F80000
00007F8007F80000
00007F8007F80000
0000FF000FF00000
0000FF000FF00000
0000FF000FF00000
0001FE001FE00000
0001FE001FE00000
0001FE001FE00000
0003FFFFFC000000
0003FFFFFC000000
0003FFFFFC000000
0007FFFFF8000000
0007FFFFF8000000
0007FFFFF8000000
000FFFFFF0000000
000FFFFFF0000000
00FFF00000000000
01FFE00000000000
01FFE00000000000
01FFE00000000000
03FFC00000000000
03FFC00000000000
03FFC00000000000
07FF800000000000
0000000000000000
0000000000000000
0000000000000000
0000000000000000
0000000000000000
0000000000000000
0000000000000000
0000000000000000
0000000000000000
0000000000000000
0000000000000000
0000000000000000
0000000000000000
0000000000000000
0000000000000000
0000000000000000
ENDCHAR
STARTCHAR U+0178
ENCODING 376
SWIDTH 1000 0
DWIDTH 36 0
BBX 62 80 -13 -16
BITMAP
00000003FC03FC00
00000003FC03FC00
00000003FC03FC00
00000007F807F800
00000007F807F800
00000007F807F800
0000000FF00FF000
0000000FF00FF000
0000000000000000
0000000000000000
0000000000000000
0000000000000000
0000000000000000
0000000000000000
0000000000000000
0000000000000000
000007F80007F800
000007F80007F800
00000FF0000FF000
00000FF0000FF000
00000FF0000FF000
00001FE0001FE000
00001FE0001FE000
00001FE0001FE000
000003FC03FC0000
000003FC03FC0000
000003FC03FC0000
000007F807F80000
000007F807F80000
000007F807F80000
00000FF00FF00000
00000FF00FF00000
000000FFFF000000
000001FFFE000000
000001FFFE000000
000001FFFE000000
000003FFFC000000
000003FFFC000000
000003FFFC000000
000007FFF8000000
0000007F80000000
0000007F80000000
000000FF00000000
000000FF00000000
000000FF00000000
000001FE00000000
000001FE00000000
000001FE00000000
000003FC00000000
000003FC00000000
000003FC00000000
000007F800000000
000007F800000000
000007F800000000
00000FF000000000
00000FF000000000
00000FF000000000
00001FE000000000
00001FE000000000
00001FE000000000
00003FC000000000
00003FC000000000
00003FC000000000
00007F8000000000
0000000000000000
0000000000000000
0000000000000000
0000000000000000
0000000000000000
0000000000000000
0000000000000000
0000000000000000
0000000000000000
0000000000000000
0000000000000000
0000000000000000
0000000000000000
0000000000000000
0000000000000000
0000000000000000
ENDCHAR
STARTCHAR U+00DC
ENCODING 220
SWIDTH 1000 0
DWIDTH 36 0
BBX 62 80 -13 -16
BITMAP
00000003FC03FC00
00000003FC03FC00
00000003FC03FC00
00000007F807F800
00000007F807F800
00000007F807F800
0000000FF00FF000
0000000FF00FF000
0000000000000000
0000000000000000
0000000000000000
0000000000000000
0000000000000000
0000000000000000
0000000000000000
0000000000000000
000007F80007F800
000007F80007F800
00000FF0000FF000
00000FF0000FF000
00000FF0000FF000
00001FE0001FE000
00001FE0001FE000
00001FE0001FE000
00003FC0003FC000
00003FC0003FC000
00003FC0003FC000
00007F80007F8000
00007F80007F8000
00007F80007F8000
0000FF0000FF0000
0000FF0000FF0000
0000FF0000FF0000
0001FE0001FE0000
0001FE0001FE0000
0001FE0001FE0000
0003FC0003FC0000
0003FC0003FC0000
0003FC0003FC0000
0007F80007F80000
0007F80007F80000
0007F80007F80000
000FF0000FF00000
000FF0000FF00000
000FF0000FF00000
001FE0001FE00000
001FE0001FE00000
001FE0001FE00000
003FC0003FC00000
003FC0003FC00000
003FC0003FC00000
007F80007F800000
007F80007F800000
007F80007F800000
00FF0000FF000000
00FF0000FF000000
000FFFFFF0000000
001FFFFFE0000000
001FFFFFE0000000
001FFFFFE0000000
003FFFFFC0000000
003FFFFFC0000000
003FFFFFC0000000
007FFFFF80000000
0000000000000000
0000000000000000
0000000000000000
0000000000000000
0000000000000000
0000000000000000
0000000000000000
0000000000000000
0000000000000000
0000000000000000
0000000000000000
0000000000000000
0000000000000000
0000000000000000
0000000000000000
0000000000000000
ENDCHAR
STARTCHAR U+00DB
ENCODING 219
SWIDTH 1000 0
DWIDTH 36 0
BBX 62 80 -13 -16
BITMAP
0000000003FC0000
0000000003FC0000
0000000003FC0000
0000000007F80000
0000000007F80000
0000000007F80000
000000000FF00000
000000000FF00000
00000000FFFF0000
00000001FFFE0000
00000001FFFE0000
00000001FFFE0000
00000003FFFC0000
00000003FFFC0000
00000005FFFC0000
00000007FFF40000
000007F80007F800
000007F80007F800
00000FF0000FF000
00000FF0000FF000
00000FF0000FF000
00001FE0001FE000
00001FE0001FE000
00001FE0001FE000
00003FC0003FC000
00003FC0003FC000
00003FC0003FC000
00007F80007F8000
00007F80007F8000
00007F80007F8000
0000FF0000FF0000
0000FF0000FF0000
0000FF0000FF0000
0001FE0001FE0000
0001FE0001FE0000
0001FE0001FE0000
0003FC0003FC0000
0003FC0003FC0000
0003FC0003FC0000
0007F80007F80000
0007F80007F80000
0007F80007F80000
000FF0000FF00000
000FF0000FF00000
000FF0000FF00000
001FE0001FE00000
001FE0001FE00000
001FE0001FE00000
003FC0003FC00000
003FC0003FC00000
003FC0003FC00000
007F80007F800000
007F80007F800000
007F80007F800000
00FF0000FF000000
00FF0000FF000000
000FFFFFF0000000
001FFFFFE0000000
001FFFFFE0000000
001FFFFFE0000000
003FFFFFC0000000
003FFFFFC0000000
003FFFFFC0000000
007FFFFF80000000
0000000000000000
0000000000000000
0000000000000000
0000000000000000
0000000000000000
0000000000000000
0000000000000000
0000000000000000
0000000000000000
0000000000000000
0000000000000000
0000000000000000
0000000000000000
0000000000000000
0000000000000000
0000000000000000
ENDCHAR
STARTCHAR U+00DA
ENCODING 218
SWIDTH 1000 0
DWIDTH 36 0
BBX 62 80 -13 -16
BITMAP
00000000003FFC00
00000000003FFC00
00000000003FFC00
00000000007FF800
00000000007FF800
00000000007FF800
0000000000FFF000
0000000000FFF000
00000000FFF00000
00000001FFE00000
00000001FFE00000
00000001FFE00000
00000003FFC00000
00000003FFC00000
00000005FFC00000
00000007FF800000
000007F80007F800
000007F80007F800
00000FF0000FF000
00000FF0000FF000
00000FF0000FF000
00001FE0001FE000
00001FE0001FE000
00001FE0001FE000
00003FC0003FC000
00003FC0003FC000
00003FC0003FC000
00007F80007F8000
00007F80007F8000
00007F80007F8000
0000FF0000FF0000
0000FF0000FF0000
0000FF0000FF0000
0001FE0001FE0000
0001FE0001FE0000
0001FE0001FE0000
0003FC0003FC0000
0003FC0003FC0000
0003FC0003FC0000
0007F80007F80000
0007F80007F80000
0007F80007F80000
000FF0000FF00000
000FF0000FF00000
000FF0000FF00000
001FE0001FE00000
001FE0001FE00000
001FE0001FE00000
003FC0003FC00000
003FC0003FC00000
003FC0003FC00000
007F80007F800000
007F80007F800000
007F80007F800000
00FF0000FF000000
00FF0000FF000000
000FFFFFF0000000
001FFFFFE0000000
001FFFFFE0000000
001FFFFFE0000000
003FFFFFC0000000
003FFFFFC0000000
003FFFFFC0000000
007FFFFF80000000
0000000000000000
0000000000000000
0000000000000000
0000000000000000
0000000000000000
0000000000000000
0000000000000000
0000000000000000
0000000000000000
0000000000000000
0000000000000000
0000000000000000
0000000000000000
0000000000000000
0000000000000000
0000000000000000
ENDCHAR
STARTCHAR U+00D9
ENCODING 217
SWIDTH 1000 0
DWIDTH 36 0
BBX 62 80 -13 -16
BITMAP
00000003FFC00000
00000003FFC00000
00000003FFC00000
00000007FF800000
00000007FF800000
00000007FF800000
0000000FFF000000
0000000FFF000000
000000000FFF0000
000000001FFE0000
000000001FFE0000
000000001FFE0000
000000003FFC0000
000000003FFC0000
000000003FFC0000
000000007FF40000
000007F80007F800
000007F80007F800
00000FF0000FF000
00000FF0000FF000
00000FF0000FF000
00001FE0001FE000
00001FE0001FE000
00001FE0001FE000
00003FC0003FC000
00003FC0003FC000
00003FC0003FC000
00007F80007F8000
00007F80007F8000
00007F80007F8000
0000FF0000FF0000
0000FF0000FF0000
0000FF0000FF0000
0001FE0001FE0000
0001FE0001FE0000
0001FE0001FE0000
0003FC0003FC0000
0003FC0003FC0000
0003FC0003FC0000
0007F80007F80000
0007F80007F80000
0007F80007F80000
000FF0000FF00000
000FF0000FF00000
000FF0000FF00000
001FE0001FE00000
001FE0001FE00000
001FE0001FE00000
003FC0003FC00000
003FC0003FC00000
003FC0003FC00000
007F80007F800000
007F80007F800000
007F80007F800000
00FF0000FF000000
00FF0000FF000000
000FFFFFF0000000
001FFFFFE0000000
001FFFFFE0000000
001FFFFFE0000000
003FFFFFC0000000
003FFFFFC0000000
003FFFFFC0000000
007FFFFF80000000
0000000000000000
0000000000000000
0000000000000000
0000000000000000
0000000000000000
0000000000000000
0000000000000000
0000000000000000
0000000000000000
0000000000000000
0000000000000000
0000000000000000
0000000000000000
0000000000000000
0000000000000000
0000000000000000
ENDCHAR
STARTCHAR U+00D8
ENCODING 216
SWIDTH 1000 0
DWIDTH 36 0
BBX 62 80 -13 -16
BITMAP
0000000000003FC0
0000000000003FC0
0000000000003FC0
0000000000007F80
0000000000007F80
0000000000007F80
000000000000FF00
000000000000FF00
0000000FFFFFF000
0000001FFFFFE000
0000001FFFFFE000
0000001FFFFFE000
0000003FFFFFC000
0000003FFFFFC000
0000003FFFFFC000
0000007FFFFF8000
000007F8007FF800
000007F8007FF800
00000FF000FFF000
00000FF000FFF000
00000FF000FFF000
00001FE001FFE000
00001FE001FFE000
00001FE001FFE000
00003FC03FFFC000
00003FC03FFFC000
00003FC03FFFC000
00007F807FFF8000
00007F807FFF8000
00007F807FFF8000
0000FF00FFFF0000
0000FF00FFFF0000
0000FF0FF0FF0000
0001FE1FE1FE0000
0001FE1FE1FE0000
0001FE1FE1FE0000
0003FC3FC3FC0000
0003FC3FC3FC0000
0003FC3FC3FC0000
0007F87F87F80000
0007FFF807F80000
0007FFF807F80000
000FFFF00FF00000
000FFFF00FF00000
000FFFF00FF00000
001FFFE01FE00000
001FFFE01FE00000
001FFFE01FE00000
003FFC003FC00000
003FFC003FC00000
003FFC003FC00000
007FF8007F800000
007FF8007F800000
007FF8007F800000
00FFF000FF000000
00FFF000FF000000
000FFFFFF0000000
001FFFFFE0000000
001FFFFFE0000000
001FFFFFE0000000
003FFFFFC0000000
003FFFFFC0000000
003FFFFFC0000000
007FFFFF80000000
07F8000000000000
07F8000000000000
0FF0000000000000
0FF0000000000000
0FF0000000000000
1FE0000000000000
1FE0000000000000
1FE0000000000000
0000000000000000
0000000000000000
0000000000000000
0000000000000000
0000000000000000
0000000000000000
0000000000000000
0000000000000000
ENDCHAR
STARTCHAR U+0152
ENCODING 338
SWIDTH 1000 0
DWIDTH 36 0
BBX 62 80 -13 -16
BITMAP
0000000000000000
0000000000000000
0000000000000000
0000000000000000
0000000000000000
0000000000000000
0000000000000000
0000000000000000
0000000FFFFFFF00
0000001FFFFFFE00
0000001FFFFFFE00
0000001FFFFFFE00
0000003FFFFFFC00
0000003FFFFFFC00
0000003FFFFFFC00
0000007FFFFFF800
000007F87F800000
000007F87F800000
00000FF0FF000000
00000FF0FF000000
00000FF0FF000000
00001FE1FE000000
00001FE1FE000000
00001FE1FE000000
00003FC3FC000000
00003FC3FC000000
00003FC3FC000000
00007F87F8000000
00007F87F8000000
00007F87F8000000
0000FF0FF0000000
0000FF0FF0000000
0000FF0FFFF00000
0001FE1FFFE00000
0001FE1FFFE00000
0001FE1FFFE00000
0003FC3FFFC00000
0003FC3FFFC00000
0003FC3FFFC00000
0007F87FFF800000
0007F87F80000000
0007F87F80000000
000FF0FF00000000
000FF0FF00000000
000FF0FF00000000
001FE1FE00000000
001FE1FE00000000
001FE1FE00000000
003FC3FC00000000
003FC3FC00000000
003FC3FC00000000
007F87F800000000
007F87F800000000
007F87F800000000
00FF0FF000000000
00FF0FF000000000
000FFFFFFF000000
001FFFFFFE000000
001FFFFFFE000000
001FFFFFFE000000
003FFFFFFC000000
003FFFFFFC000000
003FFFFFFC000000
007FFFFFF8000000
0000000000000000
0000000000000000
0000000000000000
0000000000000000
0000000000000000
0000000000000000
0000000000000000
0000000000000000
0000000000000000
0000000000000000
0000000000000000
0000000000000000
0000000000000000
0000000000000000
0000000000000000
0000000000000000
ENDCHAR
STARTCHAR U+00D6
ENCODING 214
SWIDTH 1000 0
DWIDTH 36 0
BBX 62 80 -13 -16
BITMAP
00000003FC03FC00
00000003FC03FC00
00000003FC03FC00
00000007F807F800
00000007F807F800
00000007F807F800
0000000FF00FF000
0000000FF00FF000
0000000000000000
0000000000000000
0000000000000000
0000000000000000
0000000000000000
0000000000000000
0000000000000000
0000000000000000
0000007FFFFF8000
0000007FFFFF8000
000000FFFFFF0000
000000FFFFFF0000
000000FFFFFF0000
000001FFFFFE0000
000001FFFFFE0000
000001FFFFFE0000
00003FC0003FC000
00003FC0003FC000
00003FC0003FC000
00007F80007F8000
00007F80007F8000
00007F80007F8000
0000FF0000FF0000
0000FF0000FF0000
0000FF0000FF0000
0001FE0001FE0000
0001FE0001FE0000
0001FE0001FE0000
0003FC0003FC0000
0003FC0003FC0000
0003FC0003FC0000
0007F80007F80000
0007F80007F80000
0007F80007F80000
000FF0000FF00000
000FF0000FF00000
000FF0000FF00000
001FE0001FE00000
001FE0001FE00000
001FE0001FE00000
003FC0003FC00000
003FC0003FC00000
003FC0003FC00000
007F80007F800000
007F80007F800000
007F80007F800000
00FF0000FF000000
00FF0000FF000000
000FFFFFF0000000
001FFFFFE0000000
001FFFFFE0000000
001FFFFFE0000000
003FFFFFC0000000
003FFFFFC0000000
003FFFFFC0000000
007FFFFF80000000
0000000000000000
0000000000000000
0000000000000000
0000000000000000
0000000000000000
0000000000000000
0000000000000000
0000000000000000
0000000000000000
0000000000000000
0000000000000000
0000000000000000
0000000000000000
0000000000000000
0000000000000000
0000000000000000
ENDCHAR
STARTCHAR U+00D5
ENCODING 213
SWIDTH 1000 0
DWIDTH 36 0
BBX 62 80 -13 -16
BITMAP
00000003FFC3FC00
00000003FFC3FC00
00000003FFC3FC00
00000007FF87F800
00000007FF87F800
00000007FF87F800
0000000FFF0FF000
0000000FFF0FF000
000000FF0FFF0000
000001FE1FFE0000
000001FE1FFE0000
000001FE1FFE0000
000003FC3FFC0000
000003FC3FFC0000
000003FC3FFC0000
000007F87FF80000
0000007FFFFF8000
0000007FFFFF8000
000000FFFFFF0000
000000FFFFFF0000
000000FFFFFF0000
000001FFFFFE0000
000001FFFFFE0000
000001FFFFFE0000
00003FC0003FC000
00003FC0003FC000
00003FC0003FC000
00007F80007F8000
00007F80007F8000
00007F80007F8000
0000FF0000FF0000
0000FF0000FF0000
0000FF0000FF0000
0001FE0001FE0000
0001FE0001FE0000
0001FE0001FE0000
0003FC0003FC0000
0003FC0003FC0000
0003FC0003FC0000
0007F80007F80000
0007F80007F80000
0007F80007F80000
000FF0000FF00000
000FF0000FF00000
000FF0000FF00000
001FE0001FE00000
001FE0001FE00000
001FE0001FE00000
003FC0003FC00000
003FC0003FC00000
003FC0003FC00000
007F80007F800000
007F80007F800000
007F80007F800000
00FF0000FF000000
00FF0000FF000000
000FFFFFF0000000
001FFFFFE0000000
001FFFFFE0000000
001FFFFFE0000000
003FFFFFC0000000
003FFFFFC0000000
003FFFFFC0000000
007FFFFF80000000
0000000000000000
0000000000000000
0000000000000000
0000000000000000
0000000000000000
0000000000000000
0000000000000000
0000000000000000
0000000000000000
0000000000000000
0000000000000000
0000000000000000
0000000000000000
0000000000000000
0000000000000000
0000000000000000
ENDCHAR
STARTCHAR U+00D4
ENCODING 212
SWIDTH 1000 0
DWIDTH 36 0
BBX 62 80 -13 -16
BITMAP
000000003FFFC000
000000003FFFC000
000000003FFFC000
000000007FFF8000
000000007FFF8000
000000007FFF8000
00000000FFFF0000
00000000FFFF0000
0000000FF00FF000
0000001FE01FE000
0000001FE01FE000
0000001FE01FE000
0000003FC03FC000
0000003FC03FC000
0000003FC03FC000
0000007F807F8000
0000007FFFFF8000
0000007FFFFF8000
000000FFFFFF0000
000000FFFFFF0000
000000FFFFFF0000
000001FFFFFE0000
000001FFFFFE0000
000001FFFFFE0000
00003FC0003FC000
00003FC0003FC000
00003FC0003FC000
00007F80007F8000
00007F80007F8000
00007F80007F8000
0000FF0000FF0000
0000FF0000FF0000
0000FF0000FF0000
0001FE0001FE0000
0001FE0001FE0000
0001FE0001FE0000
0003FC0003FC0000
0003FC0003FC0000
0003FC0003FC0000
0007F80007F80000
0007F80007F80000
0007F80007F80000
000FF0000FF00000
000FF0000FF00000
000FF0000FF00000
001FE0001FE00000
001FE0001FE00000
001FE0001FE00000
003FC0003FC00000
003FC0003FC00000
003FC0003FC00000
007F80007F800000
007F80007F800000
007F80007F800000
00FF0000FF000000
00FF0000FF000000
000FFFFFF0000000
001FFFFFE0000000
001FFFFFE0000000
001FFFFFE0000000
003FFFFFC0000000
003FFFFFC0000000
003FFFFFC0000000
007FFFFF80000000
0000000000000000
0000000000000000
0000000000000000
0000000000000000
0000000000000000
0000000000000000
0000000000000000
0000000000000000
0000000000000000
0000000000000000
0000000000000000
0000000000000000
0000000000000000
0000000000000000
0000000000000000
0000000000000000
ENDCHAR
STARTCHAR U+00D3
ENCODING 211
SWIDTH 1000 0
DWIDTH 36 0
BBX 62 80 -13 -16
BITMAP
0000000003FFC000
0000000003FFC000
0000000003FFC000
0000000007FF8000
0000000007FF8000
0000000007FF8000
000000000FFF0000
000000000FFF0000
0000000FFF000000
0000001FFE000000
0000001FFE000000
0000001FFE000000
0000003FFC000000
0000003FFC000000
0000003FFC000000
0000007FF8000000
0000007FFFFF8000
0000007FFFFF8000
000000FFFFFF0000
000000FFFFFF0000
000000FFFFFF0000
000001FFFFFE0000
000001FFFFFE0000
000001FFFFFE0000
00003FC0003FC000
00003FC0003FC000
00003FC0003FC000
00007F80007F8000
00007F80007F8000
00007F80007F8000
0000FF0000FF0000
0000FF0000FF0000
0000FF0000FF0000
0001FE0001FE0000
0001FE0001FE0000
0001FE0001FE0000
0003FC0003FC0000
0003FC0003FC0000
0003FC0003FC0000
0007F80007F80000
0007F80007F80000
0007F80007F80000
000FF0000FF00000
000FF0000FF00000
000FF0000FF00000
001FE0001FE00000
001FE0001FE00000
001FE0001FE00000
003FC0003FC00000
003FC0003FC00000
003FC0003FC00000
007F80007F800000
007F80007F800000
007F80007F800000
00FF0000FF000000
00FF0000FF000000
000FFFFFF0000000
001FFFFFE0000000
001FFFFFE0000000
001FFFFFE0000000
003FFFFFC0000000
003FFFFFC0000000
003FFFFFC0000000
007FFFFF80000000
0000000000000000
0000000000000000
0000000000000000
0000000000000000
0000000000000000
0000000000000000
0000000000000000
0000000000000000
0000000000000000
0000000000000000
0000000000000000
0000000000000000
0000000000000000
0000000000000000
0000000000000000
0000000000000000
ENDCHAR
STARTCHAR U+00D2
ENCODING 210
SWIDTH 1000 0
DWIDTH 36 0
BBX 62 80 -13 -16
BITMAP
000000003FFC0000
000000003FFC0000
000000003FFC0000
000000007FF80000
000000007FF80000
000000007FF80000
00000000FFF00000
00000000FFF00000
0000000000FFF000
0000000001FFE000
0000000001FFE000
0000000001FFE000
0000000003FFC000
0000000003FFC000
0000000003FFC000
0000000007FF8000
0000007FFFFF8000
0000007FFFFF8000
000000FFFFFF0000
000000FFFFFF0000
000000FFFFFF0000
000001FFFFFE0000
000001FFFFFE0000
000001FFFFFE0000
00003FC0003FC000
00003FC0003FC000
00003FC0003FC000
00007F80007F8000
00007F80007F8000
00007F80007F8000
0000FF0000FF0000
0000FF0000FF0000
0000FF0000FF0000
0001FE0001FE0000
0001FE0001FE0000
0001FE0001FE0000
0003FC0003FC0000
0003FC0003FC0000
0003FC0003FC0000
0007F80007F80000
0007F80007F80000
0007F80007F80000
000FF0000FF00000
000FF0000FF00000
000FF0000FF00000
001FE0001FE00000
001FE0001FE00000
001FE0001FE00000
003FC0003FC00000
003FC0003FC00000
003FC0003FC00000
007F80007F800000
007F80007F800000
007F80007F800000
00FF0000FF000000
00FF0000FF000000
000FFFFFF0000000
001FFFFFE0000000
001FFFFFE0000000
001FFFFFE0000000
003FFFFFC0000000
003FFFFFC0000000
003FFFFFC0000000
007FFFFF80000000
0000000000000000
0000000000000000
0000000000000000
0000000000000000
0000000000000000
0000000000000000
0000000000000000
0000000000000000
0000000000000000
0000000000000000
0000000000000000
0000000000000000
0000000000000000
0000000000000000
0000000000000000
0000000000000000
ENDCHAR
STARTCHAR U+00D1
ENCODING 209
SWIDTH 1000 0
DWIDTH 36 0
BBX 62 80 -13 -16
BITMAP
000000003FFC3FC0
000000003FFC3FC0
000000003FFC3FC0
000000007FF87F80
000000007FF87F80
000000007FF87F80
00000000FFF0FF00
00000000FFF0FF00
0000000FF0FFF000
0000001FE1FFE000
0000001FE1FFE000
0000001FE1FFE000
0000003FC3FFC000
0000003FC3FFC000
0000003FC3FFC000
0000007F87FF8000
000007FF8007F800
000007FF8007F800
00000FFF000FF000
00000FFF000FF000
00000FFF000FF000
00001FFE001FE000
00001FFE001FE000
00001FFE001FE000
00003FFFC03FC000
00003FFFC03FC000
00003FFFC03FC000
00007FFF807F8000
00007FFF807F8000
00007FFF807F8000
0000FFFF00FF0000
0000FFFF00FF0000
0000FF0FF0FF0000
0001FE1FE1FE0000
0001FE1FE1FE0000
0001FE1FE1FE0000
0003FC3FC3FC0000
0003FC3FC3FC0000
0003FC3FC3FC0000
0007F87F87F80000
0007F807FFF80000
0007F807FFF80000
000FF00FFFF00000
000FF00FFFF00000
000FF00FFFF00000
001FE01FFFE00000
001FE01FFFE00000
001FE01FFFE00000
003FC003FFC00000
003FC003FFC00000
003FC003FFC00000
007F8007FF800000
007F8007FF800000
007F8007FF800000
00FF000FFF000000
00FF000FFF000000
00FF0000FF000000
01FE0001FE000000
01FE0001FE000000
01FE0001FE000000
03FC0003FC000000
03FC0003FC000000
03FC0003FC000000
07F80007F8000000
0000000000000000
0000000000000000
0000000000000000
0000000000000000
0000000000000000
0000000000000000
0000000000000000
0000000000000000
0000000000000000
0000000000000000
0000000000000000
0000000000000000
0000000000000000
0000000000000000
0000000000000000
0000000000000000
ENDCHAR
STARTCHAR U+00D0
ENCODING 208
SWIDTH 1000 0
DWIDTH 36 0
BBX 62 80 -13 -16
BITMAP
0000000000000000
0000000000000000
0000000000000000
0000000000000000
0000000000000000
0000000000000000
0000000000000000
0000000000000000
000000FFFFFF0000
000001FFFFFE0000
000001FFFFFE0000
000001FFFFFE0000
000003FFFFFC0000
000003FFFFFC0000
000003FFFFFC0000
000007FFFFF80000
0000007F807F8000
0000007F807F8000
000000FF00FF0000
000000FF00FF0000
000000FF00FF0000
000001FE01FE0000
000001FE01FE0000
000001FE01FE0000
000003FC003FC000
000003FC003FC000
000003FC003FC000
000007F8007F8000
000007F8007F8000
000007F8007F8000
00000FF000FF0000
00000FF000FF0000
0000FFFFF0FF0000
0001FFFFE1FE0000
0001FFFFE1FE0000
0001FFFFE1FE0000
0003FFFFC3FC0000
0003FFFFC3FC0000
0003FFFFC3FC0000
0007FFFF87F80000
00007F8007F80000
00007F8007F80000
0000FF000FF00000
0000FF000FF00000
0000FF000FF00000
0001FE001FE00000
0001FE001FE00000
0001FE001FE00000
0003FC03FC000000
0003FC03FC000000
0003FC03FC000000
0007F807F8000000
0007F807F8000000
0007F807F8000000
000FF00FF0000000
000FF00FF0000000
00FFFFFF00000000
01FFFFFE00000000
01FFFFFE00000000
01FFFFFE00000000
03FFFFFC00000000
03FFFFFC00000000
03FFFFFC00000000
07FFFFF800000000
0000000000000000
0000000000000000
0000000000000000
0000000000000000
0000000000000000
0000000000000000
0000000000000000
0000000000000000
0000000000000000
0000000000000000
0000000000000000
0000000000000000
0000000000000000
0000000000000000
0000000000000000
0000000000000000
ENDCHAR
STARTCHAR U+00CF
ENCODING 207
SWIDTH 1000 0
DWIDTH 36 0
BBX 62 80 -13 -16
BITMAP
00000003FC03FC00
00000003FC03FC00
00000003FC03FC00
00000007F807F800
00000007F807F800
00000007F807F800
0000000FF00FF000
0000000FF00FF000
0000000000000000
0000000000000000
0000000000000000
0000000000000000
0000000000000000
0000000000000000
0000000000000000
0000000000000000
0000007FFFFF8000
0000007FFFFF8000
000000FFFFFF0000
000000FFFFFF0000
000000FFFFFF0000
000001FFFFFE0000
000001FFFFFE0000
000001FFFFFE0000
00000003FC000000
00000003FC000000
00000003FC000000
00000007F8000000
00000007F8000000
00000007F8000000
0000000FF0000000
0000000FF0000000
0000000FF0000000
0000001FE0000000
0000001FE0000000
0000001FE0000000
0000003FC0000000
0000003FC0000000
0000003FC0000000
0000007F80000000
0000007F80000000
0000007F80000000
000000FF00000000
000000FF00000000
000000FF00000000
000001FE00000000
000001FE00000000
000001FE00000000
000003FC00000000
000003FC00000000
000003FC00000000
000007F800000000
000007F800000000
000007F800000000
00000FF000000000
00000FF000000000
000FFFFFF0000000
001FFFFFE0000000
001FFFFFE0000000
001FFFFFE0000000
003FFFFFC0000000
003FFFFFC0000000
003FFFFFC0000000
007FFFFF80000000
0000000000000000
0000000000000000
0000000000000000
0000000000000000
0000000000000000
0000000000000000
0000000000000000
0000000000000000
0000000000000000
0000000000000000
0000000000000000
0000000000000000
0000000000000000
0000000000000000
0000000000000000
0000000000000000
ENDCHAR
STARTCHAR U+00CE
ENCODING 206
SWIDTH 1000 0
DWIDTH 36 0
BBX 62 80 -13 -16
BITMAP
000000003FFFC000
000000003FFFC000
000000003FFFC000
000000007FFF8000
000000007FFF8000
000000007FFF8000
00000000FFFF0000
00000000FFFF0000
0000000FF00FF000
0000001FE01FE000
0000001FE01FE000
0000001FE01FE000
0000003FC03FC000
0000003FC03FC000
0000003FC03FC000
0000007F807F8000
0000007FFFFF8000
0000007FFFFF8000
000000FFFFFF0000
000000FFFFFF0000
000000FFFFFF0000
000001FFFFFE0000
000001FFFFFE0000
000001FFFFFE0000
00000003FC000000
00000003FC000000
00000003FC000000
00000007F8000000
00000007F8000000
00000007F8000000
0000000FF0000000
0000000FF0000000
0000000FF0000000
0000001FE0000000
0000001FE0000000
0000001FE0000000
0000003FC0000000
0000003FC0000000
0000003FC0000000
0000007F80000000
0000007F80000000
0000007F80000000
000000FF00000000
000000FF00000000
000000FF00000000
000001FE00000000
000001FE00000000
000001FE00000000
000003FC00000000
000003FC00000000
000003FC00000000
000007F800000000
000007F800000000
000007F800000000
00000FF000000000
00000FF000000000
000FFFFFF0000000
001FFFFFE0000000
001FFFFFE0000000
001FFFFFE0000000
003FFFFFC0000000
003FFFFFC0000000
003FFFFFC0000000
007FFFFF80000000
0000000000000000
0000000000000000
0000000000000000
0000000000000000
0000000000000000
0000000000000000
0000000000000000
0000000000000000
0000000000000000
0000000000000000
0000000000000000
0000000000000000
0000000000000000
0000000000000000
0000000000000000
0000000000000000
ENDCHAR
STARTCHAR U+00CD
ENCODING 205
SWIDTH 1000 0
DWIDTH 36 0
BBX 62 80 -13 -16
BITMAP
0000000003FFC000
0000000003FFC000
0000000003FFC000
0000000007FF8000
0000000007FF8000
0000000007FF8000
000000000FFF0000
000000000FFF0000
0000000FFF000000
0000001FFE000000
0000001FFE000000
0000001FFE000000
0000003FFC000000
0000003FFC000000
0000003FFC000000
0000007FF8000000
0000007FFFFF8000
0000007FFFFF8000
000000FFFFFF0000
000000FFFFFF0000
000000FFFFFF0000
000001FFFFFE0000
000001FFFFFE0000
000001FFFFFE0000
00000003FC000000
00000003FC000000
00000003FC000000
00000007F8000000
00000007F8000000
00000007F8000000
0000000FF0000000
0000000FF0000000
0000000FF0000000
0000001FE0000000
0000001FE0000000
0000001FE0000000
0000003FC0000000
0000003FC0000000
0000003FC0000000
0000007F80000000
0000007F80000000
0000007F80000000
000000FF00000000
000000FF00000000
000000FF00000000
000001FE00000000
000001FE00000000
000001FE00000000
000003FC00000000
000003FC00000000
000003FC00000000
000007F800000000
000007F800000000
000007F800000000
00000FF000000000
00000FF000000000
000FFFFFF0000000
001FFFFFE0000000
001FFFFFE0000000
001FFFFFE0000000
003FFFFFC0000000
003FFFFFC0000000
003FFFFFC0000000
007FFFFF80000000
0000000000000000
0000000000000000
0000000000000000
0000000000000000
0000000000000000
0000000000000000
0000000000000000
0000000000000000
0000000000000000
0000000000000000
0000000000000000
0000000000000000
0000000000000000
0000000000000000
0000000000000000
0000000000000000
ENDCHAR
STARTCHAR U+00CC
ENCODING 204
SWIDTH 1000 0
DWIDTH 36 0
BBX 62 80 -13 -16
BITMAP
000000003FFC0000
000000003FFC0000
000000003FFC0000
000000007FF80000
000000007FF80000
000000007FF80000
00000000FFF00000
00000000FFF00000
0000000000FFF000
0000000001FFE000
0000000001FFE000
0000000001FFE000
0000000003FFC000
0000000003FFC000
0000000003FFC000
0000000007FF8000
0000007FFFFF8000
0000007FFFFF8000
000000FFFFFF0000
000000FFFFFF0000
000000FFFFFF0000
000001FFFFFE0000
000001FFFFFE0000
000001FFFFFE0000
00000003FC000000
00000003FC000000
00000003FC000000
00000007F8000000
00000007F8000000
00000007F8000000
0000000FF0000000
0000000FF0000000
0000000FF0000000
0000001FE0000000
0000001FE0000000
0000001FE0000000
0000003FC0000000
0000003FC0000000
0000003FC0000000
0000007F80000000
0000007F80000000
0000007F80000000
000000FF00000000
000000FF00000000
000000FF00000000
000001FE00000000
000001FE00000000
000001FE00000000
000003FC00000000
000003FC00000000
000003FC00000000
000007F800000000
000007F800000000
000007F800000000
00000FF000000000
00000FF000000000
000FFFFFF0000000
001FFFFFE0000000
001FFFFFE0000000
001FFFFFE0000000
003FFFFFC0000000
003FFFFFC0000000
003FFFFFC0000000
007FFFFF80000000
0000000000000000
0000000000000000
0000000000000000
0000000000000000
0000000000000000
0000000000000000
0000000000000000
0000000000000000
0000000000000000
0000000000000000
0000000000000000
0000000000000000
0000000000000000
0000000000000000
0000000000000000
0000000000000000
ENDCHAR
STARTCHAR U+00CB
ENCODING 203
SWIDTH 1000 0
DWIDTH 36 0
BBX 62 80 -13 -16
BITMAP
00000003FC03FC00
00000003FC03FC00
00000003FC03FC00
00000007F807F800
00000007F807F800
00000007F807F800
0000000FF00FF000
0000000FF00FF000
0000000000000000
0000000000000000
0000000000000000
0000000000000000
0000000000000000
0000000000000000
0000000000000000
0000000000000000
000007FFFFFFF800
000007FFFFFFF800
00000FFFFFFFF000
00000FFFFFFFF000
00000FFFFFFFF000
00001FFFFFFFE000
00001FFFFFFFE000
00001FFFFFFFE000
00003FC000000000
00003FC000000000
00003FC000000000
00007F8000000000
00007F8000000000
00007F8000000000
0000FF0000000000
0000FF0000000000
0000FFFFFF000000
0001FFFFFE000000
0001FFFFFE000000
0001FFFFFE000000
0003FFFFFC000000
0003FFFFFC000000
0003FFFFFC000000
0007FFFFF8000000
0007F80000000000
0007F80000000000
000FF00000000000
000FF00000000000
000FF00000000000
001FE00000000000
001FE00000000000
001FE00000000000
003FC00000000000
003FC00000000000
003FC00000000000
007F800000000000
007F800000000000
007F800000000000
00FF000000000000
00FF000000000000
00FFFFFFFF000000
01FFFFFFFE000000
01FFFFFFFE000000
01FFFFFFFE000000
03FFFFFFFC000000
03FFFFFFFC000000
03FFFFFFFC000000
07FFFFFFF8000000
0000000000000000
0000000000000000
0000000000000000
0000000000000000
0000000000000000
0000000000000000
0000000000000000
0000000000000000
0000000000000000
0000000000000000
0000000000000000
0000000000000000
0000000000000000
0000000000000000
0000000000000000
0000000000000000
ENDCHAR
STARTCHAR U+00CA
ENCODING 202
SWIDTH 1000 0
DWIDTH 36 0
BBX 62 80 -13 -16
BITMAP
000000003FFFC000
000000003FFFC000
000000003FFFC000
000000007FFF8000
000000007FFF8000
000000007FFF8000
00000000FFFF0000
00000000FFFF0000
0000000FF00FF000
0000001FE01FE000
0000001FE01FE000
0000001FE01FE000
0000003FC03FC000
0000003FC03FC000
0000003FC03FC000
0000007F807F8000
000007FFFFFFF800
000007FFFFFFF800
00000FFFFFFFF000
00000FFFFFFFF000
00000FFFFFFFF000
00001FFFFFFFE000
00001FFFFFFFE000
00001FFFFFFFE000
00003FC000000000
00003FC000000000
00003FC000000000
00007F8000000000
00007F8000000000
00007F8000000000
0000FF0000000000
0000FF0000000000
0000FFFFF0000000
0001FFFFE0000000
0001FFFFE0000000
0001FFFFE0000000
0003FFFFC0000000
0003FFFFC0000000
0003FFFFC0000000
0007FFFF80000000
0007F80000000000
0007F80000000000
000FF00000000000
000FF00000000000
000FF00000000000
001FE00000000000
001FE00000000000
001FE00000000000
003FC00000000000
003FC00000000000
003FC00000000000
007F800000000000
007F800000000000
007F800000000000
00FF000000000000
00FF000000000000
00FFFFFFFF000000
01FFFFFFFE000000
01FFFFFFFE000000
01FFFFFFFE000000
03FFFFFFFC000000
03FFFFFFFC000000
03FFFFFFFC000000
07FFFFFFF8000000
0000000000000000
0000000000000000
0000000000000000
0000000000000000
0000000000000000
0000000000000000
0000000000000000
0000000000000000
0000000000000000
0000000000000000
0000000000000000
0000000000000000
0000000000000000
0000000000000000
0000000000000000
0000000000000000
ENDCHAR
STARTCHAR U+00C9
ENCODING 201
SWIDTH 1000 0
DWIDTH 36 0
BBX 62 80 -13 -16
BITMAP
00000000003FFC00
00000000003FFC00
00000000003FFC00
00000000007FF800
00000000007FF800
00000000007FF800
0000000000FFF000
0000000000FFF000
00000000FFF00000
00000001FFE00000
00000001FFE00000
00000001FFE00000
00000003FFC00000
00000003FFC00000
00000003FFC00000
00000007FF800000
000007FFFFFFF800
000007FFFFFFF800
00000FFFFFFFF000
00000FFFFFFFF000
00000FFFFFFFF000
00001FFFFFFFE000
00001FFFFFFFE000
00001FFFFFFFE000
00003FC000000000
00003FC000000000
00003FC000000000
00007F8000000000
00007F8000000000
00007F8000000000
0000FF0000000000
0000FF0000000000
0000FFFFFF000000
0001FFFFFE000000
0001FFFFFE000000
0001FFFFFE000000
0003FFFFFC000000
0003FFFFFC000000
0003FFFFFC000000
0007FFFFF8000000
0007F80000000000
0007F80000000000
000FF00000000000
000FF00000000000
000FF00000000000
001FE00000000000
001FE00000000000
001FE00000000000
003FC00000000000
003FC00000000000
003FC00000000000
007F800000000000
007F800000000000
007F800000000000
00FF000000000000
00FF000000000000
00FFFFFFFF000000
01FFFFFFFE000000
01FFFFFFFE000000
01FFFFFFFE000000
03FFFFFFFC000000
03FFFFFFFC000000
03FFFFFFFC000000
07FFFFFFF8000000
0000000000000000
0000000000000000
0000000000000000
0000000000000000
0000000000000000
0000000000000000
0000000000000000
0000000000000000
0000000000000000
0000000000000000
0000000000000000
0000000000000000
0000000000000000
0000000000000000
0000000000000000
0000000000000000
ENDCHAR
STARTCHAR U+00C8
ENCODING 200
SWIDTH 1000 0
DWIDTH 36 0
BBX 62 80 -13 -16
BITMAP
00000003FFC00000
00000003FFC00000
00000003FFC00000
00000007FF800000
00000007FF800000
00000007FF800000
0000000FFF000000
0000000FFF000000
000000000FFF0000
000000001FFE0000
000000001FFE0000
000000001FFE0000
000000003FFC0000
000000003FFC0000
000000003FFC0000
000000007FF80000
000007FFFFFFF800
000007FFFFFFF800
00000FFFFFFFF000
00000FFFFFFFF000
00000FFFFFFFF000
00001FFFFFFFE000
00001FFFFFFFE000
00001FFFFFFFE000
00003FC000000000
00003FC000000000
00003FC000000000
00007F8000000000
00007F8000000000
00007F8000000000
0000FF0000000000
0000FF0000000000
0000FFFFFF000000
0001FFFFFE000000
0001FFFFFE000000
0001FFFFFE000000
0003FFFFFC000000
0003FFFFFC000000
0003FFFFFC000000
0007FFFFF8000000
0007F80000000000
0007F80000000000
000FF00000000000
000FF00000000000
000FF00000000000
001FE00000000000
001FE00000000000
001FE00000000000
003FC00000000000
003FC00000000000
003FC00000000000
007F800000000000
007F800000000000
007F800000000000
00FF000000000000
00FF000000000000
00FFFFFFFF000000
01FFFFFFFE000000
01FFFFFFFE000000
01FFFFFFFE000000
03FFFFFFFC000000
03FFFFFFFC000000
03FFFFFFFC000000
07FFFFFFF8000000
0000000000000000
0000000000000000
0000000000000000
0000000000000000
0000000000000000
0000000000000000
0000000000000000
0000000000000000
0000000000000000
0000000000000000
0000000000000000
0000000000000000
0000000000000000
0000000000000000
0000000000000000
0000000000000000
ENDCHAR
STARTCHAR U+00C7
ENCODING 199
SWIDTH 1000 0
DWIDTH 36 0
BBX 62 80 -13 -16
BITMAP
0000000000000000
0000000000000000
0000000000000000
0000000000000000
0000000000000000
0000000000000000
0000000000000000
0000000000000000
00000000FFFFF000
00000001FFFFE000
00000001FFFFE000
00000001FFFFE000
00000003FFFFC000
00000003FFFFC000
00000003FFFFC000
00000007FFFF8000
0000007F8007F800
0000007F8007F800
000000FF000FF000
000000FF000FF000
000000FF000FF000
000001FE001FE000
000001FE001FE000
000001FE001FE000
00003FC000000000
00003FC000000000
00003FC000000000
00007F8000000000
00007F8000000000
00007F8000000000
0000FF0000000000
0000FF0000000000
0000FF0000000000
0001FE0000000000
0001FE0000000000
0001FE0000000000
0003FC0000000000
0003FC0000000000
0003FC0000000000
0007F80000000000
0007F80000000000
0007F80000000000
000FF00000000000
000FF00000000000
000FF00000000000
001FE00000000000
001FE00000000000
001FE00000000000
0003FC003FC00000
0003FC003FC00000
0003FC003FC00000
0007F8007F800000
0007F8007F800000
0007F8007F800000
000FF000FF000000
000FF000FF000000
0000FFFFF0000000
0001FFFFE0000000
0001FFFFE0000000
0001FFFFE0000000
0003FFFFC0000000
0003FFFFC0000000
0003FFFFC0000000
0007FFFF80000000
000007F800000000
000007F800000000
00000FF000000000
00000FF000000000
00000FF000000000
00001FE000000000
00001FE000000000
00001FE000000000
003FFFC000000000
003FFFC000000000
003FFFC000000000
007FFF8000000000
007FFF8000000000
007FFF8000000000
00FFFF0000000000
00FFFF0000000000
ENDCHAR
STARTCHAR U+00C6
ENCODING 198
SWIDTH 1000 0
DWIDTH 36 0
BBX 62 80 -13 -16
BITMAP
0000000000000000
0000000000000000
0000000000000000
0000000000000000
0000000000000000
0000000000000000
0000000000000000
0000000000000000
00000000FFFFFF00
00000001FFFFFE00
00000001FFFFFE00
00000001FFFFFE00
00000003FFFFFC00
00000003FFFFFC00
00000003FFFFFC00
00000007FFFFF800
0000007FFF800000
0000007FFF800000
000000FFFF000000
000000FFFF000000
000000FFFF000000
000001FFFE000000
000001FFFE000000
000001FFFE000000
00003FC3FC000000
00003FC3FC000000
00003FC3FC000000
00007F87F8000000
00007F87F8000000
00007F87F8000000
0000FF0FF0000000
0000FF0FF0000000
0000FF0FFFF00000
0001FE1FFFE00000
0001FE1FFFE00000
0001FE1FFFE00000
0003FC3FFFC00000
0003FC3FFFC00000
0003FC3FFFC00000
0007F87FFF800000
0007FFFF80000000
0007FFFF80000000
000FFFFF00000000
000FFFFF00000000
000FFFFF00000000
001FFFFE00000000
001FFFFE00000000
001FFFFE00000000
003FC3FC00000000
003FC3FC00000000
003FC3FC00000000
007F87F800000000
007F87F800000000
007F87F800000000
00FF0FF000000000
00FF0FF000000000
00FF0FFFFF000000
01FE1FFFFE000000
01FE1FFFFE000000
01FE1FFFFE000000
03FC3FFFFC000000
03FC3FFFFC000000
03FC3FFFFC000000
07F87FFFF8000000
0000000000000000
0000000000000000
0000000000000000
0000000000000000
0000000000000000
0000000000000000
0000000000000000
0000000000000000
0000000000000000
0000000000000000
0000000000000000
0000000000000000
0000000000000000
0000000000000000
0000000000000000
0000000000000000
ENDCHAR
STARTCHAR U+00C5
ENCODING 197
SWIDTH 1000 0
DWIDTH 36 0
BBX 62 80 -13 -16
BITMAP
000000003FFFC000
000000003FFFC000
000000003FFFC000
000000007FFF8000
000000007FFF8000
000000007FFF8000
00000000FFFF0000
00000000FFFF0000
0000000FF00FF000
0000001FE01FE000
0000001FE01FE000
0000001FE01FE000
0000003FC03FC000
0000003FC03FC000
0000003FC03FC000
0000007F807F8000
00000007FFF80000
00000007FFF80000
0000000FFFF00000
0000000FFFF00000
0000000FFFF00000
0000001FFFE00000
0000001FFFE00000
0000001FFFE00000
0000003FFFC00000
0000003FFFC00000
0000003FFFC00000
0000007FFF800000
0000007FFF800000
0000007FFF800000
000000FFFF000000
000000FFFF000000
00000FF00FF00000
00001FE01FE00000
00001FE01FE00000
00001FE01FE00000
00003FC03FC00000
00003FC03FC00000
00003FC03FC00000
00007F807F800000
0007FFFFFFF80000
0007FFFFFFF80000
000FFFFFFFF00000
000FFFFFFFF00000
000FFFFFFFF00000
001FFFFFFFE00000
001FFFFFFFE00000
001FFFFFFFE00000
003FC0003FC00000
003FC0003FC00000
003FC0003FC00000
007F80007F800000
007F80007F800000
007F80007F800000
00FF0000FF000000
00FF0000FF000000
00FF0000FF000000
01FE0001FE000000
01FE0001FE000000
01FE0001FE000000
03FC0003FC000000
03FC0003FC000000
03FC0003FC000000
07F80007F8000000
0000000000000000
0000000000000000
0000000000000000
0000000000000000
0000000000000000
0000000000000000
0000000000000000
0000000000000000
0000000000000000
0000000000000000
0000000000000000
0000000000000000
0000000000000000
0000000000000000
0000000000000000
0000000000000000
ENDCHAR
STARTCHAR U+00C4
ENCODING 196
SWIDTH 1000 0
DWIDTH 36 0
BBX 62 80 -13 -16
BITMAP
00000003FC03FC00
00000003FC03FC00
00000003FC03FC00
00000007F807F800
00000007F807F800
00000007F807F800
0000000FF00FF000
0000000FF00FF000
0000000000000000
0000000000000000
0000000000000000
0000000000000000
0000000000000000
0000000000000000
0000000000000000
0000000000000000
000000007F800000
000000007F800000
00000000FF000000
00000000FF000000
00000000FF000000
00000001FE000000
00000001FE000000
00000001FE000000
0000003FFFC00000
0000003FFFC00000
0000003FFFC00000
0000007FFF800000
0000007FFF800000
0000007FFF800000
000000FFFF000000
000000FFFF000000
00000FF00FF00000
00001FE01FE00000
00001FE01FE00000
00001FE01FE00000
00003FC03FC00000
00003FC03FC00000
00003FC03FC00000
00007F807F800000
0007FFFFFFF80000
0007FFFFFFF80000
000FFFFFFFF00000
000FFFFFFFF00000
000FFFFFFFF00000
001FFFFFFFE00000
001FFFFFFFE00000
001FFFFFFFE00000
003FC0003FC00000
003FC0003FC00000
003FC0003FC00000
007F80007F800000
007F80007F800000
007F80007F800000
00FF0000FF000000
00FF0000FF000000
00FF0000FF000000
01FE0001FE000000
01FE0001FE000000
01FE0001FE000000
03FC0003FC000000
03FC0003FC000000
03FC0003FC000000
07F80007F8000000
0000000000000000
0000000000000000
0000000000000000
0000000000000000
0000000000000000
0000000000000000
0000000000000000
0000000000000000
0000000000000000
0000000000000000
0000000000000000
0000000000000000
0000000000000000
0000000000000000
0000000000000000
0000000000000000
ENDCHAR
STARTCHAR U+00C3
ENCODING 195
SWIDTH 1000 0
DWIDTH 36 0
BBX 62 80 -13 -16
BITMAP
000000003FFC3FC0
000000003FFC3FC0
000000003FFC3FC0
000000007FF87F80
000000007FF87F80
000000007FF87F80
00000000FFF0FF00
00000000FFF0FF00
0000000FF0FFF000
0000001FE1FFE000
0000001FE1FFE000
0000001FE1FFE000
0000003FC3FFC000
0000003FC3FFC000
0000003FC3FFC000
0000007F47FF8000
000000007F800000
000000007F800000
00000000FF000000
00000000FF000000
00000000FF000000
00000001FE000000
00000001FE000000
00000001FE000000
0000003FFFC00000
0000003FFFC00000
0000003FFFC00000
0000007FFF800000
0000007FFF800000
0000007FFF800000
000000FFFF000000
000000FFFF000000
00000FF00FF00000
00001FE01FE00000
00001FE01FE00000
00001FE01FE00000
00003FC03FC00000
00003FC03FC00000
00003FC03FC00000
00007F807F800000
0007FFFFFFF80000
0007FFFFFFF80000
000FFFFFFFF00000
000FFFFFFFF00000
000FFFFFFFF00000
001FFFFFFFE00000
001FFFFFFFE00000
001FFFFFFFE00000
003FC0003FC00000
003FC0003FC00000
003FC0003FC00000
007F80007F800000
007F80007F800000
007F80007F800000
00FF0000FF000000
00FF0000FF000000
00FF0000FF000000
01FE0001FE000000
01FE0001FE000000
01FE0001FE000000
03FC0003FC000000
03FC0003FC000000
03FC0003FC000000
07F80007F8000000
0000000000000000
0000000000000000
0000000000000000
0000000000000000
0000000000000000
0000000000000000
0000000000000000
0000000000000000
0000000000000000
0000000000000000
0000000000000000
0000000000000000
0000000000000000
0000000000000000
0000000000000000
0000000000000000
ENDCHAR
STARTCHAR U+00C2
ENCODING 194
SWIDTH 1000 0
DWIDTH 36 0
BBX 62 80 -13 -16
BITMAP
000000003FFFC000
000000003FFFC000
000000003FFFC000
000000007FFF8000
000000007FFF8000
000000007FFF8000
00000000FFFF0000
00000000FFFF0000
0000000FF00FF000
0000001FE01FE000
0000001FE01FE000
0000001FE01FE000
0000003FC03FC000
0000003FC03FC000
0000003FC05FC000
0000007F407F8000
000000007F800000
000000007F800000
00000000FF000000
00000000FF000000
00000000FF000000
00000001FE000000
00000001FE000000
00000001FE000000
0000003FFFC00000
0000003FFFC00000
0000003FFFC00000
0000007FFF800000
0000007FFF800000
0000007FFF800000
000000FFFF000000
000000FFFF000000
00000FF00FF00000
00001FE01FE00000
00001FE01FE00000
00001FE01FE00000
00003FC03FC00000
00003FC03FC00000
00003FC03FC00000
00007F807F800000
0007FFFFFFF80000
0007FFFFFFF80000
000FFFFFFFF00000
000FFFFFFFF00000
000FFFFFFFF00000
001FFFFFFFE00000
001FFFFFFFE00000
001FFFFFFFE00000
003FC0003FC00000
003FC0003FC00000
003FC0003FC00000
007F80007F800000
007F80007F800000
007F80007F800000
00FF0000FF000000
00FF0000FF000000
00FF0000FF000000
01FE0001FE000000
01FE0001FE000000
01FE0001FE000000
03FC0003FC000000
03FC0003FC000000
03FC0003FC000000
07F80007F8000000
0000000000000000
0000000000000000
0000000000000000
0000000000000000
0000000000000000
0000000000000000
0000000000000000
0000000000000000
0000000000000000
0000000000000000
0000000000000000
0000000000000000
0000000000000000
0000000000000000
0000000000000000
0000000000000000
ENDCHAR
STARTCHAR U+00C1
ENCODING 193
SWIDTH 1000 0
DWIDTH 36 0
BBX 62 80 -13 -16
BITMAP
0000000003FFC000
0000000003FFC000
0000000003FFC000
0000000007FF8000
0000000007FF8000
0000000007FF8000
000000000FFF0000
000000000FFF0000
0000000FFF000000
0000001FFE000000
0000001FFE000000
0000001FFE000000
0000003FFC000000
0000003FFC000000
0000003FFC000000
0000007FF8000000
000000007F800000
000000007F800000
00000000FF000000
00000000FF000000
00000000FF000000
00000001FE000000
00000001FE000000
00000001FE000000
0000003FFFC00000
0000003FFFC00000
0000003FFFC00000
0000007FFF800000
0000007FFF800000
0000007FFF800000
000000FFFF000000
000000FFFF000000
00000FF00FF00000
00001FE01FE00000
00001FE01FE00000
00001FE01FE00000
00003FC03FC00000
00003FC03FC00000
00003FC03FC00000
00007F807F800000
0007FFFFFFF80000
0007FFFFFFF80000
000FFFFFFFF00000
000FFFFFFFF00000
000FFFFFFFF00000
001FFFFFFFE00000
001FFFFFFFE00000
001FFFFFFFE00000
003FC0003FC00000
003FC0003FC00000
003FC0003FC00000
007F80007F800000
007F80007F800000
007F80007F800000
00FF0000FF000000
00FF0000FF000000
00FF0000FF000000
01FE0001FE000000
01FE0001FE000000
01FE0001FE000000
03FC0003FC000000
03FC0003FC000000
03FC0003FC000000
07F80007F8000000
0000000000000000
0000000000000000
0000000000000000
0000000000000000
0000000000000000
0000000000000000
0000000000000000
0000000000000000
0000000000000000
0000000000000000
0000000000000000
0000000000000000
0000000000000000
0000000000000000
0000000000000000
0000000000000000
ENDCHAR
STARTCHAR U+00C0
ENCODING 192
SWIDTH 1000 0
DWIDTH 36 0
BBX 62 80 -13 -16
BITMAP
000000003FFC0000
000000003FFC0000
000000003FFC0000
000000007FF80000
000000007FF80000
000000007FF80000
00000000FFF00000
00000000FFF00000
0000000000FFF000
0000000001FFE000
0000000001FFE000
0000000001FFE000
0000000003FFC000
0000000003FFC000
0000000003FFC000
0000000007FF8000
000000007F800000
000000007F800000
00000000FF000000
00000000FF000000
00000000FF000000
00000001FE000000
00000001FE000000
00000001FE000000
0000003FFFC00000
0000003FFFC00000
0000003FFFC00000
0000007FFF800000
0000007FFF800000
0000007FFF800000
000000FFFF000000
000000FFFF000000
00000FF00FF00000
00001FE01FE00000
00001FE01FE00000
00001FE01FE00000
00003FC03FC00000
00003FC03FC00000
00003FC03FC00000
00007F807F800000
0007FFFFFFF80000
0007FFFFFFF80000
000FFFFFFFF00000
000FFFFFFFF00000
000FFFFFFFF00000
001FFFFFFFE00000
001FFFFFFFE00000
001FFFFFFFE00000
003FC0003FC00000
003FC0003FC00000
003FC0003FC00000
007F80007F800000
007F80007F800000
007F80007F800000
00FF0000FF000000
00FF0000FF000000
00FF0000FF000000
01FE0001FE000000
01FE0001FE000000
01FE0001FE000000
03FC0003FC000000
03FC0003FC000000
03FC0003FC000000
07F80007F8000000
0000000000000000
0000000000000000
0000000000000000
0000000000000000
0000000000000000
0000000000000000
0000000000000000
0000000000000000
0000000000000000
0000000000000000
0000000000000000
0000000000000000
0000000000000000
0000000000000000
0000000000000000
0000000000000000
ENDCHAR
STARTCHAR U+00BF
ENCODING 191
SWIDTH 1000 0
DWIDTH 36 0
BBX 62 80 -13 -16
BITMAP
0000000000000000
0000000000000000
0000000000000000
0000000000000000
0000000000000000
0000000000000000
0000000000000000
0000000000000000
000000000FF00000
000000001FE00000
000000001FE00000
000000001FE00000
000000003FC00000
000000003FC00000
000000003FC00000
000000007F800000
0000000000000000
0000000000000000
0000000000000000
0000000000000000
0000000000000000
0000000000000000
0000000000000000
0000000000000000
00000003FC000000
00000003FC000000
00000003FC000000
00000007F8000000
00000007F8000000
00000007F8000000
0000000FF0000000
0000000FF0000000
0000000FF0000000
0000001FE0000000
0000001FE0000000
0000001FE0000000
0000003FC0000000
0000003FC0000000
0000003FC0000000
0000007F80000000
00007FF800000000
00007FF800000000
0000FFF000000000
0000FFF000000000
0000FFF000000000
0001FFE000000000
0001FFE000000000
0001FFE000000000
003FC0003FC00000
003FC0003FC00000
003FC0003FC00000
007F80007F800000
007F80007F800000
007F80007F800000
00FF0000FF000000
00FF0000FF000000
000FFFFFF0000000
001FFFFFE0000000
001FFFFFE0000000
001FFFFFE0000000
003FFFFFC0000000
003FFFFFC0000000
003FFFFFC0000000
007FFFFF80000000
0000000000000000
0000000000000000
0000000000000000
0000000000000000
0000000000000000
0000000000000000
0000000000000000
0000000000000000
0000000000000000
0000000000000000
0000000000000000
0000000000000000
0000000000000000
0000000000000000
0000000000000000
0000000000000000
ENDCHAR
STARTCHAR U+00BE
ENCODING 190
SWIDTH 1000 0
DWIDTH 36 0
BBX 62 80 -13 -16
BITMAP
0000003FFFFC0000
0000003FFFFC0000
0000003FFFFC0000
0000007FFFF80000
0000007FFFF80000
0000007FFFF80000
000000FFFFF00000
000000FFFFF00000
000000000FF00000
000000001FE00000
000000001FE00000
000000001FE00000
000000003FC00000
000000003FC00000
000000003FC00000
000000007F400000
0000007FF87F8000
0000007FF87F8000
000000FFF0FF0000
000000FFF0FF0000
000000FFF0FF0000
000001FFE1FE0000
000001FFE1FE0000
000001FFE1FE0000
00000003FFC00000
00000003FFC00000
00000003FFC00000
00000007FF800000
00000007FF800000
00000007FF800000
0000000FFF000000
0000000FFF000000
0000FFFFF0000000
0001FFFFE0000000
0001FFFFE0000000
0001FFFFE0000000
0003FFFFC0000000
0003FFFFC0000000
0003FFFFC0000000
0007FFFF40000000
000007F87F800000
000007F87F800000
00000FF0FF000000
00000FF0FF000000
00000FF0FF000000
00001FE1FE000000
00001FE1FE000000
00001FE1FE000000
0003FC3FFC000000
0003FC3FFC000000
0003FC3FFC000000
0007F87FF8000000
0007F87FF8000000
0007F87FF8000000
000FF0FFF0000000
000FF0FFF0000000
00FF17FFF0000000
01FE1FFFE0000000
01FE1FFFE0000000
01FE1FFFE0000000
03FC3FFFC0000000
03FC3FFFC0000000
03FC3FFFC0000000
07F47FFF80000000
0007FFFFF8000000
0007FFFFF8000000
000FFFFFF0000000
000FFFFFF0000000
000FFFFFF0000000
001FFFFFE0000000
001FFFFFE0000000
001FFFFFE0000000
000003FC00000000
000003FC00000000
000003FC00000000
000007F800000000
000007F800000000
000007F800000000
00000FF000000000
00000FF000000000
ENDCHAR
STARTCHAR U+00BD
ENCODING 189
SWIDTH 1000 0
DWIDTH 36 0
BBX 62 80 -13 -16
BITMAP
0000000000000000
0000000000000000
0000000000000000
0000000000000000
0000000000000000
0000000000000000
0000000000000000
0000000000000000
0000000FF0000000
0000001FE0000000
0000001FE0000000
0000001FE0000000
0000003FC0000000
0000003FC0000000
0000003FC0000000
0000007F80000000
000007FF807F8000
000007FF807F8000
00000FFF00FF0000
00000FFF00FF0000
00000FFF00FF0000
00001FFE01FE0000
00001FFE01FE0000
00001FFE01FE0000
000003FC3FC00000
000003FC3FC00000
000003FC3FC00000
000007F87F800000
000007F87F800000
000007F87F800000
00000FF0FF000000
00000FF0FF000000
00000FFFF0000000
00001FFFE0000000
00001FFFE0000000
00001FFFE0000000
00003FFFC0000000
00003FFFC0000000
00003FFFC0000000
00007FFF80000000
000007FFFF800000
000007FFFF800000
00000FFFFF000000
00000FFFFF000000
00000FFFFF000000
00001FFFFE000000
00001FFFFE000000
00001FFFFE000000
0003FFFC3FC00000
0003FFFC3FC00000
0003FFFC3FC00000
0007FFF87F800000
0007FFF87F800000
0007FFF87F800000
000FFFF0FF000000
000FFFF0FF000000
00FF0017F0000000
01FE001FE0000000
01FE001FE0000000
01FE001FE0000000
03FC003FC0000000
03FC003FC0000000
03FC003FC0000000
07F8007F80000000
000007F800000000
000007F800000000
00000FF000000000
00000FF000000000
00000FF000000000
00001FE000000000
00001FE000000000
00001FE000000000
0003FFFFC0000000
0003FFFFC0000000
0003FFFFC0000000
0007FFFF80000000
0007FFFF80000000
0007FFFF80000000
000FFFFF00000000
000FFFFF00000000
ENDCHAR
STARTCHAR U+00BC
ENCODING 188
SWIDTH 1000 0
DWIDTH 36 0
BBX 62 80 -13 -16
BITMAP
0000000000000000
0000000000000000
0000000000000000
0000000000000000
0000000000000000
0000000000000000
0000000000000000
0000000000000000
0000000FF0000000
0000001FE0000000
0000001FE0000000
0000001FE0000000
0000003FC0000000
0000003FC0000000
0000003FC0000000
0000007F80000000
000007FF807F8000
000007FF807F8000
00000FFF00FF0000
00000FFF00FF0000
00000FFF00FF0000
00001FFE01FE0000
00001FFE01FE0000
00001FFE01FE0000
000003FC3FC00000
000003FC3FC00000
000003FC3FC00000
000007F87F800000
000007F87F800000
000007F87F800000
00000FF0FF000000
00000FF0FF000000
00000FFFF0000000
00001FFFE0000000
00001FFFE0000000
00001FFFE0000000
00003FFFC0000000
00003FFFC0000000
00003FFFC0000000
00007FFF40000000
000007F87F800000
000007F87F800000
00000FF0FF000000
00000FF0FF000000
00000FF0FF000000
00001FE1FE000000
00001FE1FE000000
00001FE1FE000000
0003FC3FFC000000
0003FC3FFC000000
0003FC3FFC000000
0007F87FF8000000
0007F87FF8000000
0007F87FF8000000
000FF0FFF0000000
000FF0FFF0000000
00FF17FFF0000000
01FE1FFFE0000000
01FE1FFFE0000000
01FE1FFFE0000000
03FC3FFFC0000000
03FC3FFFC0000000
03FC3FFFC0000000
07F47FFF80000000
0007FFFFF8000000
0007FFFFF8000000
000FFFFFF0000000
000FFFFFF0000000
000FFFFFF0000000
001FFFFFE0000000
001FFFFFE0000000
001FFFFFE0000000
000003FC00000000
000003FC00000000
000003FC00000000
000007F800000000
000007F800000000
000007F800000000
00000FF000000000
00000FF000000000
ENDCHAR
STARTCHAR U+00BB
ENCODING 187
SWIDTH 1000 0
DWIDTH 36 0
BBX 62 80 -13 -16
BITMAP
0000000000000000
0000000000000000
0000000000000000
0000000000000000
0000000000000000
0000000000000000
0000000000000000
0000000000000000
000000FF0FF00000
000001FE1FE00000
000001FE1FE00000
000001FE1FE00000
000003FC3FC00000
000003FC3FC00000
000003FC5FC00000
000007F87F800000
0000007F87F80000
0000007F87F80000
000000FF0FF00000
000000FF0FF00000
000000FF0FF00000
000001FE1FE00000
000001FE1FE00000
000001FE3FE00000
0000003FC3FC0000
0000003FC3FC0000
0000003FC3FC0000
0000007F87F80000
0000007F87F80000
0000007F87F80000
000000FF0FF00000
000000FF0FF00000
0000000FF0FF0000
0000001FE1FE0000
0000001FE1FE0000
0000001FE1FE0000
0000003FC3FC0000
0000003FC3FC0000
0000003FC3FC0000
0000007F47F80000
000007F87F800000
000007F87F800000
00000FF0FF000000
00000FF0FF000000
00000FF0FF000000
00001FE1FE000000
00001FE1FE000000
00001FE1FE000000
0003FC3FC0000000
0003FC3FC0000000
0003FC3FC0000000
0007F87F80000000
0007F87F80000000
0007F87F80000000
000FF0FF00000000
000FF0FF00000000
00FF17F000000000
01FE1FE000000000
01FE1FE000000000
01FE1FE000000000
03FC3FC000000000
03FC3FC000000000
03FC3FC000000000
07F87F8000000000
0000000000000000
0000000000000000
0000000000000000
0000000000000000
0000000000000000
0000000000000000
0000000000000000
0000000000000000
0000000000000000
0000000000000000
0000000000000000
0000000000000000
0000000000000000
0000000000000000
0000000000000000
0000000000000000
ENDCHAR
STARTCHAR U+00BA
ENCODING 186
SWIDTH 1000 0
DWIDTH 36 0
BBX 62 80 -13 -16
BITMAP
0000000000000000
0000000000000000
0000000000000000
0000000000000000
0000000000000000
0000000000000000
0000000000000000
0000000000000000
0000000FFFFFF000
0000001FFFFFE000
0000001FFFFFE000
0000001FFFFFE000
0000003FFFFFC000
0000003FFFFFC000
0000003FFFFFC000
0000007FFFFF8000
000007F80007F800
000007F80007F800
00000FF0000FF000
00000FF0000FF000
00000FF0000FF000
00001FE0001FE000
00001FE0001FE000
00001FE0001FE000
00003FC0003FC000
00003FC0003FC000
00003FC0003FC000
00007F80007F8000
00007F80007F8000
00007F80007F8000
0000FF0000FF0000
0000FF0000FF0000
0000FF0000FF0000
0001FE0001FE0000
0001FE0001FE0000
0001FE0001FE0000
0003FC0003FC0000
0003FC0003FC0000
0003FC0003FC0000
0007F80007F80000
00007FFFFF800000
00007FFFFF800000
0000FFFFFF000000
0000FFFFFF000000
0000FFFFFF000000
0001FFFFFE000000
0001FFFFFE000000
0001FFFFFE000000
0000000000000000
0000000000000000
0000000000000000
0000000000000000
0000000000000000
0000000000000000
0000000000000000
0000000000000000
00FFFFFFFF000000
01FFFFFFFE000000
01FFFFFFFE000000
01FFFFFFFE000000
03FFFFFFFC000000
03FFFFFFFC000000
03FFFFFFFC000000
07FFFFFFF8000000
0000000000000000
0000000000000000
0000000000000000
0000000000000000
0000000000000000
0000000000000000
0000000000000000
0000000000000000
0000000000000000
0000000000000000
0000000000000000
0000000000000000
0000000000000000
0000000000000000
0000000000000000
0000000000000000
ENDCHAR
STARTCHAR U+00B9
ENCODING 185
SWIDTH 1000 0
DWIDTH 36 0
BBX 62 80 -13 -16
BITMAP
0000000003FC0000
0000000003FC0000
0000000003FC0000
0000000007F80000
0000000007F80000
0000000007F80000
000000000FF00000
000000000FF00000
00000000FFF00000
00000001FFE00000
00000001FFE00000
00000001FFE00000
00000003FFC00000
00000003FFC00000
00000003FFC00000
00000007FF800000
000000007F800000
000000007F800000
00000000FF000000
00000000FF000000
00000000FF000000
00000001FE000000
00000001FE000000
00000001FE000000
00000003FC000000
00000003FC000000
00000003FC000000
00000007F8000000
00000007F8000000
00000007F8000000
0000000FF0000000
0000000FF0000000
000000FFFF000000
000001FFFE000000
000001FFFE000000
000001FFFE000000
000003FFFC000000
000003FFFC000000
000003FFFC000000
000007FFF8000000
0000000000000000
0000000000000000
0000000000000000
0000000000000000
0000000000000000
0000000000000000
0000000000000000
0000000000000000
0000000000000000
0000000000000000
0000000000000000
0000000000000000
0000000000000000
0000000000000000
0000000000000000
0000000000000000
0000000000000000
0000000000000000
0000000000000000
0000000000000000
0000000000000000
0000000000000000
0000000000000000
0000000000000000
0000000000000000
0000000000000000
0000000000000000
0000000000000000
0000000000000000
0000000000000000
0000000000000000
0000000000000000
0000000000000000
0000000000000000
0000000000000000
0000000000000000
0000000000000000
0000000000000000
0000000000000000
0000000000000000
ENDCHAR
STARTCHAR U+00B8
ENCODING 184
SWIDTH 1000 0
DWIDTH 36 0
BBX 62 80 -13 -16
BITMAP
0000000000000000
0000000000000000
0000000000000000
0000000000000000
0000000000000000
0000000000000000
0000000000000000
0000000000000000
0000000000000000
0000000000000000
0000000000000000
0000000000000000
0000000000000000
0000000000000000
0000000000000000
0000000000000000
0000000000000000
0000000000000000
0000000000000000
0000000000000000
0000000000000000
0000000000000000
0000000000000000
0000000000000000
0000000000000000
0000000000000000
0000000000000000
0000000000000000
0000000000000000
0000000000000000
0000000000000000
0000000000000000
0000000000000000
0000000000000000
0000000000000000
0000000000000000
0000000000000000
0000000000000000
0000000000000000
0000000000000000
0000000000000000
0000000000000000
0000000000000000
0000000000000000
0000000000000000
0000000000000000
0000000000000000
0000000000000000
0000000000000000
0000000000000000
0000000000000000
0000000000000000
0000000000000000
0000000000000000
0000000000000000
0000000000000000
0000000000000000
0000000000000000
0000000000000000
0000000000000000
0000000000000000
0000000000000000
0000000000000000
0000000000000000
000007F800000000
000007F800000000
00000FF000000000
00000FF000000000
00000FF000000000
00001FE000000000
00001FE000000000
00001FE000000000
003FFFC000000000
003FFFC000000000
003FFFC000000000
007FFF8000000000
007FFF8000000000
007FFF8000000000
00FFFF0000000000
00FFFF0000000000
ENDCHAR
STARTCHAR U+2022
ENCODING 8226
SWIDTH 1000 0
DWIDTH 36 0
BBX 62 80 -13 -16
BITMAP
0000000000000000
0000000000000000
0000000000000000
0000000000000000
0000000000000000
0000000000000000
0000000000000000
0000000000000000
0000000000000000
0000000000000000
0000000000000000
0000000000000000
0000000000000000
0000000000000000
0000000000000000
0000000000000000
0000000000000000
0000000000000000
0000000000000000
0000000000000000
0000000000000000
0000000000000000
0000000000000000
0000000000000000
0000003FFC000000
0000003FFC000000
0000003FFC000000
0000007FF8000000
0000007FF8000000
0000007FF8000000
000000FFF0000000
000000FFF0000000
000000FFF0000000
000001FFE0000000
000001FFE0000000
000001FFE0000000
000003FFC0000000
000003FFC0000000
000003FFC0000000
000007FF80000000
0000000000000000
0000000000000000
0000000000000000
0000000000000000
0000000000000000
0000000000000000
0000000000000000
0000000000000000
0000000000000000
0000000000000000
0000000000000000
0000000000000000
0000000000000000
0000000000000000
0000000000000000
0000000000000000
0000000000000000
0000000000000000
0000000000000000
0000000000000000
0000000000000000
0000000000000000
0000000000000000
0000000000000000
0000000000000000
0000000000000000
0000000000000000
0000000000000000
0000000000000000
0000000000000000
0000000000000000
0000000000000000
0000000000000000
0000000000000000
0000000000000000
0000000000000000
0000000000000000
0000000000000000
0000000000000000
0000000000000000
ENDCHAR
STARTCHAR U+00B6
ENCODING 182
SWIDTH 1000 0
DWIDTH 36 0
BBX 62 80 -13 -16
BITMAP
0000000000000000
0000000000000000
0000000000000000
0000000000000000
0000000000000000
0000000000000000
0000000000000000
0000000000000000
0000000FFFFFFF00
0000001FFFFFFE00
0000001FFFFFFE00
0000001FFFFFFE00
0000003FFFFFFC00
0000003FFFFFFC00
0000003FFFFFFC00
0000007FFFFFF800
000007FF87FFF800
000007FF87FFF800
00000FFF0FFFF000
00000FFF0FFFF000
00000FFF0FFFF000
00001FFE1FFFE000
00001FFE1FFFE000
00001FFE1FFFE000
00003FFC3FFFC000
00003FFC3FFFC000
00003FFC3FFFC000
00007FF87FFF8000
00007FF87FFF8000
00007FF87FFF8000
0000FFF0FFFF0000
0000FFF0FFFF0000
00000FFFFFFF0000
00001FFFFFFE0000
00001FFFFFFE0000
00001FFFFFFE0000
00003FFFFFFC0000
00003FFFFFFC0000
00003FFFFFFC0000
00007FFFFFF80000
00000007FFF80000
00000007FFF80000
0000000FFFF00000
0000000FFFF00000
0000000FFFF00000
0000001FFFE00000
0000001FFFE00000
0000001FFFE00000
0000003FFFC00000
0000003FFFC00000
0000003FFFC00000
0000007FFF800000
0000007FFF800000
0000007FFF800000
000000FFFF000000
000000FFFF000000
000000FFFF000000
000001FFFE000000
000001FFFE000000
000001FFFE000000
000003FFFC000000
000003FFFC000000
000003FFFC000000
000007FFF8000000
0000000000000000
0000000000000000
0000000000000000
0000000000000000
0000000000000000
0000000000000000
0000000000000000
0000000000000000
0000000000000000
0000000000000000
0000000000000000
0000000000000000
0000000000000000
0000000000000000
0000000000000000
0000000000000000
ENDCHAR
STARTCHAR U+00B5
ENCODING 181
SWIDTH 1000 0
DWIDTH 36 0
BBX 62 80 -13 -16
BITMAP
0000000000000000
0000000000000000
0000000000000000
0000000000000000
0000000000000000
0000000000000000
0000000000000000
0000000000000000
0000000000000000
0000000000000000
0000000000000000
0000000000000000
0000000000000000
0000000000000000
0000000000000000
0000000000000000
0000000000000000
0000000000000000
0000000000000000
0000000000000000
0000000000000000
0000000000000000
0000000000000000
0000000000000000
000003FC003FC000
000003FC003FC000
000003FC003FC000
000007F8007F8000
000007F8007F8000
000007F8007F8000
00000FF000FF0000
00000FF000FF0000
00000FF000FF0000
00001FE001FE0000
00001FE001FE0000
00001FE001FE0000
00003FC003FC0000
00003FC003FC0000
00003FC003FC0000
00007F8007F80000
00007F8007F80000
00007F8007F80000
0000FF000FF00000
0000FF000FF00000
0000FF000FF00000
0001FE001FE00000
0001FE001FE00000
0001FE001FE00000
0003FFC3FFC00000
0003FFC3FFC00000
0003FFC3FFC00000
0007FF87FF800000
0007FF87FF800000
0007FF87FF800000
000FFF0FFF000000
000FFF0FFF000000
000FFFFFFF000000
001FFFFFFE000000
001FFFFFFE000000
001FFFFFFE000000
003FFFFFFC000000
003FFFFFFC000000
003FFFFFFC000000
007FFFFFF8000000
007F800000000000
007F800000000000
00FF000000000000
00FF000000000000
00FF000000000000
01FE000000000000
01FE000000000000
01FE000000000000
3FC0000000000000
3FC0000000000000
3FC0000000000000
7F80000000000000
7F80000000000000
7F80000000000000
FF00000000000000
FF00000000000000
ENDCHAR
STARTCHAR U+00B4
ENCODING 180
SWIDTH 1000 0
DWIDTH 36 0
BBX 62 80 -13 -16
BITMAP
0000000000000000
0000000000000000
0000000000000000
0000000000000000
0000000000000000
0000000000000000
0000000000000000
0000000000000000
0000000000FFF000
0000000001FFE000
0000000001FFE000
0000000001FFE000
0000000003FFC000
0000000003FFC000
0000000003FFC000
0000000007FF8000
0000000007F80000
0000000007F80000
000000000FF00000
000000000FF00000
000000000FF00000
000000001FE00000
000000001FE00000
000000001FE00000
00000003FC000000
00000003FC000000
00000003FC000000
00000007F8000000
00000007F8000000
00000007F8000000
0000000FF0000000
0000000FF0000000
0000000000000000
0000000000000000
0000000000000000
0000000000000000
0000000000000000
0000000000000000
0000000000000000
0000000000000000
0000000000000000
0000000000000000
0000000000000000
0000000000000000
0000000000000000
0000000000000000
0000000000000000
0000000000000000
0000000000000000
0000000000000000
0000000000000000
0000000000000000
0000000000000000
0000000000000000
0000000000000000
0000000000000000
0000000000000000
0000000000000000
0000000000000000
0000000000000000
0000000000000000
0000000000000000
0000000000000000
0000000000000000
0000000000000000
0000000000000000
0000000000000000
0000000000000000
0000000000000000
0000000000000000
0000000000000000
0000000000000000
0000000000000000
0000000000000000
0000000000000000
0000000000000000
0000000000000000
0000000000000000
0000000000000000
0000000000000000
ENDCHAR
STARTCHAR U+00B3
ENCODING 179
SWIDTH 1000 0
DWIDTH 36 0
BBX 62 80 -13 -16
BITMAP
00000003FFFFFC00
00000003FFFFFC00
00000003FFFFFC00
00000007FFFFF800
00000007FFFFF800
00000007FFFFF800
0000000FFFFFF000
0000000FFFFFF000
00000000000FF000
00000000001FE000
00000000001FE000
00000000001FE000
00000000003FC000
00000000003FC000
00000000003FC000
00000000007F8000
000000007FF80000
000000007FF80000
00000000FFF00000
00000000FFF00000
00000000FFF00000
00000001FFE00000
00000001FFE00000
00000001FFE00000
0000000003FC0000
0000000003FC0000
0000000003FC0000
0000000007F80000
0000000007F80000
0000000007F80000
000000000FF00000
000000000FF00000
00000FFFFF000000
00001FFFFE000000
00001FFFFE000000
00001FFFFE000000
00003FFFFC000000
00003FFFFC000000
00003FFFFC000000
00007FFFF8000000
0000000000000000
0000000000000000
0000000000000000
0000000000000000
0000000000000000
0000000000000000
0000000000000000
0000000000000000
0000000000000000
0000000000000000
0000000000000000
0000000000000000
0000000000000000
0000000000000000
0000000000000000
0000000000000000
0000000000000000
0000000000000000
0000000000000000
0000000000000000
0000000000000000
0000000000000000
0000000000000000
0000000000000000
0000000000000000
0000000000000000
0000000000000000
0000000000000000
0000000000000000
0000000000000000
0000000000000000
0000000000000000
0000000000000000
0000000000000000
0000000000000000
0000000000000000
0000000000000000
0000000000000000
0000000000000000
0000000000000000
ENDCHAR
STARTCHAR U+00B2
ENCODING 178
SWIDTH 1000 0
DWIDTH 36 0
BBX 62 80 -13 -16
BITMAP
000000003FFFC000
000000003FFFC000
000000003FFFC000
000000007FFF8000
000000007FFF8000
000000007FFF8000
00000000FFFF0000
00000000FFFF0000
0000000FF00FF000
0000001FE01FE000
0000001FE01FE000
0000001FE01FE000
0000003FC03FC000
0000003FC03FC000
0000003FC03FC000
0000007F407F8000
000000007FF80000
000000007FF80000
00000000FFF00000
00000000FFF00000
00000000FFF00000
00000001FFE00000
00000001FFE00000
00000001FFE00000
0000003FC0000000
0000003FC0000000
0000003FC0000000
0000007F80000000
0000007F80000000
0000007F80000000
000000FF00000000
000000FF00000000
00000FFFFFF00000
00001FFFFFE00000
00001FFFFFE00000
00001FFFFFE00000
00003FFFFFC00000
00003FFFFFC00000
00003FFFFFC00000
00007FFFFF800000
0000000000000000
0000000000000000
0000000000000000
0000000000000000
0000000000000000
0000000000000000
0000000000000000
0000000000000000
0000000000000000
0000000000000000
0000000000000000
0000000000000000
0000000000000000
0000000000000000
0000000000000000
0000000000000000
0000000000000000
0000000000000000
0000000000000000
0000000000000000
0000000000000000
0000000000000000
0000000000000000
0000000000000000
0000000000000000
0000000000000000
0000000000000000
0000000000000000
0000000000000000
0000000000000000
0000000000000000
0000000000000000
0000000000000000
0000000000000000
0000000000000000
0000000000000000
0000000000000000
0000000000000000
0000000000000000
0000000000000000
ENDCHAR
STARTCHAR U+00AF
ENCODING 175
SWIDTH 1000 0
DWIDTH 36 0
BBX 62 80 -13 -16
BITMAP
00000003FFFFFC00
00000003FFFFFC00
00000003FFFFFC00
00000007FFFFF800
00000007FFFFF800
00000007FFFFF800
0000000FFFFFF000
0000000FFFFFF000
0000000000000000
0000000000000000
0000000000000000
0000000000000000
0000000000000000
0000000000000000
0000000000000000
0000000000000000
0000000000000000
0000000000000000
0000000000000000
0000000000000000
0000000000000000
0000000000000000
0000000000000000
0000000000000000
0000000000000000
0000000000000000
0000000000000000
0000000000000000
0000000000000000
0000000000000000
0000000000000000
0000000000000000
0000000000000000
0000000000000000
0000000000000000
0000000000000000
0000000000000000
0000000000000000
0000000000000000
0000000000000000
0000000000000000
0000000000000000
0000000000000000
0000000000000000
0000000000000000
0000000000000000
0000000000000000
0000000000000000
0000000000000000
0000000000000000
0000000000000000
0000000000000000
0000000000000000
0000000000000000
0000000000000000
0000000000000000
0000000000000000
0000000000000000
0000000000000000
0000000000000000
0000000000000000
0000000000000000
0000000000000000
0000000000000000
0000000000000000
0000000000000000
0000000000000000
0000000000000000
0000000000000000
0000000000000000
0000000000000000
0000000000000000
0000000000000000
0000000000000000
0000000000000000
0000000000000000
0000000000000000
0000000000000000
0000000000000000
0000000000000000
ENDCHAR
STARTCHAR U+00AE
ENCODING 174
SWIDTH 1000 0
DWIDTH 36 0
BBX 62 80 -13 -16
BITMAP
0000000000000000
0000000000000000
0000000000000000
0000000000000000
0000000000000000
0000000000000000
0000000000000000
0000000000000000
00000000FFFF0000
00000001FFFE0000
00000001FFFE0000
00000001FFFE0000
00000003FFFC0000
00000003FFFC0000
00000003FFFC0000
00000007FFF80000
0000007F807F8000
0000007F807F8000
000000FF00FF0000
000000FF00FF0000
000000FF00FF0000
000001FE01FE0000
000001FE01FE0000
000001FE01FE0000
00003FFFFFFFC000
00003FFFFFFFC000
00003FFFFFFFC000
00007FFFFFFF8000
00007FFFFFFF8000
00007FFFFFFF8000
0000FFFFFFFF0000
0000FFFFFFFF0000
0000FFFF0FFF0000
0001FFFE1FFE0000
0001FFFE1FFE0000
0001FFFE1FFE0000
0003FFFC3FFC0000
0003FFFC3FFC0000
0003FFFC3FFC0000
0007FFF87FF80000
0007FFFFFFF80000
0007FFFFFFF80000
000FFFFFFFF00000
000FFFFFFFF00000
000FFFFFFFF00000
001FFFFFFFE00000
001FFFFFFFE00000
001FFFFFFFE00000
003FFFFC3FC00000
003FFFFC3FC00000
003FFFFC3FC00000
007FFFF87F800000
007FFFF87F800000
007FFFF87F800000
00FFFFF0FF000000
00FFFFF0FF000000
000FFFFFF0000000
001FFFFFE0000000
001FFFFFE0000000
001FFFFFE0000000
003FFFFFC0000000
003FFFFFC0000000
003FFFFFC0000000
007FFFFF80000000
0007FFF800000000
0007FFF800000000
000FFFF000000000
000FFFF000000000
000FFFF000000000
001FFFE000000000
001FFFE000000000
001FFFE000000000
0000000000000000
0000000000000000
0000000000000000
0000000000000000
0000000000000000
0000000000000000
0000000000000000
0000000000000000
ENDCHAR
STARTCHAR U+00D7
ENCODING 215
SWIDTH 1000 0
DWIDTH 36 0
BBX 62 80 -13 -16
BITMAP
0000000000000000
0000000000000000
0000000000000000
0000000000000000
0000000000000000
0000000000000000
0000000000000000
0000000000000000
0000000000000000
0000000000000000
0000000000000000
0000000000000000
0000000000000000
0000000000000000
0000000000000000
0000000000000000
0000007F807F8000
0000007F807F8000
000000FF00FF0000
000000FF00FF0000
000000FF00FF0000
000001FE01FE0000
000001FE01FE0000
000001FE01FE0000
0000003FFFC00000
0000003FFFC00000
0000003FFFC00000
0000007FFF800000
0000007FFF800000
0000007FFF800000
000000FFFF000000
000000FFFF000000
0000000FF0000000
0000001FE0000000
0000001FE0000000
0000001FE0000000
0000003FC0000000
0000003FC0000000
0000003FC0000000
0000007F80000000
000007FFF8000000
000007FFF8000000
00000FFFF0000000
00000FFFF0000000
00000FFFF0000000
00001FFFE0000000
00001FFFE0000000
00001FFFE0000000
0003FC03FC000000
0003FC03FC000000
0003FC03FC000000
0007F807F8000000
0007F807F8000000
0007F807F8000000
000FF00FF0000000
000FF00FF0000000
0000000000000000
0000000000000000
0000000000000000
0000000000000000
0000000000000000
0000000000000000
0000000000000000
0000000000000000
0000000000000000
0000000000000000
0000000000000000
0000000000000000
0000000000000000
0000000000000000
0000000000000000
0000000000000000
0000000000000000
0000000000000000
0000000000000000
0000000000000000
0000000000000000
0000000000000000
0000000000000000
0000000000000000
ENDCHAR
STARTCHAR U+00AC
ENCODING 172
SWIDTH 1000 0
DWIDTH 36 0
BBX 62 80 -13 -16
BITMAP
0000000000000000
0000000000000000
0000000000000000
0000000000000000
0000000000000000
0000000000000000
0000000000000000
0000000000000000
0000000000000000
0000000000000000
0000000000000000
0000000000000000
0000000000000000
0000000000000000
0000000000000000
0000000000000000
0000000000000000
0000000000000000
0000000000000000
0000000000000000
0000000000000000
0000000000000000
0000000000000000
0000000000000000
0000000000000000
0000000000000000
0000000000000000
0000000000000000
0000000000000000
0000000000000000
0000000000000000
0000000000000000
0000000000000000
0000000000000000
0000000000000000
0000000000000000
0000000000000000
0000000000000000
0000000000000000
0000000000000000
0007FFFFFFF80000
0007FFFFFFF80000
000FFFFFFFF00000
000FFFFFFFF00000
000FFFFFFFF00000
001FFFFFFFE00000
001FFFFFFFE00000
001FFFFFFFE00000
000000003FC00000
000000003FC00000
000000003FC00000
000000007F800000
000000007F800000
000000007F800000
00000000FF000000
00000000FF000000
00000000FF000000
00000001FE000000
00000001FE000000
00000001FE000000
00000003FC000000
00000003FC000000
00000003FC000000
00000007F8000000
0000000000000000
0000000000000000
0000000000000000
0000000000000000
0000000000000000
0000000000000000
0000000000000000
0000000000000000
0000000000000000
0000000000000000
0000000000000000
0000000000000000
0000000000000000
0000000000000000
0000000000000000
0000000000000000
ENDCHAR
STARTCHAR U+00AB
ENCODING 171
SWIDTH 1000 0
DWIDTH 36 0
BBX 62 80 -13 -16
BITMAP
0000000000000000
0000000000000000
0000000000000000
0000000000000000
0000000000000000
0000000000000000
0000000000000000
0000000000000000
000000000FF0FF00
000000001FE1FE00
000000001FE1FE00
000000001FE1FE00
000000003FC3FC00
000000003FC3FC00
000000003FC3FC00
000000007F47F800
00000007F87F8000
00000007F87F8000
0000000FF0FF0000
0000000FF0FF0000
0000000FF0FF0000
0000001FE1FE0000
0000001FE1FE0000
0000001FE1FE0000
000003FC3FC00000
000003FC3FC00000
000003FC3FC00000
000007F87F800000
000007F87F800000
000007F87F800000
00000FF0FF000000
00000FF0FF000000
0000FF17F0000000
0001FE1FE0000000
0001FE1FE0000000
0001FE1FE0000000
0003FC3FC0000000
0003FC3FC0000000
0003FC5FC0000000
0007F87F80000000
00007F87F8000000
00007F87F8000000
0000FF0FF0000000
0000FF0FF0000000
0000FF0FF0000000
0001FE1FE0000000
0001FE1FE0000000
0001FE3FE0000000
00003FC3FC000000
00003FC3FC000000
00003FC3FC000000
00007F87F8000000
00007F87F8000000
00007F87F8000000
0000FF0FF0000000
0000FF0FF0000000
00000FF0FF000000
00001FE1FE000000
00001FE1FE000000
00001FE1FE000000
00003FC3FC000000
00003FC3FC000000
00003FC3FC000000
00007F87F8000000
0000000000000000
0000000000000000
0000000000000000
0000000000000000
0000000000000000
0000000000000000
0000000000000000
0000000000000000
0000000000000000
0000000000000000
0000000000000000
0000000000000000
0000000000000000
0000000000000000
0000000000000000
0000000000000000
ENDCHAR
STARTCHAR U+00AA
ENCODING 170
SWIDTH 1000 0
DWIDTH 36 0
BBX 62 80 -13 -16
BITMAP
0000000000000000
0000000000000000
0000000000000000
0000000000000000
0000000000000000
0000000000000000
0000000000000000
0000000000000000
0000000FFFFFF000
0000001FFFFFE000
0000001FFFFFE000
0000001FFFFFE000
0000003FFFFFC000
0000003FFFFFC000
0000003FFFFFC000
0000007FFFFF8000
000000000007F800
000000000007F800
00000000000FF000
00000000000FF000
00000000000FF000
00000000001FE000
00000000001FE000
00000000001FE000
000003FFFFFFC000
000003FFFFFFC000
000003FFFFFFC000
000007FFFFFF8000
000007FFFFFF8000
000007FFFFFF8000
00000FFFFFFF0000
00000FFFFFFF0000
0000FF000FFF0000
0001FE001FFE0000
0001FE001FFE0000
0001FE001FFE0000
0003FC003FFC0000
0003FC003FFC0000
0003FC003FFC0000
0007F8007FF80000
00007FFFFFF80000
00007FFFFFF80000
0000FFFFFFF00000
0000FFFFFFF00000
0000FFFFFFF00000
0001FFFFFFE00000
0001FFFFFFE00000
0001FFFFFFE00000
0000000000000000
0000000000000000
0000000000000000
0000000000000000
0000000000000000
0000000000000000
0000000000000000
0000000000000000
00FFFFFFFF000000
01FFFFFFFE000000
01FFFFFFFE000000
01FFFFFFFE000000
03FFFFFFFC000000
03FFFFFFFC000000
03FFFFFFFC000000
07FFFFFFF8000000
0000000000000000
0000000000000000
0000000000000000
0000000000000000
0000000000000000
0000000000000000
0000000000000000
0000000000000000
0000000000000000
0000000000000000
0000000000000000
0000000000000000
0000000000000000
0000000000000000
0000000000000000
0000000000000000
ENDCHAR
STARTCHAR U+00A9
ENCODING 169
SWIDTH 1000 0
DWIDTH 36 0
BBX 62 80 -13 -16
BITMAP
0000000000000000
0000000000000000
0000000000000000
0000000000000000
0000000000000000
0000000000000000
0000000000000000
0000000000000000
00000000FFFF0000
00000001FFFE0000
00000001FFFE0000
00000001FFFE0000
00000003FFFC0000
00000003FFFC0000
00000003FFFC0000
00000007FFF80000
0000007F807F8000
0000007F807F8000
000000FF00FF0000
000000FF00FF0000
000000FF00FF0000
000001FE01FE0000
000001FE01FE0000
000001FE01FE0000
00003FC3FFFFC000
00003FC3FFFFC000
00003FC3FFFFC000
00007F87FFFF8000
00007F87FFFF8000
00007F87FFFF8000
0000FF0FFFFF0000
0000FF0FFFFF0000
0000FFFF00FF0000
0001FFFE01FE0000
0001FFFE01FE0000
0001FFFE01FE0000
0003FFFC03FC0000
0003FFFC03FC0000
0003FFFC03FC0000
0007FFF807F80000
0007FFF807F80000
0007FFF807F80000
000FFFF00FF00000
000FFFF00FF00000
000FFFF00FF00000
001FFFE01FE00000
001FFFE01FE00000
001FFFE01FE00000
003FC3FFFFC00000
003FC3FFFFC00000
003FC3FFFFC00000
007F87FFFF800000
007F87FFFF800000
007F87FFFF800000
00FF0FFFFF000000
00FF0FFFFF000000
000FF00FF0000000
001FE01FE0000000
001FE01FE0000000
001FE01FE0000000
003FC03FC0000000
003FC03FC0000000
003FC03FC0000000
007F807F80000000
0007FFF800000000
0007FFF800000000
000FFFF000000000
000FFFF000000000
000FFFF000000000
001FFFE000000000
001FFFE000000000
001FFFE000000000
0000000000000000
0000000000000000
0000000000000000
0000000000000000
0000000000000000
0000000000000000
0000000000000000
0000000000000000
ENDCHAR
STARTCHAR U+00A4
ENCODING 164
SWIDTH 1000 0
DWIDTH 36 0
BBX 62 80 -13 -16
BITMAP
0000000000000000
0000000000000000
0000000000000000
0000000000000000
0000000000000000
0000000000000000
0000000000000000
0000000000000000
0000000000000000
0000000000000000
0000000000000000
0000000000000000
0000000000000000
0000000000000000
0000000000000000
0000000000000000
000007F80007F800
000007F80007F800
00000FF0000FF000
00000FF0000FF000
00000FF0000FF000
00001FE0001FE000
00001FE0001FE000
00001FE0001FE000
000003FFFFFC0000
000003FFFFFC0000
000003FFFFFC0000
000007FFFFF80000
000007FFFFF80000
000007FFFFF80000
00000FFFFFF00000
00000FFFFFF00000
00000FF00FF00000
00001FE01FE00000
00001FE01FE00000
00001FE01FE00000
00003FC03FC00000
00003FC03FC00000
00003FC03FC00000
00007F807F800000
00007FFFFF800000
00007FFFFF800000
0000FFFFFF000000
0000FFFFFF000000
0000FFFFFF000000
0001FFFFFE000000
0001FFFFFE000000
0001FFFFFE000000
003FC0003FC00000
003FC0003FC00000
003FC0003FC00000
007F80007F800000
007F80007F800000
007F80007F800000
00FF0000FF000000
00FF0000FF000000
0000000000000000
0000000000000000
0000000000000000
0000000000000000
0000000000000000
0000000000000000
0000000000000000
0000000000000000
0000000000000000
0000000000000000
0000000000000000
0000000000000000
0000000000000000
0000000000000000
0000000000000000
0000000000000000
0000000000000000
0000000000000000
0000000000000000
0000000000000000
0000000000000000
0000000000000000
0000000000000000
0000000000000000
ENDCHAR
STARTCHAR U+00A7
ENCODING 167
SWIDTH 1000 0
DWIDTH 36 0
BBX 62 80 -13 -16
BITMAP
0000000000000000
0000000000000000
0000000000000000
0000000000000000
0000000000000000
0000000000000000
0000000000000000
0000000000000000
00000000FFFFF000
00000001FFFFE000
00000001FFFFE000
00000001FFFFE000
00000003FFFFC000
00000003FFFFC000
00000003FFFFC000
00000007FFFF8000
0000007F80000000
0000007F80000000
000000FF00000000
000000FF00000000
000000FF00000000
000001FE00000000
000001FE00000000
000001FE00000000
0000003FFFC00000
0000003FFFC00000
0000003FFFC00000
0000007FFF800000
0000007FFF800000
0000007FFF800000
000000FFFF000000
000000FFFF000000
00000FF00FF00000
00001FE01FE00000
00001FE01FE00000
00001FE01FE00000
00003FC03FC00000
00003FC03FC00000
00003FC03FC00000
00007F807F800000
000007FFF8000000
000007FFF8000000
00000FFFF0000000
00000FFFF0000000
00000FFFF0000000
00001FFFE0000000
00001FFFE0000000
00001FFFE0000000
00000003FC000000
00000003FC000000
00000003FC000000
00000007F8000000
00000007F8000000
00000007F8000000
0000000FF0000000
0000000FF0000000
000FFFFF00000000
001FFFFE00000000
001FFFFE00000000
001FFFFE00000000
003FFFFC00000000
003FFFFC00000000
003FFFFC00000000
007FFFF800000000
0000000000000000
0000000000000000
0000000000000000
0000000000000000
0000000000000000
0000000000000000
0000000000000000
0000000000000000
0000000000000000
0000000000000000
0000000000000000
0000000000000000
0000000000000000
0000000000000000
0000000000000000
0000000000000000
ENDCHAR
STARTCHAR U+00A6
ENCODING 166
SWIDTH 1000 0
DWIDTH 36 0
BBX 62 80 -13 -16
BITMAP
0000000000000000
0000000000000000
0000000000000000
0000000000000000
0000000000000000
0000000000000000
0000000000000000
0000000000000000
000000000FF00000
000000001FE00000
000000001FE00000
000000001FE00000
000000003FC00000
000000003FC00000
000000003FC00000
000000007F800000
000000007F800000
000000007F800000
00000000FF000000
00000000FF000000
00000000FF000000
00000001FE000000
00000001FE000000
00000001FE000000
00000003FC000000
00000003FC000000
00000003FC000000
00000007F8000000
00000007F8000000
00000007F8000000
0000000FF0000000
0000000FF0000000
0000000000000000
0000000000000000
0000000000000000
0000000000000000
0000000000000000
0000000000000000
0000000000000000
0000000000000000
0000007F80000000
0000007F80000000
000000FF00000000
000000FF00000000
000000FF00000000
000001FE00000000
000001FE00000000
000001FE00000000
000003FC00000000
000003FC00000000
000003FC00000000
000007F800000000
000007F800000000
000007F800000000
00000FF000000000
00000FF000000000
00000FF000000000
00001FE000000000
00001FE000000000
00001FE000000000
00003FC000000000
00003FC000000000
00003FC000000000
00007F8000000000
0000000000000000
0000000000000000
0000000000000000
0000000000000000
0000000000000000
0000000000000000
0000000000000000
0000000000000000
0000000000000000
0000000000000000
0000000000000000
0000000000000000
0000000000000000
0000000000000000
0000000000000000
0000000000000000
ENDCHAR
STARTCHAR U+00A5
ENCODING 165
SWIDTH 1000 0
DWIDTH 36 0
BBX 62 80 -13 -16
BITMAP
0000000000000000
0000000000000000
0000000000000000
0000000000000000
0000000000000000
0000000000000000
0000000000000000
0000000000000000
000000FF0000FF00
000001FE0001FE00
000001FE0001FE00
000001FE0001FE00
000003FC0003FC00
000003FC0003FC00
000003FC0003FC00
000007F80007F800
0000007F807F8000
0000007F807F8000
000000FF00FF0000
000000FF00FF0000
000000FF00FF0000
000001FE01FE0000
000001FE01FE0000
000001FE01FE0000
0000003FFFC00000
0000003FFFC00000
0000003FFFC00000
0000007FFF800000
0000007FFF800000
0000007FFF800000
000000FFFF000000
000000FFFF000000
0000000FF0000000
0000001FE0000000
0000001FE0000000
0000001FE0000000
0000003FC0000000
0000003FC0000000
0000003FC0000000
0000007F80000000
0007FFFFFFF80000
0007FFFFFFF80000
000FFFFFFFF00000
000FFFFFFFF00000
000FFFFFFFF00000
001FFFFFFFE00000
001FFFFFFFE00000
001FFFFFFFE00000
000003FC00000000
000003FC00000000
000003FC00000000
000007F800000000
000007F800000000
000007F800000000
00000FF000000000
00000FF000000000
00000FF000000000
00001FE000000000
00001FE000000000
00001FE000000000
00003FC000000000
00003FC000000000
00003FC000000000
00007F8000000000
0000000000000000
0000000000000000
0000000000000000
0000000000000000
0000000000000000
0000000000000000
0000000000000000
0000000000000000
0000000000000000
0000000000000000
0000000000000000
0000000000000000
0000000000000000
0000000000000000
0000000000000000
0000000000000000
ENDCHAR
STARTCHAR U+00A8
ENCODING 168
SWIDTH 1000 0
DWIDTH 36 0
BBX 62 80 -13 -16
BITMAP
00000003FC03FC00
00000003FC03FC00
00000003FC03FC00
00000007F807F800
00000007F807F800
00000007F807F800
0000000FF00FF000
0000000FF00FF000
0000000000000000
0000000000000000
0000000000000000
0000000000000000
0000000000000000
0000000000000000
0000000000000000
0000000000000000
0000000000000000
0000000000000000
0000000000000000
0000000000000000
0000000000000000
0000000000000000
0000000000000000
0000000000000000
0000000000000000
0000000000000000
0000000000000000
0000000000000000
0000000000000000
0000000000000000
0000000000000000
0000000000000000
0000000000000000
0000000000000000
0000000000000000
0000000000000000
0000000000000000
0000000000000000
0000000000000000
0000000000000000
0000000000000000
0000000000000000
0000000000000000
0000000000000000
0000000000000000
0000000000000000
0000000000000000
0000000000000000
0000000000000000
0000000000000000
0000000000000000
0000000000000000
0000000000000000
0000000000000000
0000000000000000
0000000000000000
0000000000000000
0000000000000000
0000000000000000
0000000000000000
0000000000000000
0000000000000000
0000000000000000
0000000000000000
0000000000000000
0000000000000000
0000000000000000
0000000000000000
0000000000000000
0000000000000000
0000000000000000
0000000000000000
0000000000000000
0000000000000000
0000000000000000
0000000000000000
0000000000000000
0000000000000000
0000000000000000
0000000000000000
ENDCHAR
STARTCHAR U+00A2
ENCODING 162
SWIDTH 1000 0
DWIDTH 36 0
BBX 62 80 -13 -16
BITMAP
0000000000000000
0000000000000000
0000000000000000
0000000000000000
0000000000000000
0000000000000000
0000000000000000
0000000000000000
0000000000000000
0000000000000000
0000000000000000
0000000000000000
0000000000000000
0000000000000000
0000000000000000
0000000000000000
000000007F800000
000000007F800000
00000000FF000000
00000000FF000000
00000000FF000000
00000001FE000000
00000001FE000000
00000001FE000000
000003FFFFFC0000
000003FFFFFC0000
000003FFFFFC0000
000007FFFFF80000
000007FFFFF80000
000007FFFFF80000
00000FFFFFF00000
00000FFFFFF00000
0000FF0FF0FF0000
0001FE1FE1FE0000
0001FE1FE1FE0000
0001FE1FE1FE0000
0003FC3FC3FC0000
0003FC3FC3FC0000
0003FC3FC3FC0000
0007F87F87F80000
0007F87F80000000
0007F87F80000000
000FF0FF00000000
000FF0FF00000000
000FF0FF00000000
001FE1FE00000000
001FE1FE00000000
001FE1FE00000000
003FC3FC3FC00000
003FC3FC3FC00000
003FC3FC3FC00000
007F87F87F800000
007F87F87F800000
007F87F87F800000
00FF0FF0FF000000
00FF0FF0FF000000
000FFFFFF0000000
001FFFFFE0000000
001FFFFFE0000000
001FFFFFE0000000
003FFFFFC0000000
003FFFFFC0000000
003FFFFFC0000000
007FFFFF80000000
00007F8000000000
00007F8000000000
0000FF0000000000
0000FF0000000000
0000FF0000000000
0001FE0000000000
0001FE0000000000
0001FE0000000000
0000000000000000
0000000000000000
0000000000000000
0000000000000000
0000000000000000
0000000000000000
0000000000000000
0000000000000000
ENDCHAR
STARTCHAR U+00A1
ENCODING 161
SWIDTH 1000 0
DWIDTH 36 0
BBX 62 80 -13 -16
BITMAP
0000000000000000
0000000000000000
0000000000000000
0000000000000000
0000000000000000
0000000000000000
0000000000000000
0000000000000000
000000000FF00000
000000001FE00000
000000001FE00000
000000001FE00000
000000003FC00000
000000003FC00000
000000003FC00000
000000007F800000
0000000000000000
0000000000000000
0000000000000000
0000000000000000
0000000000000000
0000000000000000
0000000000000000
0000000000000000
00000003FC000000
00000003FC000000
00000003FC000000
00000007F8000000
00000007F8000000
00000007F8000000
0000000FF0000000
0000000FF0000000
0000000FF0000000
0000001FE0000000
0000001FE0000000
0000001FE0000000
0000003FC0000000
0000003FC0000000
0000003FC0000000
0000007F80000000
0000007F80000000
0000007F80000000
000000FF00000000
000000FF00000000
000000FF00000000
000001FE00000000
000001FE00000000
000001FE00000000
000003FC00000000
000003FC00000000
000003FC00000000
000007F800000000
000007F800000000
000007F800000000
00000FF000000000
00000FF000000000
00000FF000000000
00001FE000000000
00001FE000000000
00001FE000000000
00003FC000000000
00003FC000000000
00003FC000000000
00007F8000000000
0000000000000000
0000000000000000
0000000000000000
0000000000000000
0000000000000000
0000000000000000
0000000000000000
0000000000000000
0000000000000000
0000000000000000
0000000000000000
0000000000000000
0000000000000000
0000000000000000
0000000000000000
0000000000000000
ENDCHAR
STARTCHAR U+201F
ENCODING 8223
SWIDTH 1000 0
DWIDTH 36 0
BBX 62 80 -13 -16
BITMAP
0000000000000000
0000000000000000
0000000000000000
0000000000000000
0000000000000000
0000000000000000
0000000000000000
0000000000000000
0000000FFFFFF000
0000001FFFFFE000
0000001FFFFFE000
0000001FFFFFE000
0000003FFFFFC000
0000003FFFFFC000
0000003FFFFFC000
0000007FFFFF8000
0000007F87F80000
0000007F87F80000
000000FF0FF00000
000000FF0FF00000
000000FF0FF00000
000001FE1FE00000
000001FE1FE00000
000001FE3FE00000
0000003FC3FC0000
0000003FC3FC0000
0000003FC3FC0000
0000007F87F80000
0000007F87F80000
0000007F87F80000
000000FF0FF00000
000000FF0FF00000
0000000000000000
0000000000000000
0000000000000000
0000000000000000
0000000000000000
0000000000000000
0000000000000000
0000000000000000
0000000000000000
0000000000000000
0000000000000000
0000000000000000
0000000000000000
0000000000000000
0000000000000000
0000000000000000
0000000000000000
0000000000000000
0000000000000000
0000000000000000
0000000000000000
0000000000000000
0000000000000000
0000000000000000
0000000000000000
0000000000000000
0000000000000000
0000000000000000
0000000000000000
0000000000000000
0000000000000000
0000000000000000
0000000000000000
0000000000000000
0000000000000000
0000000000000000
0000000000000000
0000000000000000
0000000000000000
0000000000000000
0000000000000000
0000000000000000
0000000000000000
0000000000000000
0000000000000000
0000000000000000
0000000000000000
0000000000000000
ENDCHAR
STARTCHAR U+201E
ENCODING 8222
SWIDTH 1000 0
DWIDTH 36 0
BBX 62 80 -13 -16
BITMAP
0000000000000000
0000000000000000
0000000000000000
0000000000000000
0000000000000000
0000000000000000
0000000000000000
0000000000000000
0000000000000000
0000000000000000
0000000000000000
0000000000000000
0000000000000000
0000000000000000
0000000000000000
0000000000000000
0000000000000000
0000000000000000
0000000000000000
0000000000000000
0000000000000000
0000000000000000
0000000000000000
0000000000000000
0000000000000000
0000000000000000
0000000000000000
0000000000000000
0000000000000000
0000000000000000
0000000000000000
0000000000000000
0000000000000000
0000000000000000
0000000000000000
0000000000000000
0000000000000000
0000000000000000
0000000000000000
0000000000000000
0000000000000000
0000000000000000
0000000000000000
0000000000000000
0000000000000000
0000000000000000
0000000000000000
0000000000000000
0000000000000000
0000000000000000
0000000000000000
0000000000000000
0000000000000000
0000000000000000
0000000000000000
0000000000000000
000FF0FF00000000
001FE1FE00000000
001FE1FE00000000
001FE1FE00000000
003FC3FC00000000
003FC3FC00000000
003FC3FC00000000
007F87F800000000
007F87F800000000
007F87F800000000
00FF0FF000000000
00FF0FF000000000
00FF0FF000000000
01FE1FE000000000
01FE1FE000000000
01FE1FE000000000
0000000000000000
0000000000000000
0000000000000000
0000000000000000
0000000000000000
0000000000000000
0000000000000000
0000000000000000
ENDCHAR
STARTCHAR U+201D
ENCODING 8221
SWIDTH 1000 0
DWIDTH 36 0
BBX 62 80 -13 -16
BITMAP
0000000000000000
0000000000000000
0000000000000000
0000000000000000
0000000000000000
0000000000000000
0000000000000000
0000000000000000
0000000FFF0FFF00
0000001FFE1FFE00
0000001FFE1FFE00
0000001FFE1FFE00
0000003FFC3FFC00
0000003FFC3FFC00
0000003FFC3FFC00
0000007FF87FF800
00000007F807F800
00000007F807F800
0000000FF00FF000
0000000FF00FF000
0000000FF00FF000
0000001FE01FE000
0000001FE01FE000
0000001FE01FE000
000003FC03FC0000
000003FC03FC0000
000003FC03FC0000
000007F807F80000
000007F807F80000
000007F807F80000
00000FF00FF00000
00000FF00FF00000
0000000000000000
0000000000000000
0000000000000000
0000000000000000
0000000000000000
0000000000000000
0000000000000000
0000000000000000
0000000000000000
0000000000000000
0000000000000000
0000000000000000
0000000000000000
0000000000000000
0000000000000000
0000000000000000
0000000000000000
0000000000000000
0000000000000000
0000000000000000
0000000000000000
0000000000000000
0000000000000000
0000000000000000
0000000000000000
0000000000000000
0000000000000000
0000000000000000
0000000000000000
0000000000000000
0000000000000000
0000000000000000
0000000000000000
0000000000000000
0000000000000000
0000000000000000
0000000000000000
0000000000000000
0000000000000000
0000000000000000
0000000000000000
0000000000000000
0000000000000000
0000000000000000
0000000000000000
0000000000000000
0000000000000000
0000000000000000
ENDCHAR
STARTCHAR U+201C
ENCODING 8220
SWIDTH 1000 0
DWIDTH 36 0
BBX 62 80 -13 -16
BITMAP
0000000000000000
0000000000000000
0000000000000000
0000000000000000
0000000000000000
0000000000000000
0000000000000000
0000000000000000
00000000FF00FF00
00000001FE01FE00
00000001FE01FE00
00000001FE01FE00
00000003FC03FC00
00000003FC03FC00
00000003FC03FC00
00000007F807F800
0000007F807F8000
0000007F807F8000
000000FF00FF0000
000000FF00FF0000
000000FF00FF0000
000001FE01FE0000
000001FE01FE0000
000001FE01FE0000
000003FFC3FFC000
000003FFC3FFC000
000003FFC3FFC000
000007FF87FF8000
000007FF87FF8000
000007FF87FF8000
00000FFF0FFF0000
00000FFF0FFF0000
0000000000000000
0000000000000000
0000000000000000
0000000000000000
0000000000000000
0000000000000000
0000000000000000
0000000000000000
0000000000000000
0000000000000000
0000000000000000
0000000000000000
0000000000000000
0000000000000000
0000000000000000
0000000000000000
0000000000000000
0000000000000000
0000000000000000
0000000000000000
0000000000000000
0000000000000000
0000000000000000
0000000000000000
0000000000000000
0000000000000000
0000000000000000
0000000000000000
0000000000000000
0000000000000000
0000000000000000
0000000000000000
0000000000000000
0000000000000000
0000000000000000
0000000000000000
0000000000000000
0000000000000000
0000000000000000
0000000000000000
0000000000000000
0000000000000000
0000000000000000
0000000000000000
0000000000000000
0000000000000000
0000000000000000
0000000000000000
ENDCHAR
STARTCHAR U+201B
ENCODING 8219
SWIDTH 1000 0
DWIDTH 36 0
BBX 62 80 -13 -16
BITMAP
0000000000000000
0000000000000000
0000000000000000
0000000000000000
0000000000000000
0000000000000000
0000000000000000
0000000000000000
000000000FF00000
000000001FE00000
000000001FE00000
000000001FE00000
000000003FC00000
000000003FC00000
000000003FC00000
000000007F800000
000000007F800000
000000007F800000
00000000FF000000
00000000FF000000
00000000FF000000
00000001FE000000
00000001FE000000
00000001FE000000
00000003FC000000
00000003FC000000
00000003FC000000
00000007F8000000
00000007F8000000
00000007F8000000
0000000FF0000000
0000000FF0000000
0000000000000000
0000000000000000
0000000000000000
0000000000000000
0000000000000000
0000000000000000
0000000000000000
0000000000000000
0000000000000000
0000000000000000
0000000000000000
0000000000000000
0000000000000000
0000000000000000
0000000000000000
0000000000000000
0000000000000000
0000000000000000
0000000000000000
0000000000000000
0000000000000000
0000000000000000
0000000000000000
0000000000000000
0000000000000000
0000000000000000
0000000000000000
0000000000000000
0000000000000000
0000000000000000
0000000000000000
0000000000000000
0000000000000000
0000000000000000
0000000000000000
0000000000000000
0000000000000000
0000000000000000
0000000000000000
0000000000000000
0000000000000000
0000000000000000
0000000000000000
0000000000000000
0000000000000000
0000000000000000
0000000000000000
0000000000000000
ENDCHAR
STARTCHAR U+201A
ENCODING 8218
SWIDTH 1000 0
DWIDTH 36 0
BBX 62 80 -13 -16
BITMAP
0000000000000000
0000000000000000
0000000000000000
0000000000000000
0000000000000000
0000000000000000
0000000000000000
0000000000000000
0000000000000000
0000000000000000
0000000000000000
0000000000000000
0000000000000000
0000000000000000
0000000000000000
0000000000000000
0000000000000000
0000000000000000
0000000000000000
0000000000000000
0000000000000000
0000000000000000
0000000000000000
0000000000000000
0000000000000000
0000000000000000
0000000000000000
0000000000000000
0000000000000000
0000000000000000
0000000000000000
0000000000000000
0000000000000000
0000000000000000
0000000000000000
0000000000000000
0000000000000000
0000000000000000
0000000000000000
0000000000000000
0000007F80000000
0000007F80000000
000000FF00000000
000000FF00000000
000000FF00000000
000001FE00000000
000001FE00000000
000001FE00000000
000003FC00000000
000003FC00000000
000003FC00000000
000007F800000000
000007F800000000
000007F800000000
00000FF000000000
00000FF000000000
00000FF000000000
00001FE000000000
00001FE000000000
00001FE000000000
00003FC000000000
00003FC000000000
00003FC000000000
00007F8000000000
0000000000000000
0000000000000000
0000000000000000
0000000000000000
0000000000000000
0000000000000000
0000000000000000
0000000000000000
0000000000000000
0000000000000000
0000000000000000
0000000000000000
0000000000000000
0000000000000000
0000000000000000
0000000000000000
ENDCHAR
STARTCHAR U+2019
ENCODING 8217
SWIDTH 1000 0
DWIDTH 36 0
BBX 62 80 -13 -16
BITMAP
0000000000000000
0000000000000000
0000000000000000
0000000000000000
0000000000000000
0000000000000000
0000000000000000
0000000000000000
0000000FFF000000
0000001FFE000000
0000001FFE000000
0000001FFE000000
0000003FFC000000
0000003FFC000000
0000003FFC000000
0000007FF8000000
00000007F8000000
00000007F8000000
0000000FF0000000
0000000FF0000000
0000000FF0000000
0000001FE0000000
0000001FE0000000
0000001FE0000000
000003FC00000000
000003FC00000000
000003FC00000000
000007F800000000
000007F800000000
000007F800000000
00000FF000000000
00000FF000000000
0000000000000000
0000000000000000
0000000000000000
0000000000000000
0000000000000000
0000000000000000
0000000000000000
0000000000000000
0000000000000000
0000000000000000
0000000000000000
0000000000000000
0000000000000000
0000000000000000
0000000000000000
0000000000000000
0000000000000000
0000000000000000
0000000000000000
0000000000000000
0000000000000000
0000000000000000
0000000000000000
0000000000000000
0000000000000000
0000000000000000
0000000000000000
0000000000000000
0000000000000000
0000000000000000
0000000000000000
0000000000000000
0000000000000000
0000000000000000
0000000000000000
0000000000000000
0000000000000000
0000000000000000
0000000000000000
0000000000000000
0000000000000000
0000000000000000
0000000000000000
0000000000000000
0000000000000000
0000000000000000
0000000000000000
0000000000000000
ENDCHAR
STARTCHAR U+2018
ENCODING 8216
SWIDTH 1000 0
DWIDTH 36 0
BBX 62 80 -13 -16
BITMAP
0000000000000000
0000000000000000
0000000000000000
0000000000000000
0000000000000000
0000000000000000
0000000000000000
0000000000000000
000000000000FF00
000000000001FE00
000000000001FE00
000000000001FE00
000000000003FC00
000000000003FC00
000000000003FC00
000000000007F800
00000000007F8000
00000000007F8000
0000000000FF0000
0000000000FF0000
0000000000FF0000
0000000001FE0000
0000000001FE0000
0000000001FE0000
0000000003FFC000
0000000003FFC000
0000000003FFC000
0000000007FF8000
0000000007FF8000
0000000007FF8000
000000000FFF0000
000000000FFF0000
0000000000000000
0000000000000000
0000000000000000
0000000000000000
0000000000000000
0000000000000000
0000000000000000
0000000000000000
0000000000000000
0000000000000000
0000000000000000
0000000000000000
0000000000000000
0000000000000000
0000000000000000
0000000000000000
0000000000000000
0000000000000000
0000000000000000
0000000000000000
0000000000000000
0000000000000000
0000000000000000
0000000000000000
0000000000000000
0000000000000000
0000000000000000
0000000000000000
0000000000000000
0000000000000000
0000000000000000
0000000000000000
0000000000000000
0000000000000000
0000000000000000
0000000000000000
0000000000000000
0000000000000000
0000000000000000
0000000000000000
0000000000000000
0000000000000000
0000000000000000
0000000000000000
0000000000000000
0000000000000000
0000000000000000
0000000000000000
ENDCHAR
STARTCHAR U+2017
ENCODING 8215
SWIDTH 1000 0
DWIDTH 36 0
BBX 62 80 -13 -16
BITMAP
0000000000000000
0000000000000000
0000000000000000
0000000000000000
0000000000000000
0000000000000000
0000000000000000
0000000000000000
0000000000000000
0000000000000000
0000000000000000
0000000000000000
0000000000000000
0000000000000000
0000000000000000
0000000000000000
0000000000000000
0000000000000000
0000000000000000
0000000000000000
0000000000000000
0000000000000000
0000000000000000
0000000000000000
0000000000000000
0000000000000000
0000000000000000
0000000000000000
0000000000000000
0000000000000000
0000000000000000
0000000000000000
0000000000000000
0000000000000000
0000000000000000
0000000000000000
0000000000000000
0000000000000000
0000000000000000
0000000000000000
0000000000000000
0000000000000000
0000000000000000
0000000000000000
0000000000000000
0000000000000000
0000000000000000
0000000000000000
0000000000000000
0000000000000000
0000000000000000
0000000000000000
0000000000000000
0000000000000000
0000000000000000
0000000000000000
00FFFFFFFF000000
01FFFFFFFE000000
01FFFFFFFE000000
01FFFFFFFE000000
03FFFFFFFC000000
03FFFFFFFC000000
03FFFFFFFC000000
07FFFFFFF8000000
0000000000000000
0000000000000000
0000000000000000
0000000000000000
0000000000000000
0000000000000000
0000000000000000
0000000000000000
3FFFFFFFC0000000
3FFFFFFFC0000000
3FFFFFFFC0000000
7FFFFFFF80000000
7FFFFFFF80000000
7FFFFFFF80000000
FFFFFFFF00000000
FFFFFFFF00000000
ENDCHAR
STARTCHAR U+2016
ENCODING 8214
SWIDTH 1000 0
DWIDTH 36 0
BBX 62 80 -13 -16
BITMAP
0000000000000000
0000000000000000
0000000000000000
0000000000000000
0000000000000000
0000000000000000
0000000000000000
0000000000000000
000000000FFFF000
000000001FFFE000
000000001FFFE000
000000001FFFE000
000000003FFFC000
000000003FFFC000
000000003FFFC000
000000007FFF8000
000000007FFF8000
000000007FFF8000
00000000FFFF0000
00000000FFFF0000
00000000FFFF0000
00000001FFFE0000
00000001FFFE0000
00000001FFFE0000
00000003FFFC0000
00000003FFFC0000
00000003FFFC0000
00000007FFF80000
00000007FFF80000
00000007FFF80000
0000000FFFF00000
0000000FFFF00000
0000000FFFF00000
0000001FFFE00000
0000001FFFE00000
0000001FFFE00000
0000003FFFC00000
0000003FFFC00000
0000003FFFC00000
0000007FFF800000
0000007FFF800000
0000007FFF800000
000000FFFF000000
000000FFFF000000
000000FFFF000000
000001FFFE000000
000001FFFE000000
000001FFFE000000
000003FFFC000000
000003FFFC000000
000003FFFC000000
000007FFF8000000
000007FFF8000000
000007FFF8000000
00000FFFF0000000
00000FFFF0000000
00000FFFF0000000
00001FFFE0000000
00001FFFE0000000
00001FFFE0000000
00003FFFC0000000
00003FFFC0000000
00003FFFC0000000
00007FFF80000000
0000000000000000
0000000000000000
0000000000000000
0000000000000000
0000000000000000
0000000000000000
0000000000000000
0000000000000000
0000000000000000
0000000000000000
0000000000000000
0000000000000000
0000000000000000
0000000000000000
0000000000000000
0000000000000000
ENDCHAR
STARTCHAR U+2015
ENCODING 8213
SWIDTH 1000 0
DWIDTH 36 0
BBX 62 80 -13 -16
BITMAP
0000000000000000
0000000000000000
0000000000000000
0000000000000000
0000000000000000
0000000000000000
0000000000000000
0000000000000000
0000000000000000
0000000000000000
0000000000000000
0000000000000000
0000000000000000
0000000000000000
0000000000000000
0000000000000000
0000000000000000
0000000000000000
0000000000000000
0000000000000000
0000000000000000
0000000000000000
0000000000000000
0000000000000000
0000000000000000
0000000000000000
0000000000000000
0000000000000000
0000000000000000
0000000000000000
0000000000000000
0000000000000000
0000FFFFFFFFF000
0001FFFFFFFFE000
0001FFFFFFFFE000
0001FFFFFFFFE000
0003FFFFFFFFC000
0003FFFFFFFFC000
0003FFFFFFFFC000
0007FFFFFFFF8000
0000000000000000
0000000000000000
0000000000000000
0000000000000000
0000000000000000
0000000000000000
0000000000000000
0000000000000000
0000000000000000
0000000000000000
0000000000000000
0000000000000000
0000000000000000
0000000000000000
0000000000000000
0000000000000000
0000000000000000
0000000000000000
0000000000000000
0000000000000000
0000000000000000
0000000000000000
0000000000000000
0000000000000000
0000000000000000
0000000000000000
0000000000000000
0000000000000000
0000000000000000
0000000000000000
0000000000000000
0000000000000000
0000000000000000
0000000000000000
0000000000000000
0000000000000000
0000000000000000
0000000000000000
0000000000000000
0000000000000000
ENDCHAR
STARTCHAR U+2014
ENCODING 8212
SWIDTH 1000 0
DWIDTH 36 0
BBX 62 80 -13 -16
BITMAP
0000000000000000
0000000000000000
0000000000000000
0000000000000000
0000000000000000
0000000000000000
0000000000000000
0000000000000000
0000000000000000
0000000000000000
0000000000000000
0000000000000000
0000000000000000
0000000000000000
0000000000000000
0000000000000000
0000000000000000
0000000000000000
0000000000000000
0000000000000000
0000000000000000
0000000000000000
0000000000000000
0000000000000000
0000000000000000
0000000000000000
0000000000000000
0000000000000000
0000000000000000
0000000000000000
0000000000000000
0000000000000000
0000FFFFFFFF0000
0001FFFFFFFE0000
0001FFFFFFFE0000
0001FFFFFFFE0000
0003FFFFFFFC0000
0003FFFFFFFC0000
0003FFFFFFFC0000
0007FFFFFFF80000
0000000000000000
0000000000000000
0000000000000000
0000000000000000
0000000000000000
0000000000000000
0000000000000000
0000000000000000
0000000000000000
0000000000000000
0000000000000000
0000000000000000
0000000000000000
0000000000000000
0000000000000000
0000000000000000
0000000000000000
0000000000000000
0000000000000000
0000000000000000
0000000000000000
0000000000000000
0000000000000000
0000000000000000
0000000000000000
0000000000000000
0000000000000000
0000000000000000
0000000000000000
0000000000000000
0000000000000000
0000000000000000
0000000000000000
0000000000000000
0000000000000000
0000000000000000
0000000000000000
0000000000000000
0000000000000000
0000000000000000
ENDCHAR
STARTCHAR U+2013
ENCODING 8211
SWIDTH 1000 0
DWIDTH 36 0
BBX 62 80 -13 -16
BITMAP
0000000000000000
0000000000000000
0000000000000000
0000000000000000
0000000000000000
0000000000000000
0000000000000000
0000000000000000
0000000000000000
0000000000000000
0000000000000000
0000000000000000
0000000000000000
0000000000000000
0000000000000000
0000000000000000
0000000000000000
0000000000000000
0000000000000000
0000000000000000
0000000000000000
0000000000000000
0000000000000000
0000000000000000
0000000000000000
0000000000000000
0000000000000000
0000000000000000
0000000000000000
0000000000000000
0000000000000000
0000000000000000
000000FFFFF00000
000001FFFFE00000
000001FFFFE00000
000001FFFFE00000
000003FFFFC00000
000003FFFFC00000
000003FFFFC00000
000007FFFF800000
0000000000000000
0000000000000000
0000000000000000
0000000000000000
0000000000000000
0000000000000000
0000000000000000
0000000000000000
0000000000000000
0000000000000000
0000000000000000
0000000000000000
0000000000000000
0000000000000000
0000000000000000
0000000000000000
0000000000000000
0000000000000000
0000000000000000
0000000000000000
0000000000000000
0000000000000000
0000000000000000
0000000000000000
0000000000000000
0000000000000000
0000000000000000
0000000000000000
0000000000000000
0000000000000000
0000000000000000
0000000000000000
0000000000000000
0000000000000000
0000000000000000
0000000000000000
0000000000000000
0000000000000000
0000000000000000
0000000000000000
ENDCHAR
STARTCHAR U+2012
ENCODING 8210
SWIDTH 1000 0
DWIDTH 36 0
BBX 62 80 -13 -16
BITMAP
0000000000000000
0000000000000000
0000000000000000
0000000000000000
0000000000000000
0000000000000000
0000000000000000
0000000000000000
0000000000000000
0000000000000000
0000000000000000
0000000000000000
0000000000000000
0000000000000000
0000000000000000
0000000000000000
0000000000000000
0000000000000000
0000000000000000
0000000000000000
0000000000000000
0000000000000000
0000000000000000
0000000000000000
0000000000000000
0000000000000000
0000000000000000
0000000000000000
0000000000000000
0000000000000000
0000000000000000
0000000000000000
00000FFFFFF00000
00001FFFFFE00000
00001FFFFFE00000
00001FFFFFE00000
00003FFFFFC00000
00003FFFFFC00000
00003FFFFFC00000
00007FFFFF800000
0000000000000000
0000000000000000
0000000000000000
0000000000000000
0000000000000000
0000000000000000
0000000000000000
0000000000000000
0000000000000000
0000000000000000
0000000000000000
0000000000000000
0000000000000000
0000000000000000
0000000000000000
0000000000000000
0000000000000000
0000000000000000
0000000000000000
0000000000000000
0000000000000000
0000000000000000
0000000000000000
0000000000000000
0000000000000000
0000000000000000
0000000000000000
0000000000000000
0000000000000000
0000000000000000
0000000000000000
0000000000000000
0000000000000000
0000000000000000
0000000000000000
0000000000000000
0000000000000000
0000000000000000
0000000000000000
0000000000000000
ENDCHAR
STARTCHAR U+2011
ENCODING 8209
SWIDTH 1000 0
DWIDTH 36 0
BBX 62 80 -13 -16
BITMAP
0000000000000000
0000000000000000
0000000000000000
0000000000000000
0000000000000000
0000000000000000
0000000000000000
0000000000000000
0000000000000000
0000000000000000
0000000000000000
0000000000000000
0000000000000000
0000000000000000
0000000000000000
0000000000000000
0000000000000000
0000000000000000
0000000000000000
0000000000000000
0000000000000000
0000000000000000
0000000000000000
0000000000000000
0000000000000000
0000000000000000
0000000000000000
0000000000000000
0000000000000000
0000000000000000
0000000000000000
0000000000000000
000000FFFF000000
000001FFFE000000
000001FFFE000000
000001FFFE000000
000003FFFC000000
000003FFFC000000
000003FFFC000000
000007FFF8000000
0000000000000000
0000000000000000
0000000000000000
0000000000000000
0000000000000000
0000000000000000
0000000000000000
0000000000000000
0000000000000000
0000000000000000
0000000000000000
0000000000000000
0000000000000000
0000000000000000
0000000000000000
0000000000000000
0000000000000000
0000000000000000
0000000000000000
0000000000000000
0000000000000000
0000000000000000
0000000000000000
0000000000000000
0000000000000000
0000000000000000
0000000000000000
0000000000000000
0000000000000000
0000000000000000
0000000000000000
0000000000000000
0000000000000000
0000000000000000
0000000000000000
0000000000000000
0000000000000000
0000000000000000
0000000000000000
0000000000000000
ENDCHAR
STARTCHAR U+2010
ENCODING 8208
SWIDTH 1000 0
DWIDTH 36 0
BBX 62 80 -13 -16
BITMAP
0000000000000000
0000000000000000
0000000000000000
0000000000000000
0000000000000000
0000000000000000
0000000000000000
0000000000000000
0000000000000000
0000000000000000
0000000000000000
0000000000000000
0000000000000000
0000000000000000
0000000000000000
0000000000000000
0000000000000000
0000000000000000
0000000000000000
0000000000000000
0000000000000000
0000000000000000
0000000000000000
0000000000000000
0000000000000000
0000000000000000
0000000000000000
0000000000000000
0000000000000000
0000000000000000
0000000000000000
0000000000000000
000000FFFF000000
000001FFFE000000
000001FFFE000000
000001FFFE000000
000003FFFC000000
000003FFFC000000
000003FFFC000000
000007FFF8000000
0000000000000000
0000000000000000
0000000000000000
0000000000000000
0000000000000000
0000000000000000
0000000000000000
0000000000000000
0000000000000000
0000000000000000
0000000000000000
0000000000000000
0000000000000000
0000000000000000
0000000000000000
0000000000000000
0000000000000000
0000000000000000
0000000000000000
0000000000000000
0000000000000000
0000000000000000
0000000000000000
0000000000000000
0000000000000000
0000000000000000
0000000000000000
0000000000000000
0000000000000000
0000000000000000
0000000000000000
0000000000000000
0000000000000000
0000000000000000
0000000000000000
0000000000000000
0000000000000000
0000000000000000
0000000000000000
0000000000000000
ENDCHAR
STARTCHAR U+007F
ENCODING 127
SWIDTH 1000 0
DWIDTH 36 0
BBX 62 80 -13 -16
BITMAP
0000000000000000
0000000000000000
0000000000000000
0000000000000000
0000000000000000
0000000000000000
0000000000000000
0000000000000000
000000FFFF000000
000001FFFE000000
000001FFFE000000
000001FFFE000000
000003FFFC000000
000003FFFC000000
000003FFFC000000
000007FFF8000000
000007F87F800000
000007F87F800000
00000FF0FF000000
00000FF0FF000000
00000FF0FF000000
00001FE1FE000000
00001FE1FE000000
00001FE1FE000000
00003FC3FC000000
00003FC3FC000000
00003FC3FC000000
00007F87F8000000
00007F87F8000000
00007F87F8000000
0000FF0FF0000000
0000FF0FF0000000
0000FF0FF0000000
0001FE1FE0000000
0001FE1FE0000000
0001FE1FE0000000
0003FC3FC0000000
0003FC3FC0000000
0003FC3FC0000000
0007F87F80000000
0007FFFFF8000000
0007FFFFF8000000
000FFFFFF0000000
000FFFFFF0000000
000FFFFFF0000000
001FFFFFE0000000
001FFFFFE0000000
001FFFFFE0000000
00003FC000000000
00003FC000000000
00003FC000000000
00007F8000000000
00007F8000000000
00007F8000000000
0000FF0000000000
0000FF0000000000
0000FF0000000000
0001FE0000000000
0001FE0000000000
0001FE0000000000
0003FC0000000000
0003FC0000000000
0003FC0000000000
0007F80000000000
0007F80000000000
0007F80000000000
000FF00000000000
000FF00000000000
000FF00000000000
001FE00000000000
001FE00000000000
001FE00000000000
003FC00000000000
003FC00000000000
003FC00000000000
007F800000000000
007F800000000000
007F800000000000
00FF000000000000
00FF000000000000
ENDCHAR
STARTCHAR U+007E
ENCODING 126
SWIDTH 1000 0
DWIDTH 36 0
BBX 62 80 -13 -16
BITMAP
0000000000000000
0000000000000000
0000000000000000
0000000000000000
0000000000000000
0000000000000000
0000000000000000
0000000000000000
0000000FFF00FF00
0000001FFE01FE00
0000001FFE01FE00
0000001FFE01FE00
0000003FFC03FC00
0000003FFC03FC00
0000003FFC03FC00
0000007FF807F800
000007F87F87F800
000007F87F87F800
00000FF0FF0FF000
00000FF0FF0FF000
00000FF0FF0FF000
00001FE1FE1FE000
00001FE1FE1FE000
00001FE1FE1FE000
00003FC03FFC0000
00003FC03FFC0000
00003FC03FFC0000
00007F807FF80000
00007F807FF80000
00007F807FF80000
0000FF00FFF00000
0000FF00FFF00000
0000000000000000
0000000000000000
0000000000000000
0000000000000000
0000000000000000
0000000000000000
0000000000000000
0000000000000000
0000000000000000
0000000000000000
0000000000000000
0000000000000000
0000000000000000
0000000000000000
0000000000000000
0000000000000000
0000000000000000
0000000000000000
0000000000000000
0000000000000000
0000000000000000
0000000000000000
0000000000000000
0000000000000000
0000000000000000
0000000000000000
0000000000000000
0000000000000000
0000000000000000
0000000000000000
0000000000000000
0000000000000000
0000000000000000
0000000000000000
0000000000000000
0000000000000000
0000000000000000
0000000000000000
0000000000000000
0000000000000000
0000000000000000
0000000000000000
0000000000000000
0000000000000000
0000000000000000
0000000000000000
0000000000000000
0000000000000000
ENDCHAR
STARTCHAR U+007D
ENCODING 125
SWIDTH 1000 0
DWIDTH 36 0
BBX 62 80 -13 -16
BITMAP
0000000000000000
0000000000000000
0000000000000000
0000000000000000
0000000000000000
0000000000000000
0000000000000000
0000000000000000
000000FFFF000000
000001FFFE000000
000001FFFE000000
000001FFFE000000
000003FFFC000000
000003FFFC000000
000003FFFC000000
000007FFF8000000
000000007F800000
000000007F800000
00000000FF000000
00000000FF000000
00000000FF000000
00000001FE000000
00000001FE000000
00000001FE000000
0000003FC0000000
0000003FC0000000
0000003FC0000000
0000007F80000000
0000007F80000000
0000007F80000000
000000FF00000000
000000FF00000000
0000000FFF000000
0000001FFE000000
0000001FFE000000
0000001FFE000000
0000003FFC000000
0000003FFC000000
0000003FFC000000
0000007FF8000000
000007F800000000
000007F800000000
00000FF000000000
00000FF000000000
00000FF000000000
00001FE000000000
00001FE000000000
00001FE000000000
000003FC00000000
000003FC00000000
000003FC00000000
000007F800000000
000007F800000000
000007F800000000
00000FF000000000
00000FF000000000
00FFFF0000000000
01FFFE0000000000
01FFFE0000000000
01FFFE0000000000
03FFFC0000000000
03FFFC0000000000
03FFFC0000000000
07FFF80000000000
0000000000000000
0000000000000000
0000000000000000
0000000000000000
0000000000000000
0000000000000000
0000000000000000
0000000000000000
0000000000000000
0000000000000000
0000000000000000
0000000000000000
0000000000000000
0000000000000000
0000000000000000
0000000000000000
ENDCHAR
STARTCHAR U+007C
ENCODING 124
SWIDTH 1000 0
DWIDTH 36 0
BBX 62 80 -13 -16
BITMAP
0000000000000000
0000000000000000
0000000000000000
0000000000000000
0000000000000000
0000000000000000
0000000000000000
0000000000000000
000000000FF00000
000000001FE00000
000000001FE00000
000000001FE00000
000000003FC00000
000000003FC00000
000000003FC00000
000000007F800000
000000007F800000
000000007F800000
00000000FF000000
00000000FF000000
00000000FF000000
00000001FE000000
00000001FE000000
00000001FE000000
00000003FC000000
00000003FC000000
00000003FC000000
00000007F8000000
00000007F8000000
00000007F8000000
0000000FF0000000
0000000FF0000000
0000000FF0000000
0000001FE0000000
0000001FE0000000
0000001FE0000000
0000003FC0000000
0000003FC0000000
0000003FC0000000
0000007F80000000
0000007F80000000
0000007F80000000
000000FF00000000
000000FF00000000
000000FF00000000
000001FE00000000
000001FE00000000
000001FE00000000
000003FC00000000
000003FC00000000
000003FC00000000
000007F800000000
000007F800000000
000007F800000000
00000FF000000000
00000FF000000000
00000FF000000000
00001FE000000000
00001FE000000000
00001FE000000000
00003FC000000000
00003FC000000000
00003FC000000000
00007F8000000000
0000000000000000
0000000000000000
0000000000000000
0000000000000000
0000000000000000
0000000000000000
0000000000000000
0000000000000000
0000000000000000
0000000000000000
0000000000000000
0000000000000000
0000000000000000
0000000000000000
0000000000000000
0000000000000000
ENDCHAR
STARTCHAR U+007B
ENCODING 123
SWIDTH 1000 0
DWIDTH 36 0
BBX 62 80 -13 -16
BITMAP
0000000000000000
0000000000000000
0000000000000000
0000000000000000
0000000000000000
0000000000000000
0000000000000000
0000000000000000
0000000000FFFF00
0000000001FFFE00
0000000001FFFE00
0000000001FFFE00
0000000003FFFC00
0000000003FFFC00
0000000003FFFC00
0000000007FFF800
000000007F800000
000000007F800000
00000000FF000000
00000000FF000000
00000000FF000000
00000001FE000000
00000001FE000000
00000001FE000000
000000003FC00000
000000003FC00000
000000003FC00000
000000007F800000
000000007F800000
000000007F800000
00000000FF000000
00000000FF000000
000000FFF0000000
000001FFE0000000
000001FFE0000000
000001FFE0000000
000003FFC0000000
000003FFC0000000
000003FFC0000000
000007FF80000000
00000007F8000000
00000007F8000000
0000000FF0000000
0000000FF0000000
0000000FF0000000
0000001FE0000000
0000001FE0000000
0000001FE0000000
000003FC00000000
000003FC00000000
000003FC00000000
000007F800000000
000007F800000000
000007F800000000
00000FF000000000
00000FF000000000
000000FFFF000000
000001FFFE000000
000001FFFE000000
000001FFFE000000
000003FFFC000000
000003FFFC000000
000003FFFC000000
000007FFF8000000
0000000000000000
0000000000000000
0000000000000000
0000000000000000
0000000000000000
0000000000000000
0000000000000000
0000000000000000
0000000000000000
0000000000000000
0000000000000000
0000000000000000
0000000000000000
0000000000000000
0000000000000000
0000000000000000
ENDCHAR
STARTCHAR U+007A
ENCODING 122
SWIDTH 1000 0
DWIDTH 36 0
BBX 62 80 -13 -16
BITMAP
0000000000000000
0000000000000000
0000000000000000
0000000000000000
0000000000000000
0000000000000000
0000000000000000
0000000000000000
0000000000000000
0000000000000000
0000000000000000
0000000000000000
0000000000000000
0000000000000000
0000000000000000
0000000000000000
0000000000000000
0000000000000000
0000000000000000
0000000000000000
0000000000000000
0000000000000000
0000000000000000
0000000000000000
00003FFFFFFFC000
00003FFFFFFFC000
00003FFFFFFFC000
00007FFFFFFF8000
00007FFFFFFF8000
00007FFFFFFF8000
0000FFFFFFFF0000
0000FFFFFFFF0000
000000000FF00000
000000001FE00000
000000001FE00000
000000001FE00000
000000003FC00000
000000003FC00000
000000003FC00000
000000007F800000
0000007FF8000000
0000007FF8000000
000000FFF0000000
000000FFF0000000
000000FFF0000000
000001FFE0000000
000001FFE0000000
000001FFE0000000
00003FC000000000
00003FC000000000
00003FC000000000
00007F8000000000
00007F8000000000
00007F8000000000
0000FF0000000000
0000FF0000000000
00FFFFFFFF000000
01FFFFFFFE000000
01FFFFFFFE000000
01FFFFFFFE000000
03FFFFFFFC000000
03FFFFFFFC000000
03FFFFFFFC000000
07FFFFFFF8000000
0000000000000000
0000000000000000
0000000000000000
0000000000000000
0000000000000000
0000000000000000
0000000000000000
0000000000000000
0000000000000000
0000000000000000
0000000000000000
0000000000000000
0000000000000000
0000000000000000
0000000000000000
0000000000000000
ENDCHAR
STARTCHAR U+0079
ENCODING 121
SWIDTH 1000 0
DWIDTH 36 0
BBX 62 80 -13 -16
BITMAP
0000000000000000
0000000000000000
0000000000000000
0000000000000000
0000000000000000
0000000000000000
0000000000000000
0000000000000000
0000000000000000
0000000000000000
0000000000000000
0000000000000000
0000000000000000
0000000000000000
0000000000000000
0000000000000000
0000000000000000
0000000000000000
0000000000000000
0000000000000000
0000000000000000
0000000000000000
0000000000000000
0000000000000000
00003FC003FC0000
00003FC003FC0000
00003FC003FC0000
00007F8007F80000
00007F8007F80000
00007F8007F80000
0000FF000FF00000
0000FF000FF00000
0000FF000FF00000
0001FE001FE00000
0001FE001FE00000
0001FE001FE00000
0003FC003FC00000
0003FC003FC00000
0003FC003FC00000
0007F8007F800000
0007F807FF800000
0007F807FF800000
000FF00FFF000000
000FF00FFF000000
000FF00FFF000000
001FE01FFE000000
001FE01FFE000000
001FE01FFE000000
0003FFFFFC000000
0003FFFFFC000000
0003FFFFFC000000
0007FFFFF8000000
0007FFFFF8000000
0007FFFFF8000000
000FFFFFF0000000
000FFFFFF0000000
0000000FF0000000
0000001FE0000000
0000001FE0000000
0000001FE0000000
0000003FC0000000
0000003FC0000000
0000003FC0000000
0000007F80000000
07F8007F80000000
07F8007F80000000
0FF000FF00000000
0FF000FF00000000
0FF000FF00000000
1FE001FE00000000
1FE001FE00000000
1FE001FE00000000
03FFFFC000000000
03FFFFC000000000
03FFFFC000000000
07FFFF8000000000
07FFFF8000000000
07FFFF8000000000
0FFFFF0000000000
0FFFFF0000000000
ENDCHAR
STARTCHAR U+0078
ENCODING 120
SWIDTH 1000 0
DWIDTH 36 0
BBX 62 80 -13 -16
BITMAP
0000000000000000
0000000000000000
0000000000000000
0000000000000000
0000000000000000
0000000000000000
0000000000000000
0000000000000000
0000000000000000
0000000000000000
0000000000000000
0000000000000000
0000000000000000
0000000000000000
0000000000000000
0000000000000000
0000000000000000
0000000000000000
0000000000000000
0000000000000000
0000000000000000
0000000000000000
0000000000000000
0000000000000000
00003FC003FC0000
00003FC003FC0000
00003FC003FC0000
00007F8007F80000
00007F8007F80000
00007F8007F80000
0000FF000FF00000
0000FF000FF00000
00000FF0FF000000
00001FE1FE000000
00001FE1FE000000
00001FE1FE000000
00003FC3FC000000
00003FC3FC000000
00003FC3FC000000
00007F87F8000000
000007FF80000000
000007FF80000000
00000FFF00000000
00000FFF00000000
00000FFF00000000
00001FFE00000000
00001FFE00000000
00001FFE00000000
0003FC3FC0000000
0003FC3FC0000000
0003FC3FC0000000
0007F87F80000000
0007F87F80000000
0007F87F80000000
000FF0FF00000000
000FF0FF00000000
00FF000FF0000000
01FE001FE0000000
01FE001FE0000000
01FE001FE0000000
03FC003FC0000000
03FC003FC0000000
03FC003FC0000000
07F8007F80000000
0000000000000000
0000000000000000
0000000000000000
0000000000000000
0000000000000000
0000000000000000
0000000000000000
0000000000000000
0000000000000000
0000000000000000
0000000000000000
0000000000000000
0000000000000000
0000000000000000
0000000000000000
0000000000000000
ENDCHAR
STARTCHAR U+0077
ENCODING 119
SWIDTH 1000 0
DWIDTH 36 0
BBX 62 80 -13 -16
BITMAP
0000000000000000
0000000000000000
0000000000000000
0000000000000000
0000000000000000
0000000000000000
0000000000000000
0000000000000000
0000000000000000
0000000000000000
0000000000000000
0000000000000000
0000000000000000
0000000000000000
0000000000000000
0000000000000000
0000000000000000
0000000000000000
0000000000000000
0000000000000000
0000000000000000
0000000000000000
0000000000000000
0000000000000000
00003FC0003FC000
00003FC0003FC000
00003FC0003FC000
00007F80007F8000
00007F80007F8000
00007F80007F8000
0000FF0000FF0000
0000FF0000FF0000
0000FF0000FF0000
0001FE0001FE0000
0001FE0001FE0000
0001FE0001FE0000
0003FC0003FC0000
0003FC0003FC0000
0003FC0003FC0000
0007F80007F80000
0007F87F87F80000
0007F87F87F80000
000FF0FF0FF00000
000FF0FF0FF00000
000FF0FF0FF00000
001FE1FE1FE00000
001FE1FE1FE00000
001FE1FE1FE00000
003FFFFFFFC00000
003FFFFFFFC00000
003FFFFFFFC00000
007FFFFFFF800000
007FFFFFFF800000
007FFFFFFF800000
00FFFFFFFF000000
00FFFFFFFF000000
000FF00FF0000000
001FE01FE0000000
001FE01FE0000000
001FE01FE0000000
003FC03FC0000000
003FC03FC0000000
003FC03FC0000000
007F807F80000000
0000000000000000
0000000000000000
0000000000000000
0000000000000000
0000000000000000
0000000000000000
0000000000000000
0000000000000000
0000000000000000
0000000000000000
0000000000000000
0000000000000000
0000000000000000
0000000000000000
0000000000000000
0000000000000000
ENDCHAR
STARTCHAR U+0076
ENCODING 118
SWIDTH 1000 0
DWIDTH 36 0
BBX 62 80 -13 -16
BITMAP
0000000000000000
0000000000000000
0000000000000000
0000000000000000
0000000000000000
0000000000000000
0000000000000000
0000000000000000
0000000000000000
0000000000000000
0000000000000000
0000000000000000
0000000000000000
0000000000000000
0000000000000000
0000000000000000
0000000000000000
0000000000000000
0000000000000000
0000000000000000
0000000000000000
0000000000000000
0000000000000000
0000000000000000
00003FC0003FC000
00003FC0003FC000
00003FC0003FC000
00007F80007F8000
00007F80007F8000
00007F80007F8000
0000FF0000FF0000
0000FF0000FF0000
0000FF0000FF0000
0001FE0001FE0000
0001FE0001FE0000
0001FE0001FE0000
0003FC0003FC0000
0003FC0003FC0000
0003FC0003FC0000
0007F80007F80000
00007F807F800000
00007F807F800000
0000FF00FF000000
0000FF00FF000000
0000FF00FF000000
0001FE01FE000000
0001FE01FE000000
0001FE01FE000000
00003FFFC0000000
00003FFFC0000000
00003FFFC0000000
00007FFF80000000
00007FFF80000000
00007FFF80000000
0000FFFF00000000
0000FFFF00000000
00000FF000000000
00001FE000000000
00001FE000000000
00001FE000000000
00003FC000000000
00003FC000000000
00003FC000000000
00007F8000000000
0000000000000000
0000000000000000
0000000000000000
0000000000000000
0000000000000000
0000000000000000
0000000000000000
0000000000000000
0000000000000000
0000000000000000
0000000000000000
0000000000000000
0000000000000000
0000000000000000
0000000000000000
0000000000000000
ENDCHAR
STARTCHAR U+0075
ENCODING 117
SWIDTH 1000 0
DWIDTH 36 0
BBX 62 80 -13 -16
BITMAP
0000000000000000
0000000000000000
0000000000000000
0000000000000000
0000000000000000
0000000000000000
0000000000000000
0000000000000000
0000000000000000
0000000000000000
0000000000000000
0000000000000000
0000000000000000
0000000000000000
0000000000000000
0000000000000000
0000000000000000
0000000000000000
0000000000000000
0000000000000000
0000000000000000
0000000000000000
0000000000000000
0000000000000000
00003FC003FC0000
00003FC003FC0000
00003FC003FC0000
00007F8007F80000
00007F8007F80000
00007F8007F80000
0000FF000FF00000
0000FF000FF00000
0000FF000FF00000
0001FE001FE00000
0001FE001FE00000
0001FE001FE00000
0003FC003FC00000
0003FC003FC00000
0003FC003FC00000
0007F8007F800000
0007F8007F800000
0007F8007F800000
000FF000FF000000
000FF000FF000000
000FF000FF000000
001FE001FE000000
001FE001FE000000
001FE001FE000000
003FC003FC000000
003FC003FC000000
003FC003FC000000
007F8007F8000000
007F8007F8000000
007F8007F8000000
00FF000FF0000000
00FF000FF0000000
000FFFFFFF000000
001FFFFFFE000000
001FFFFFFE000000
001FFFFFFE000000
003FFFFFFC000000
003FFFFFFC000000
003FFFFFFC000000
007FFFFFF8000000
0000000000000000
0000000000000000
0000000000000000
0000000000000000
0000000000000000
0000000000000000
0000000000000000
0000000000000000
0000000000000000
0000000000000000
0000000000000000
0000000000000000
0000000000000000
0000000000000000
0000000000000000
0000000000000000
ENDCHAR
STARTCHAR U+0074
ENCODING 116
SWIDTH 1000 0
DWIDTH 36 0
BBX 62 80 -13 -16
BITMAP
0000000000000000
0000000000000000
0000000000000000
0000000000000000
0000000000000000
0000000000000000
0000000000000000
0000000000000000
00000000FF000000
00000001FE000000
00000001FE000000
00000001FE000000
00000003FC000000
00000003FC000000
00000003FC000000
00000007F8000000
00000007F8000000
00000007F8000000
0000000FF0000000
0000000FF0000000
0000000FF0000000
0000001FE0000000
0000001FE0000000
0000001FE0000000
00003FFFFFC00000
00003FFFFFC00000
00003FFFFFC00000
00007FFFFF800000
00007FFFFF800000
00007FFFFF800000
0000FFFFFF000000
0000FFFFFF000000
000000FF00000000
000001FE00000000
000001FE00000000
000001FE00000000
000003FC00000000
000003FC00000000
000003FC00000000
000007F800000000
000007F800000000
000007F800000000
00000FF000000000
00000FF000000000
00000FF000000000
00001FE000000000
00001FE000000000
00001FE000000000
00003FC3FC000000
00003FC3FC000000
00003FC3FC000000
00007F87F8000000
00007F87F8000000
00007F87F8000000
0000FF0FF0000000
0000FF0FF0000000
00000FFF00000000
00001FFE00000000
00001FFE00000000
00001FFE00000000
00003FFC00000000
00003FFC00000000
00003FFC00000000
00007FF800000000
0000000000000000
0000000000000000
0000000000000000
0000000000000000
0000000000000000
0000000000000000
0000000000000000
0000000000000000
0000000000000000
0000000000000000
0000000000000000
0000000000000000
0000000000000000
0000000000000000
0000000000000000
0000000000000000
ENDCHAR
STARTCHAR U+0073
ENCODING 115
SWIDTH 1000 0
DWIDTH 36 0
BBX 62 80 -13 -16
BITMAP
0000000000000000
0000000000000000
0000000000000000
0000000000000000
0000000000000000
0000000000000000
0000000000000000
0000000000000000
0000000000000000
0000000000000000
0000000000000000
0000000000000000
0000000000000000
0000000000000000
0000000000000000
0000000000000000
0000000000000000
0000000000000000
0000000000000000
0000000000000000
0000000000000000
0000000000000000
0000000000000000
0000000000000000
000003FFFFFC0000
000003FFFFFC0000
000003FFFFFC0000
000007FFFFF80000
000007FFFFF80000
000007FFFFF80000
00000FFFFFF00000
00000FFFFFF00000
0000FF0000000000
0001FE0000000000
0001FE0000000000
0001FE0000000000
0003FC0000000000
0003FC0000000000
0003FC0000000000
0007F80000000000
00007FFFFF800000
00007FFFFF800000
0000FFFFFF000000
0000FFFFFF000000
0000FFFFFF000000
0001FFFFFE000000
0001FFFFFE000000
0001FFFFFE000000
000000003FC00000
000000003FC00000
000000003FC00000
000000007F800000
000000007F800000
000000007F800000
00000000FF000000
00000000FF000000
00FFFFFFF0000000
01FFFFFFE0000000
01FFFFFFE0000000
01FFFFFFE0000000
03FFFFFFC0000000
03FFFFFFC0000000
03FFFFFFC0000000
07FFFFFF80000000
0000000000000000
0000000000000000
0000000000000000
0000000000000000
0000000000000000
0000000000000000
0000000000000000
0000000000000000
0000000000000000
0000000000000000
0000000000000000
0000000000000000
0000000000000000
0000000000000000
0000000000000000
0000000000000000
ENDCHAR
STARTCHAR U+0072
ENCODING 114
SWIDTH 1000 0
DWIDTH 36 0
BBX 62 80 -13 -16
BITMAP
0000000000000000
0000000000000000
0000000000000000
0000000000000000
0000000000000000
0000000000000000
0000000000000000
0000000000000000
0000000000000000
0000000000000000
0000000000000000
0000000000000000
0000000000000000
0000000000000000
0000000000000000
0000000000000000
0000000000000000
0000000000000000
0000000000000000
0000000000000000
0000000000000000
0000000000000000
0000000000000000
0000000000000000
00003FC3FFFC0000
00003FC3FFFC0000
00003FC3FFFC0000
00007F87FFF80000
00007F87FFF80000
00007F87FFF80000
0000FF0FFFF00000
0000FF0FFFF00000
00000FFF00FF0000
00001FFE01FE0000
00001FFE01FE0000
00001FFE01FE0000
00003FFC03FC0000
00003FFC03FC0000
00003FFC03FC0000
00007FF807F80000
00007F8000000000
00007F8000000000
0000FF0000000000
0000FF0000000000
0000FF0000000000
0001FE0000000000
0001FE0000000000
0001FE0000000000
0003FC0000000000
0003FC0000000000
0003FC0000000000
0007F80000000000
0007F80000000000
0007F80000000000
000FF00000000000
000FF00000000000
000FF00000000000
001FE00000000000
001FE00000000000
001FE00000000000
003FC00000000000
003FC00000000000
003FC00000000000
007F800000000000
0000000000000000
0000000000000000
0000000000000000
0000000000000000
0000000000000000
0000000000000000
0000000000000000
0000000000000000
0000000000000000
0000000000000000
0000000000000000
0000000000000000
0000000000000000
0000000000000000
0000000000000000
0000000000000000
ENDCHAR
STARTCHAR U+0071
ENCODING 113
SWIDTH 1000 0
DWIDTH 36 0
BBX 62 80 -13 -16
BITMAP
0000000000000000
0000000000000000
0000000000000000
0000000000000000
0000000000000000
0000000000000000
0000000000000000
0000000000000000
0000000000000000
0000000000000000
0000000000000000
0000000000000000
0000000000000000
0000000000000000
0000000000000000
0000000000000000
0000000000000000
0000000000000000
0000000000000000
0000000000000000
0000000000000000
0000000000000000
0000000000000000
0000000000000000
000003FFFFFFC000
000003FFFFFFC000
000003FFFFFFC000
000007FFFFFF8000
000007FFFFFF8000
000007FFFFFF8000
00000FFFFFFF0000
00000FFFFFFF0000
0000FF000FFF0000
0001FE001FFE0000
0001FE001FFE0000
0001FE001FFE0000
0003FC003FFC0000
0003FC003FFC0000
0003FC003FFC0000
0007F8007FF80000
0007F8007FF80000
0007F8007FF80000
000FF000FFF00000
000FF000FFF00000
000FF000FFF00000
001FE001FFE00000
001FE001FFE00000
001FE001FFE00000
0003FFFFFFC00000
0003FFFFFFC00000
0003FFFFFFC00000
0007FFFFFF800000
0007FFFFFF800000
0007FFFFFF800000
000FFFFFFF000000
000FFFFFFF000000
00000000FF000000
00000001FE000000
00000001FE000000
00000001FE000000
00000003FC000000
00000003FC000000
00000003FC000000
00000007F8000000
00000007F8000000
00000007F8000000
0000000FF0000000
0000000FF0000000
0000000FF0000000
0000001FE0000000
0000001FE0000000
0000001FE0000000
0000003FC0000000
0000003FC0000000
0000003FC0000000
0000007F80000000
0000007F80000000
0000007F80000000
000000FF00000000
000000FF00000000
ENDCHAR
STARTCHAR U+0070
ENCODING 112
SWIDTH 1000 0
DWIDTH 36 0
BBX 62 80 -13 -16
BITMAP
0000000000000000
0000000000000000
0000000000000000
0000000000000000
0000000000000000
0000000000000000
0000000000000000
0000000000000000
0000000000000000
0000000000000000
0000000000000000
0000000000000000
0000000000000000
0000000000000000
0000000000000000
0000000000000000
0000000000000000
0000000000000000
0000000000000000
0000000000000000
0000000000000000
0000000000000000
0000000000000000
0000000000000000
00003FFFFFFC0000
00003FFFFFFC0000
00003FFFFFFC0000
00007FFFFFF80000
00007FFFFFF80000
00007FFFFFF80000
0000FFFFFFF00000
0000FFFFFFF00000
0000FFF000FF0000
0001FFE001FE0000
0001FFE001FE0000
0001FFE001FE0000
0003FFC003FC0000
0003FFC003FC0000
0003FFC003FC0000
0007FF8007F80000
0007FF8007F80000
0007FF8007F80000
000FFF000FF00000
000FFF000FF00000
000FFF000FF00000
001FFE001FE00000
001FFE001FE00000
001FFE001FE00000
003FFFFFFC000000
003FFFFFFC000000
003FFFFFFC000000
007FFFFFF8000000
007FFFFFF8000000
007FFFFFF8000000
00FFFFFFF0000000
00FFFFFFF0000000
00FF000000000000
01FE000000000000
01FE000000000000
01FE000000000000
03FC000000000000
03FC000000000000
03FC000000000000
07F8000000000000
07F8000000000000
07F8000000000000
0FF0000000000000
0FF0000000000000
0FF0000000000000
1FE0000000000000
1FE0000000000000
1FE0000000000000
3FC0000000000000
3FC0000000000000
3FC0000000000000
7F80000000000000
7F80000000000000
7F80000000000000
FF00000000000000
FF00000000000000
ENDCHAR
STARTCHAR U+006f
ENCODING 111
SWIDTH 1000 0
DWIDTH 36 0
BBX 62 80 -13 -16
BITMAP
0000000000000000
0000000000000000
0000000000000000
0000000000000000
0000000000000000
0000000000000000
0000000000000000
0000000000000000
0000000000000000
0000000000000000
0000000000000000
0000000000000000
0000000000000000
0000000000000000
0000000000000000
0000000000000000
0000000000000000
0000000000000000
0000000000000000
0000000000000000
0000000000000000
0000000000000000
0000000000000000
0000000000000000
000003FFFFFC0000
000003FFFFFC0000
000003FFFFFC0000
000007FFFFF80000
000007FFFFF80000
000007FFFFF80000
00000FFFFFF00000
00000FFFFFF00000
0000FF0000FF0000
0001FE0001FE0000
0001FE0001FE0000
0001FE0001FE0000
0003FC0003FC0000
0003FC0003FC0000
0003FC0003FC0000
0007F80007F80000
0007F80007F80000
0007F80007F80000
000FF0000FF00000
000FF0000FF00000
000FF0000FF00000
001FE0001FE00000
001FE0001FE00000
001FE0001FE00000
003FC0003FC00000
003FC0003FC00000
003FC0003FC00000
007F80007F800000
007F80007F800000
007F80007F800000
00FF0000FF000000
00FF0000FF000000
000FFFFFF0000000
001FFFFFE0000000
001FFFFFE0000000
001FFFFFE0000000
003FFFFFC0000000
003FFFFFC0000000
003FFFFFC0000000
007FFFFF80000000
0000000000000000
0000000000000000
0000000000000000
0000000000000000
0000000000000000
0000000000000000
0000000000000000
0000000000000000
0000000000000000
0000000000000000
0000000000000000
0000000000000000
0000000000000000
0000000000000000
0000000000000000
0000000000000000
ENDCHAR
STARTCHAR U+006e
ENCODING 110
SWIDTH 1000 0
DWIDTH 36 0
BBX 62 80 -13 -16
BITMAP
0000000000000000
0000000000000000
0000000000000000
0000000000000000
0000000000000000
0000000000000000
0000000000000000
0000000000000000
0000000000000000
0000000000000000
0000000000000000
0000000000000000
0000000000000000
0000000000000000
0000000000000000
0000000000000000
0000000000000000
0000000000000000
0000000000000000
0000000000000000
0000000000000000
0000000000000000
0000000000000000
0000000000000000
00003FFFFFFC0000
00003FFFFFFC0000
00003FFFFFFC0000
00007FFFFFF80000
00007FFFFFF80000
00007FFFFFF80000
0000FFFFFFF00000
0000FFFFFFF00000
0000FFF000FF0000
0001FFE001FE0000
0001FFE001FE0000
0001FFE001FE0000
0003FFC003FC0000
0003FFC003FC0000
0003FFC003FC0000
0007FF8007F80000
0007F80007F80000
0007F80007F80000
000FF0000FF00000
000FF0000FF00000
000FF0000FF00000
001FE0001FE00000
001FE0001FE00000
001FE0001FE00000
003FC0003FC00000
003FC0003FC00000
003FC0003FC00000
007F80007F800000
007F80007F800000
007F80007F800000
00FF0000FF000000
00FF0000FF000000
00FF0000FF000000
01FE0001FE000000
01FE0001FE000000
01FE0001FE000000
03FC0003FC000000
03FC0003FC000000
03FC0003FC000000
07F80007F8000000
0000000000000000
0000000000000000
0000000000000000
0000000000000000
0000000000000000
0000000000000000
0000000000000000
0000000000000000
0000000000000000
0000000000000000
0000000000000000
0000000000000000
0000000000000000
0000000000000000
0000000000000000
0000000000000000
ENDCHAR
STARTCHAR U+006d
ENCODING 109
SWIDTH 1000 0
DWIDTH 36 0
BBX 62 80 -13 -16
BITMAP
0000000000000000
0000000000000000
0000000000000000
0000000000000000
0000000000000000
0000000000000000
0000000000000000
0000000000000000
0000000000000000
0000000000000000
0000000000000000
0000000000000000
0000000000000000
0000000000000000
0000000000000000
0000000000000000
0000000000000000
0000000000000000
0000000000000000
0000000000000000
0000000000000000
0000000000000000
0000000000000000
0000000000000000
00003FFC03FC0000
00003FFC03FC0000
00003FFC03FC0000
00007FF807F80000
00007FF807F80000
00007FF807F80000
0000FFF00FF00000
0000FFF00FF00000
0000FFFFFFFF0000
0001FFFFFFFE0000
0001FFFFFFFE0000
0001FFFFFFFE0000
0003FFFFFFFC0000
0003FFFFFFFC0000
0003FFFFFFFC0000
0007FFFFFFF80000
0007F87F87F80000
0007F87F87F80000
000FF0FF0FF00000
000FF0FF0FF00000
000FF0FF0FF00000
001FE1FE1FE00000
001FE1FE1FE00000
001FE1FE1FE00000
003FC3FC3FC00000
003FC3FC3FC00000
003FC3FC3FC00000
007F87F87F800000
007F87F87F800000
007F87F87F800000
00FF0FF0FF000000
00FF0FF0FF000000
00FF0000FF000000
01FE0001FE000000
01FE0001FE000000
01FE0001FE000000
03FC0003FC000000
03FC0003FC000000
03FC0003FC000000
07F80007F8000000
0000000000000000
0000000000000000
0000000000000000
0000000000000000
0000000000000000
0000000000000000
0000000000000000
0000000000000000
0000000000000000
0000000000000000
0000000000000000
0000000000000000
0000000000000000
0000000000000000
0000000000000000
0000000000000000
ENDCHAR
STARTCHAR U+006c
ENCODING 108
SWIDTH 1000 0
DWIDTH 36 0
BBX 62 80 -13 -16
BITMAP
0000000000000000
0000000000000000
0000000000000000
0000000000000000
0000000000000000
0000000000000000
0000000000000000
0000000000000000
00000000FFF00000
00000001FFE00000
00000001FFE00000
00000001FFE00000
00000003FFC00000
00000003FFC00000
00000003FFC00000
00000007FF800000
000000007F800000
000000007F800000
00000000FF000000
00000000FF000000
00000000FF000000
00000001FE000000
00000001FE000000
00000001FE000000
00000003FC000000
00000003FC000000
00000003FC000000
00000007F8000000
00000007F8000000
00000007F8000000
0000000FF0000000
0000000FF0000000
0000000FF0000000
0000001FE0000000
0000001FE0000000
0000001FE0000000
0000003FC0000000
0000003FC0000000
0000003FC0000000
0000007F80000000
0000007F80000000
0000007F80000000
000000FF00000000
000000FF00000000
000000FF00000000
000001FE00000000
000001FE00000000
000001FE00000000
000003FC00000000
000003FC00000000
000003FC00000000
000007F800000000
000007F800000000
000007F800000000
00000FF000000000
00000FF000000000
0000FFFF00000000
0001FFFE00000000
0001FFFE00000000
0001FFFE00000000
0003FFFC00000000
0003FFFC00000000
0003FFFC00000000
0007FFF800000000
0000000000000000
0000000000000000
0000000000000000
0000000000000000
0000000000000000
0000000000000000
0000000000000000
0000000000000000
0000000000000000
0000000000000000
0000000000000000
0000000000000000
0000000000000000
0000000000000000
0000000000000000
0000000000000000
ENDCHAR
STARTCHAR U+006b
ENCODING 107
SWIDTH 1000 0
DWIDTH 36 0
BBX 62 80 -13 -16
BITMAP
0000000000000000
0000000000000000
0000000000000000
0000000000000000
0000000000000000
0000000000000000
0000000000000000
0000000000000000
000000FF00000000
000001FE00000000
000001FE00000000
000001FE00000000
000003FC00000000
000003FC00000000
000003FC00000000
000007F800000000
000007F800000000
000007F800000000
00000FF000000000
00000FF000000000
00000FF000000000
00001FE000000000
00001FE000000000
00001FE000000000
00003FC03FC00000
00003FC03FC00000
00003FC03FC00000
00007F807F800000
00007F807F800000
00007F807F800000
0000FF00FF000000
0000FF00FF000000
0000FF0FF0000000
0001FE1FE0000000
0001FE1FE0000000
0001FE1FE0000000
0003FC3FC0000000
0003FC3FC0000000
0003FC3FC0000000
0007F87F80000000
0007FFF800000000
0007FFF800000000
000FFFF000000000
000FFFF000000000
000FFFF000000000
001FFFE000000000
001FFFE000000000
001FFFE000000000
003FC03FC0000000
003FC03FC0000000
003FC03FC0000000
007F807F80000000
007F807F80000000
007F807F80000000
00FF00FF00000000
00FF00FF00000000
00FF00017F000000
01FE0001FE000000
01FE0001FE000000
01FE0001FE000000
03FC0003FC000000
03FC0003FC000000
03FC0003FC000000
07F80007F8000000
0000000000000000
0000000000000000
0000000000000000
0000000000000000
0000000000000000
0000000000000000
0000000000000000
0000000000000000
0000000000000000
0000000000000000
0000000000000000
0000000000000000
0000000000000000
0000000000000000
0000000000000000
0000000000000000
ENDCHAR
STARTCHAR U+006a
ENCODING 106
SWIDTH 1000 0
DWIDTH 36 0
BBX 62 80 -13 -16
BITMAP
0000000000000000
0000000000000000
0000000000000000
0000000000000000
0000000000000000
0000000000000000
0000000000000000
0000000000000000
00000000000FF000
00000000001FE000
00000000001FE000
00000000001FE000
00000000003FC000
00000000003FC000
00000000003FC000
00000000007F8000
0000000000000000
0000000000000000
0000000000000000
0000000000000000
0000000000000000
0000000000000000
0000000000000000
0000000000000000
0000000003FC0000
0000000003FC0000
0000000003FC0000
0000000007F80000
0000000007F80000
0000000007F80000
000000000FF00000
000000000FF00000
000000000FF00000
000000001FE00000
000000001FE00000
000000001FE00000
000000003FC00000
000000003FC00000
000000003FC00000
000000007F800000
000000007F800000
000000007F800000
00000000FF000000
00000000FF000000
00000000FF000000
00000001FE000000
00000001FE000000
00000001FE000000
00000003FC000000
00000003FC000000
00000003FC000000
00000007F8000000
00000007F8000000
00000007F8000000
0000000FF0000000
0000000FF0000000
00FF000FF0000000
01FE001FE0000000
01FE001FE0000000
01FE001FE0000000
03FC003FC0000000
03FC003FC0000000
03FC003FC0000000
07F8007F80000000
07F8007F80000000
07F8007F80000000
0FF000FF00000000
0FF000FF00000000
0FF000FF00000000
1FE001FE00000000
1FE001FE00000000
1FE001FE00000000
03FFFFC000000000
03FFFFC000000000
03FFFFC000000000
07FFFF8000000000
07FFFF8000000000
07FFFF8000000000
0FFFFF0000000000
0FFFFF0000000000
ENDCHAR
STARTCHAR U+0069
ENCODING 105
SWIDTH 1000 0
DWIDTH 36 0
BBX 62 80 -13 -16
BITMAP
0000000000000000
0000000000000000
0000000000000000
0000000000000000
0000000000000000
0000000000000000
0000000000000000
0000000000000000
000000000FF00000
000000001FE00000
000000001FE00000
000000001FE00000
000000003FC00000
000000003FC00000
000000003FC00000
000000007F800000
0000000000000000
0000000000000000
0000000000000000
0000000000000000
0000000000000000
0000000000000000
0000000000000000
0000000000000000
0000003FFC000000
0000003FFC000000
0000003FFC000000
0000007FF8000000
0000007FF8000000
0000007FF8000000
000000FFF0000000
000000FFF0000000
0000000FF0000000
0000001FE0000000
0000001FE0000000
0000001FE0000000
0000003FC0000000
0000003FC0000000
0000003FC0000000
0000007F80000000
0000007F80000000
0000007F80000000
000000FF00000000
000000FF00000000
000000FF00000000
000001FE00000000
000001FE00000000
000001FE00000000
000003FC00000000
000003FC00000000
000003FC00000000
000007F800000000
000007F800000000
000007F800000000
00000FF000000000
00000FF000000000
000FFFFFF0000000
001FFFFFE0000000
001FFFFFE0000000
001FFFFFE0000000
003FFFFFC0000000
003FFFFFC0000000
003FFFFFC0000000
007FFFFF80000000
0000000000000000
0000000000000000
0000000000000000
0000000000000000
0000000000000000
0000000000000000
0000000000000000
0000000000000000
0000000000000000
0000000000000000
0000000000000000
0000000000000000
0000000000000000
0000000000000000
0000000000000000
0000000000000000
ENDCHAR
STARTCHAR U+0068
ENCODING 104
SWIDTH 1000 0
DWIDTH 36 0
BBX 62 80 -13 -16
BITMAP
0000000000000000
0000000000000000
0000000000000000
0000000000000000
0000000000000000
0000000000000000
0000000000000000
0000000000000000
000000FF00000000
000001FE00000000
000001FE00000000
000001FE00000000
000003FC00000000
000003FC00000000
000003FC00000000
000007F800000000
000007F800000000
000007F800000000
00000FF000000000
00000FF000000000
00000FF000000000
00001FE000000000
00001FE000000000
00001FE000000000
00003FFFFFFC0000
00003FFFFFFC0000
00003FFFFFFC0000
00007FFFFFF80000
00007FFFFFF80000
00007FFFFFF80000
0000FFFFFFF00000
0000FFFFFFF00000
0000FFF000FF0000
0001FFE001FE0000
0001FFE001FE0000
0001FFE001FE0000
0003FFC003FC0000
0003FFC003FC0000
0003FFC003FC0000
0007FF8007F80000
0007F80007F80000
0007F80007F80000
000FF0000FF00000
000FF0000FF00000
000FF0000FF00000
001FE0001FE00000
001FE0001FE00000
001FE0001FE00000
003FC0003FC00000
003FC0003FC00000
003FC0003FC00000
007F80007F800000
007F80007F800000
007F80007F800000
00FF0000FF000000
00FF0000FF000000
00FF0000FF000000
01FE0001FE000000
01FE0001FE000000
01FE0001FE000000
03FC0003FC000000
03FC0003FC000000
03FC0003FC000000
07F80007F8000000
0000000000000000
0000000000000000
0000000000000000
0000000000000000
0000000000000000
0000000000000000
0000000000000000
0000000000000000
0000000000000000
0000000000000000
0000000000000000
0000000000000000
0000000000000000
0000000000000000
0000000000000000
0000000000000000
ENDCHAR
STARTCHAR U+0067
ENCODING 103
SWIDTH 1000 0
DWIDTH 36 0
BBX 62 80 -13 -16
BITMAP
0000000000000000
0000000000000000
0000000000000000
0000000000000000
0000000000000000
0000000000000000
0000000000000000
0000000000000000
0000000000000000
0000000000000000
0000000000000000
0000000000000000
0000000000000000
0000000000000000
0000000000000000
0000000000000000
0000000000000000
0000000000000000
0000000000000000
0000000000000000
0000000000000000
0000000000000000
0000000000000000
0000000000000000
000003FFFFFFC000
000003FFFFFFC000
000003FFFFFFC000
000007FFFFFF8000
000007FFFFFF8000
000007FFFFFF8000
00000FFFFFFF0000
00000FFFFFFF0000
0000FF000FF00000
0001FE001FE00000
0001FE001FE00000
0001FE001FE00000
0003FC003FC00000
0003FC003FC00000
0003FC003FC00000
0007F8007F800000
00007FFFF8000000
00007FFFF8000000
0000FFFFF0000000
0000FFFFF0000000
0000FFFFF0000000
0001FFFFE0000000
0001FFFFE0000000
0001FFFFE0000000
003FC00000000000
003FC00000000000
003FC00000000000
007F800000000000
007F800000000000
007F800000000000
00FF000000000000
00FF000000000000
000FFFFFF0000000
001FFFFFE0000000
001FFFFFE0000000
001FFFFFE0000000
003FFFFFC0000000
003FFFFFC0000000
003FFFFFC0000000
007FFFFF80000000
07F80007F8000000
07F80007F8000000
0FF0000FF0000000
0FF0000FF0000000
0FF0000FF0000000
1FE0001FE0000000
1FE0001FE0000000
1FE0001FE0000000
03FFFFFC00000000
03FFFFFC00000000
03FFFFFC00000000
07FFFFF800000000
07FFFFF800000000
07FFFFF800000000
0FFFFFF000000000
0FFFFFF000000000
ENDCHAR
STARTCHAR U+0066
ENCODING 102
SWIDTH 1000 0
DWIDTH 36 0
BBX 62 80 -13 -16
BITMAP
0000000000000000
0000000000000000
0000000000000000
0000000000000000
0000000000000000
0000000000000000
0000000000000000
0000000000000000
000000000FFFF000
000000001FFFE000
000000001FFFE000
000000001FFFE000
000000003FFFC000
000000003FFFC000
000000003FFFC000
000000007FFF8000
00000007F807F800
00000007F807F800
0000000FF00FF000
0000000FF00FF000
0000000FF00FF000
0000001FE01FE000
0000001FE01FE000
0000001FE01FE000
0000003FC0000000
0000003FC0000000
0000003FC0000000
0000007F80000000
0000007F80000000
0000007F80000000
000000FF00000000
000000FF00000000
0000FFFFFF000000
0001FFFFFE000000
0001FFFFFE000000
0001FFFFFE000000
0003FFFFFC000000
0003FFFFFC000000
0003FFFFFC000000
0007FFFFF8000000
000007F800000000
000007F800000000
00000FF000000000
00000FF000000000
00000FF000000000
00001FE000000000
00001FE000000000
00001FE000000000
00003FC000000000
00003FC000000000
00003FC000000000
00007F8000000000
00007F8000000000
00007F8000000000
0000FF0000000000
0000FF0000000000
0000FF0000000000
0001FE0000000000
0001FE0000000000
0001FE0000000000
0003FC0000000000
0003FC0000000000
0003FC0000000000
0007F80000000000
0000000000000000
0000000000000000
0000000000000000
0000000000000000
0000000000000000
0000000000000000
0000000000000000
0000000000000000
0000000000000000
0000000000000000
0000000000000000
0000000000000000
0000000000000000
0000000000000000
0000000000000000
0000000000000000
ENDCHAR
STARTCHAR U+0065
ENCODING 101
SWIDTH 1000 0
DWIDTH 36 0
BBX 62 80 -13 -16
BITMAP
0000000000000000
0000000000000000
0000000000000000
0000000000000000
0000000000000000
0000000000000000
0000000000000000
0000000000000000
0000000000000000
0000000000000000
0000000000000000
0000000000000000
0000000000000000
0000000000000000
0000000000000000
0000000000000000
0000000000000000
0000000000000000
0000000000000000
0000000000000000
0000000000000000
0000000000000000
0000000000000000
0000000000000000
000003FFFFFC0000
000003FFFFFC0000
000003FFFFFC0000
000007FFFFF80000
000007FFFFF80000
000007FFFFF80000
00000FFFFFF00000
00000FFFFFF00000
0000FF0000FF0000
0001FE0001FE0000
0001FE0001FE0000
0001FE0001FE0000
0003FC0003FC0000
0003FC0003FC0000
0003FC0003FC0000
0007F80007F80000
0007FFFFFFF80000
0007FFFFFFF80000
000FFFFFFFF00000
000FFFFFFFF00000
000FFFFFFFF00000
001FFFFFFFE00000
001FFFFFFFE00000
001FFFFFFFE00000
003FC00000000000
003FC00000000000
003FC00000000000
007F800000000000
007F800000000000
007F800000000000
00FF000000000000
00FF000000000000
000FFFFFF0000000
001FFFFFE0000000
001FFFFFE0000000
001FFFFFE0000000
003FFFFFC0000000
003FFFFFC0000000
003FFFFFC0000000
007FFFFF80000000
0000000000000000
0000000000000000
0000000000000000
0000000000000000
0000000000000000
0000000000000000
0000000000000000
0000000000000000
0000000000000000
0000000000000000
0000000000000000
0000000000000000
0000000000000000
0000000000000000
0000000000000000
0000000000000000
ENDCHAR
STARTCHAR U+0064
ENCODING 100
SWIDTH 1000 0
DWIDTH 36 0
BBX 62 80 -13 -16
BITMAP
0000000000000000
0000000000000000
0000000000000000
0000000000000000
0000000000000000
0000000000000000
0000000000000000
0000000000000000
000000000000FF00
000000000001FE00
000000000001FE00
000000000001FE00
000000000003FC00
000000000003FC00
000000000003FC00
000000000007F800
000000000007F800
000000000007F800
00000000000FF000
00000000000FF000
00000000000FF000
00000000001FE000
00000000001FE000
00000000001FE000
000003FFFFFFC000
000003FFFFFFC000
000003FFFFFFC000
000007FFFFFF8000
000007FFFFFF8000
000007FFFFFF8000
00000FFFFFFF0000
00000FFFFFFF0000
0000FF000FFF0000
0001FE001FFE0000
0001FE001FFE0000
0001FE001FFE0000
0003FC003FFC0000
0003FC003FFC0000
0003FC003FFC0000
0007F8007FF80000
0007F80007F80000
0007F80007F80000
000FF0000FF00000
000FF0000FF00000
000FF0000FF00000
001FE0001FE00000
001FE0001FE00000
001FE0001FE00000
003FC003FFC00000
003FC003FFC00000
003FC003FFC00000
007F8007FF800000
007F8007FF800000
007F8007FF800000
00FF000FFF000000
00FF000FFF000000
000FFFFFFF000000
001FFFFFFE000000
001FFFFFFE000000
001FFFFFFE000000
003FFFFFFC000000
003FFFFFFC000000
003FFFFFFC000000
007FFFFFF8000000
0000000000000000
0000000000000000
0000000000000000
0000000000000000
0000000000000000
0000000000000000
0000000000000000
0000000000000000
0000000000000000
0000000000000000
0000000000000000
0000000000000000
0000000000000000
0000000000000000
0000000000000000
0000000000000000
ENDCHAR
ENDFONT
